mtllib ka_downbody_001_re.mtl

g ka_downbody_001_re
v -4.672302 -13.086390 113.257912
vn -0.379317 -0.850574 0.245521
v 1.522697 -13.209582 116.017021
vn 0.205793 -0.875423 0.254339
v -4.360822 -12.301109 116.230110
vn -0.489762 -0.765391 0.299162
v 1.820642 -15.466647 108.494019
vn 0.191976 -0.896607 0.198869
v 8.488618 -10.688274 108.255363
vn 0.755653 -0.534384 0.182440
v 7.448645 -9.490952 115.400780
vn 0.807672 -0.457804 0.189848
v 11.621668 -0.048177 108.001396
vn 0.955585 0.000003 0.112254
v 10.357985 -0.048178 114.956200
vn 0.943756 -0.000001 0.171480
v -9.890649 -9.308870 110.925163
vn -0.797002 -0.427370 0.261908
v -9.886083 -11.029168 104.266914
vn -0.779235 -0.517451 0.044893
v -3.734480 -15.081017 107.452538
vn -0.375383 -0.880760 0.122708
v -0.761118 -16.464817 100.736229
vn 0.004506 -0.915077 0.044208
v 9.302528 -12.434792 98.862312
vn 0.749332 -0.456014 0.001563
v -8.705943 -7.657296 115.864479
vn -0.829134 -0.338074 0.311913
v -9.179629 -0.048155 115.798012
vn -0.794042 0.000001 0.263812
v -12.174903 -1.068684 109.241066
vn -0.850740 0.124866 0.099423
v -11.922119 -2.382882 102.505913
vn -0.677011 0.257871 -0.300625
v -8.911277 -11.778650 100.408600
vn -0.715203 -0.577567 -0.007484
v -1.790520 -17.023693 92.514984
vn -0.168208 -0.866938 0.021910
v 8.448809 -12.885269 92.198967
vn 0.681553 -0.515441 -0.050828
v -11.255052 -0.048149 105.826561
vn -0.652368 0.000002 -0.139975
v -9.076689 -0.048160 103.031731
vn -0.361748 0.000020 -0.727455
v -0.933578 -0.967461 100.123314
vn -0.253354 0.638301 -0.553433
v -10.759589 -3.762746 98.508728
vn -0.522112 0.499331 -0.189924
v -11.075173 -10.028434 92.771217
vn -0.658005 0.061289 -0.063401
v -12.174899 0.972385 109.241066
vn -0.850739 -0.124867 0.099430
v -11.922225 2.286565 102.506332
vn -0.677029 -0.257857 -0.300595
v -0.933575 0.871139 100.123314
vn -0.253368 -0.638275 -0.553411
v -0.981023 -0.048163 100.333260
vn -0.310058 0.000001 -0.930203
v -9.890626 9.212567 110.925163
vn -0.797001 0.427370 0.261913
v -9.886131 10.932848 104.267242
vn -0.779243 0.517446 0.044938
v -8.912082 11.682289 100.409729
vn -0.715212 0.577546 -0.007325
v -10.760574 3.666377 98.510101
vn -0.522135 -0.499345 -0.189789
v -1.178421 1.127353 97.661453
vn -0.262857 -0.959719 -0.096607
v -0.959536 1.715335 92.449783
vn -0.466372 -0.776726 -0.248076
v -8.705924 7.560985 115.864479
vn -0.829133 0.338076 0.311913
v -4.360792 12.204788 116.230118
vn -0.489760 0.765392 0.299163
v -4.672271 12.990071 113.257919
vn -0.379313 0.850575 0.245526
v -3.734456 14.984690 107.452675
vn -0.375390 0.880753 0.122747
v -0.762307 16.368479 100.736404
vn 0.004500 0.915072 0.044203
v -1.793896 16.927351 92.515366
vn -0.168214 0.866935 0.021956
v -11.078433 9.932014 92.773590
vn -0.658014 -0.061304 -0.063228
v -2.383464 2.896069 77.453613
vn -0.647162 -0.761850 -0.021370
v 1.522727 13.113246 116.017021
vn 0.205797 0.875422 0.254337
v 1.820675 15.370317 108.493973
vn 0.191983 0.896609 0.198843
v 9.300898 12.338518 98.860764
vn 0.749320 0.456039 0.001392
v 8.445399 12.789012 92.197151
vn 0.681537 0.515446 -0.050988
v 8.488617 10.591935 108.255165
vn 0.755657 0.534405 0.182386
v 10.458342 5.430163 104.250572
vn 0.828801 0.037062 -0.118588
v 9.824471 5.111763 97.594383
vn 0.588992 -0.563970 -0.131531
v 9.191289 5.365090 92.153877
vn 0.727183 -0.316836 -0.104202
v 7.448668 9.394602 115.400780
vn 0.807673 0.457804 0.189843
v 11.546612 -0.048176 103.492256
vn 0.654244 -0.000002 -0.576148
v 5.935543 2.372355 100.569420
vn 0.356055 -0.400219 -0.539603
v -1.178421 1.127353 97.661453
vn 0.289790 -0.923549 -0.201570
v -0.959536 1.715335 92.449783
vn 0.335342 -0.937107 -0.096313
v -0.933575 0.871139 100.123314
vn 0.096821 -0.381914 -0.698203
v 5.649410 -0.048166 100.443153
vn 0.176749 -0.000007 -0.953436
v -0.981023 -0.048163 100.333260
vn 0.016153 0.000000 -0.974591
v -0.933578 -0.967461 100.123314
vn 0.096820 0.381909 -0.698153
v 5.935709 -2.468689 100.569519
vn 0.356052 0.400223 -0.539540
v -1.176824 -1.223691 97.661194
vn 0.289810 0.923560 -0.201465
v 10.458440 -5.526504 104.250786
vn 0.828793 -0.037033 -0.118490
v 9.826279 -5.208034 97.596008
vn 0.589000 0.563989 -0.131377
v -0.956275 -1.811670 92.449577
vn 0.335354 0.937112 -0.096228
v 9.194646 -5.461340 92.155853
vn 0.727206 0.316845 -0.104022
v 7.546703 -6.563837 77.165817
vn 0.657565 0.413981 -0.131797
v -2.376969 -2.992413 77.453102
vn 0.336152 0.932356 -0.131582
v 6.777091 -13.424702 77.199966
vn 0.662474 -0.529143 -0.116148
v 5.149039 -7.330883 67.100006
vn 0.680665 0.322075 -0.274473
v -3.501495 -4.482896 64.763397
vn 0.393098 0.897903 -0.177380
v 2.770366 -7.885972 62.691010
vn 0.665820 0.403550 -0.284375
v -0.266758 -8.139395 50.234516
vn 0.665832 0.545525 -0.133811
v -7.148770 -4.888567 50.676529
vn 0.418573 0.901138 -0.110446
v -2.525465 -16.848314 77.480118
vn -0.108766 -0.880781 -0.033242
v 4.185750 -13.446659 67.138885
vn 0.588515 -0.613568 -0.200910
v 2.363070 -13.208107 62.749229
vn 0.764665 -0.319636 -0.229929
v -11.339417 -10.712031 77.733139
vn -0.609644 -0.185193 0.002766
v -11.094790 -10.909613 67.633499
vn -0.608810 -0.036932 -0.047579
v -3.164190 -16.014278 64.772873
vn -0.028543 -0.869166 -0.017685
v 0.821175 -14.817097 50.187225
vn 0.673589 -0.390377 -0.054497
v -2.376969 -2.992413 77.453102
vn -0.647165 0.761843 -0.021516
v -3.501495 -4.482896 64.763397
vn -0.670412 0.733254 0.010047
v -10.347857 -10.855672 62.994148
vn -0.630650 -0.029017 0.099951
v -6.773697 -17.340069 50.648441
vn -0.212154 -0.839931 0.076092
v -0.956275 -1.811670 92.449577
vn -0.466325 0.776723 -0.248183
v -1.176824 -1.223691 97.661194
vn -0.262841 0.959711 -0.096733
v -7.148770 -4.888567 50.676529
vn -0.674439 0.724194 0.104562
v -14.239771 -11.339500 51.099567
vn -0.647146 0.131574 0.074044
v -14.087740 -11.899500 36.603924
vn -0.648962 -0.110838 0.166353
v -7.468966 -17.785946 36.409134
vn -0.132705 -0.811184 0.188894
v -0.912690 -15.101372 36.207138
vn 0.630551 -0.471289 0.101478
v -1.614226 -9.171600 36.222149
vn 0.722116 0.503689 0.019080
v -7.721095 -6.000479 36.404274
vn -0.669496 0.728730 0.059240
v -8.137251 -5.077780 32.577187
vn -0.633011 0.686193 -0.100217
v -15.587831 -12.017393 32.811340
vn -0.632592 -0.258357 -0.023124
v -7.669107 -18.592278 34.497932
vn -0.138910 -0.811752 0.132399
v -0.318390 -15.797238 32.367645
vn 0.533016 -0.560848 -0.087696
v -1.029025 -8.891132 32.381283
vn 0.722791 0.406004 -0.194245
v -13.855282 -12.166781 29.911860
vn -0.643899 0.004253 -0.171267
v -7.881098 -18.551445 31.162073
vn -0.146345 -0.776715 -0.188850
v -7.861822 -18.112255 32.604042
vn -0.161895 -0.845684 0.029952
v -1.914836 -15.076009 29.558453
vn 0.695883 -0.318701 -0.269749
v -7.698914 -6.748703 29.718925
vn -0.625661 0.702008 -0.250159
v -7.617724 -6.781402 26.868135
vn -0.650212 0.758651 0.009819
v -14.199245 -12.279394 27.073885
vn -0.659043 0.020611 0.079058
v -8.207092 -17.906094 26.897852
vn -0.315621 -0.789666 0.085833
v -7.892948 -17.704281 29.737410
vn -0.031462 -0.806660 -0.142555
v -2.064077 -15.190276 26.708376
vn 0.601283 -0.587491 -0.006353
v -2.414593 -9.963639 26.713472
vn 0.837367 0.334728 -0.044558
v -2.363415 -9.806495 29.566246
vn 0.667303 0.531689 -0.195893
v -7.617724 -6.781402 26.868135
vn 0.508515 0.860022 -0.026035
v -7.698914 -6.748703 29.718925
vn 0.450789 0.817902 -0.287168
v -8.137251 -5.077780 32.577187
vn 0.450902 0.851526 -0.037290
v -7.721095 -6.000479 36.404274
vn 0.445020 0.886797 -0.011758
v 7.540116 6.467571 77.164200
vn 0.657538 -0.413975 -0.131950
v 6.770459 13.328431 77.198517
vn 0.662441 0.529147 -0.116310
v -2.383464 2.896069 77.453613
vn 0.336135 -0.932351 -0.131664
v 5.139935 7.234562 67.099815
vn 0.680617 -0.322071 -0.274627
v 4.176631 13.350336 67.138802
vn 0.588478 0.613565 -0.201041
v -2.532063 16.751972 77.480675
vn -0.108774 0.880781 -0.033219
v -11.345911 10.615619 77.735588
vn -0.609645 0.185188 0.002905
v -3.510949 4.386546 64.764229
vn 0.393094 -0.897897 -0.177400
v 2.760870 7.789602 62.691978
vn 0.665802 -0.403548 -0.284397
v 2.353591 13.111737 62.750202
vn 0.764647 0.319630 -0.229946
v -3.173644 15.917930 64.773697
vn -0.028546 0.869165 -0.017675
v -11.103781 10.813234 67.635292
vn -0.608815 0.036930 -0.047454
v -3.510949 4.386546 64.764229
vn -0.670415 -0.733263 0.010100
v -0.274710 8.043018 50.235806
vn 0.665845 -0.545528 -0.133736
v 0.813278 14.720713 50.188644
vn 0.673602 0.390370 -0.054418
v -6.781628 17.243744 50.648975
vn -0.212154 0.839935 0.076066
v -10.357338 10.759347 62.994793
vn -0.630664 0.029020 0.099928
v -7.156800 4.792245 50.677017
vn -0.674450 -0.724197 0.104481
v -7.156800 4.792245 50.677017
vn 0.418579 -0.901141 -0.110401
v -7.727455 5.904163 36.404694
vn 0.445015 -0.886800 -0.011706
v -1.620540 9.075238 36.223278
vn 0.722110 -0.503695 0.019164
v -0.918957 15.005004 36.208351
vn 0.630542 0.471284 0.101551
v -7.475236 17.689629 36.409584
vn -0.132720 0.811185 0.188879
v -14.094080 11.803233 36.603603
vn -0.648980 0.110843 0.166277
v -14.247805 11.243232 51.099228
vn -0.647156 -0.131569 0.073964
v -7.727455 5.904163 36.404694
vn -0.669508 -0.728725 0.059162
v -8.143173 4.981468 32.577557
vn 0.450900 -0.851530 -0.037238
v -1.034894 8.794765 32.382481
vn 0.722811 -0.406009 -0.194161
v -0.324205 15.700867 32.368927
vn 0.533030 0.560844 -0.087634
v -7.675149 18.495960 34.498363
vn -0.138920 0.811753 0.132383
v -7.704491 6.652387 29.719345
vn 0.450816 -0.817906 -0.287116
v -2.368950 9.710139 29.567291
vn 0.667322 -0.531694 -0.195816
v -1.920330 14.979650 29.559549
vn 0.695917 0.318696 -0.269668
v -7.886752 18.455128 31.162477
vn -0.146317 0.776717 -0.188867
v -7.867648 18.015938 32.604450
vn -0.161892 0.845685 0.029933
v -15.593725 11.921138 32.810844
vn -0.632587 0.258362 -0.023198
v -7.622969 6.685088 26.868565
vn 0.508511 -0.860026 -0.025976
v -2.419795 9.867285 26.714508
vn 0.837370 -0.334735 -0.044461
v -2.069239 15.093919 26.709454
vn 0.601288 0.587487 -0.006283
v -7.898442 17.607967 29.737810
vn -0.031439 0.806661 -0.142558
v -13.860838 12.070514 29.911566
vn -0.643879 -0.004248 -0.171342
v -8.212254 17.809780 26.898216
vn -0.315625 0.789669 0.085796
v -14.204470 12.183130 27.073551
vn -0.659052 -0.020606 0.078982
v -7.622969 6.685088 26.868565
vn -0.650219 -0.758646 0.009743
v -7.704491 6.652387 29.719345
vn -0.625637 -0.702003 -0.250232
v -8.143173 4.981468 32.577557
vn -0.633005 -0.686188 -0.100291
vt 0.544852 0.960224 0.000000
vt 0.446253 0.988623 0.000000
vt 0.550469 0.988623 0.000000
vt 0.446060 0.903150 0.000000
vt 0.328946 0.903446 0.000000
vt 0.318422 0.988623 0.000000
vt 0.133274 0.909560 0.000000
vt 0.133274 0.988623 0.000000
vt 0.644919 0.935198 0.000000
vt 0.622718 0.859427 0.000000
vt 0.519955 0.894167 0.000000
vt 0.475332 0.814176 0.000000
vt 0.341780 0.800401 0.000000
vt 0.662482 0.988623 0.000000
vt 0.792862 0.988623 0.000000
vt 0.767368 0.918901 0.000000
vt 0.741898 0.842535 0.000000
vt 0.601041 0.812064 0.000000
vt 0.483759 0.714422 0.000000
vt 0.348104 0.714422 0.000000
vt 0.792862 0.876999 0.000000
vt 0.792862 0.849903 0.000000
vt 0.779907 0.794287 0.000000
vt 0.698415 0.793396 0.000000
vt 0.630876 0.714422 0.000000
vt 0.767368 0.918901 0.000000
vt 0.741898 0.842535 0.000000
vt 0.779907 0.794287 0.000000
vt 0.792862 0.781789 0.000000
vt 0.644919 0.935198 0.000000
vt 0.622718 0.859427 0.000000
vt 0.601041 0.812064 0.000000
vt 0.698415 0.793396 0.000000
vt 0.779907 0.773876 0.000000
vt 0.779907 0.714422 0.000000
vt 0.662482 0.988623 0.000000
vt 0.550469 0.988623 0.000000
vt 0.544852 0.960224 0.000000
vt 0.519955 0.894167 0.000000
vt 0.475332 0.814176 0.000000
vt 0.483759 0.714422 0.000000
vt 0.630876 0.714422 0.000000
vt 0.779907 0.554448 0.000000
vt 0.446253 0.988623 0.000000
vt 0.446060 0.903150 0.000000
vt 0.341780 0.800401 0.000000
vt 0.348104 0.714422 0.000000
vt 0.328946 0.903446 0.000000
vt 0.252660 0.865695 0.000000
vt 0.263123 0.787764 0.000000
vt 0.268802 0.714422 0.000000
vt 0.318422 0.988623 0.000000
vt 0.133274 0.856255 0.000000
vt 0.197176 0.823420 0.000000
vt 0.145634 0.784786 0.000000
vt 0.145634 0.714422 0.000000
vt 0.145634 0.801367 0.000000
vt 0.133274 0.823420 0.000000
vt 0.133274 0.803424 0.000000
vt 0.145634 0.801367 0.000000
vt 0.197176 0.823420 0.000000
vt 0.145634 0.784786 0.000000
vt 0.252660 0.865695 0.000000
vt 0.263123 0.787764 0.000000
vt 0.145634 0.714422 0.000000
vt 0.268802 0.714422 0.000000
vt 0.279261 0.554448 0.000000
vt 0.145634 0.554448 0.000000
vt 0.360024 0.554448 0.000000
vt 0.276336 0.451743 0.000000
vt 0.145634 0.417736 0.000000
vt 0.272328 0.400620 0.000000
vt 0.262276 0.256927 0.000000
vt 0.145634 0.256927 0.000000
vt 0.483208 0.554448 0.000000
vt 0.366101 0.451743 0.000000
vt 0.366150 0.400620 0.000000
vt 0.620258 0.554448 0.000000
vt 0.622952 0.435302 0.000000
vt 0.477069 0.412229 0.000000
vt 0.374017 0.256927 0.000000
vt 0.779907 0.554448 0.000000
vt 0.779907 0.417736 0.000000
vt 0.628401 0.388049 0.000000
vt 0.499435 0.256927 0.000000
vt 0.779907 0.714422 0.000000
vt 0.779907 0.773876 0.000000
vt 0.779907 0.256927 0.000000
vt 0.636896 0.256927 0.000000
vt 0.633883 0.112217 0.000000
vt 0.486560 0.112217 0.000000
vt 0.366955 0.112217 0.000000
vt 0.263442 0.112217 0.000000
vt 0.779907 0.112217 0.000000
vt 0.779907 0.070166 0.000000
vt 0.634098 0.070166 0.000000
vt 0.485290 0.092032 0.000000
vt 0.366962 0.070166 0.000000
vt 0.264086 0.070166 0.000000
vt 0.630808 0.040706 0.000000
vt 0.485569 0.051387 0.000000
vt 0.486722 0.070166 0.000000
vt 0.368643 0.040706 0.000000
vt 0.779907 0.040706 0.000000
vt 0.779907 0.010425 0.000000
vt 0.635244 0.010425 0.000000
vt 0.491327 0.010425 0.000000
vt 0.487706 0.040706 0.000000
vt 0.366668 0.010425 0.000000
vt 0.260217 0.010425 0.000000
vt 0.262900 0.040706 0.000000
vt 0.145634 0.010425 0.000000
vt 0.145634 0.040706 0.000000
vt 0.145634 0.070166 0.000000
vt 0.145634 0.112217 0.000000
vt 0.279261 0.554448 0.000000
vt 0.360024 0.554448 0.000000
vt 0.145634 0.554448 0.000000
vt 0.276336 0.451743 0.000000
vt 0.366101 0.451743 0.000000
vt 0.483208 0.554448 0.000000
vt 0.620258 0.554448 0.000000
vt 0.145634 0.417736 0.000000
vt 0.272328 0.400620 0.000000
vt 0.366150 0.400620 0.000000
vt 0.477069 0.412229 0.000000
vt 0.622952 0.435302 0.000000
vt 0.779907 0.417736 0.000000
vt 0.262276 0.256927 0.000000
vt 0.374017 0.256927 0.000000
vt 0.499435 0.256927 0.000000
vt 0.628401 0.388049 0.000000
vt 0.779907 0.256927 0.000000
vt 0.145634 0.256927 0.000000
vt 0.145634 0.112217 0.000000
vt 0.263442 0.112217 0.000000
vt 0.366955 0.112217 0.000000
vt 0.486560 0.112217 0.000000
vt 0.633883 0.112217 0.000000
vt 0.636896 0.256927 0.000000
vt 0.779907 0.112217 0.000000
vt 0.145634 0.070166 0.000000
vt 0.264086 0.070166 0.000000
vt 0.366962 0.070166 0.000000
vt 0.485290 0.092032 0.000000
vt 0.145634 0.040706 0.000000
vt 0.262900 0.040706 0.000000
vt 0.368643 0.040706 0.000000
vt 0.485569 0.051387 0.000000
vt 0.486722 0.070166 0.000000
vt 0.634098 0.070166 0.000000
vt 0.145634 0.010425 0.000000
vt 0.260217 0.010425 0.000000
vt 0.366668 0.010425 0.000000
vt 0.487706 0.040706 0.000000
vt 0.630808 0.040706 0.000000
vt 0.491327 0.010425 0.000000
vt 0.635244 0.010425 0.000000
vt 0.779907 0.010425 0.000000
vt 0.779907 0.040706 0.000000
vt 0.779907 0.070166 0.000000
usemtl Material_0
f 1/1/1 2/2/2 3/3/3
f 4/4/4 2/2/2 1/1/1
f 2/2/2 4/4/4 5/5/5
f 5/5/5 6/6/6 2/2/2
f 6/6/6 5/5/5 7/7/7
f 7/7/7 8/8/8 6/6/6
f 9/9/9 1/1/1 3/3/3
f 1/1/1 9/9/9 10/10/10
f 10/10/10 11/11/11 1/1/1
f 1/1/1 11/11/11 4/4/4
f 11/11/11 12/12/12 4/4/4
f 4/4/4 12/12/12 13/13/13
f 13/13/13 5/5/5 4/4/4
f 3/3/3 14/14/14 9/9/9
f 9/9/9 14/14/14 15/15/15
f 15/15/15 16/16/16 9/9/9
f 16/16/16 10/10/10 9/9/9
f 17/17/17 10/10/10 16/16/16
f 17/17/17 18/18/18 10/10/10
f 10/10/10 18/18/18 11/11/11
f 11/11/11 18/18/18 12/12/12
f 19/19/19 12/12/12 18/18/18
f 12/12/12 19/19/19 20/20/20
f 20/20/20 13/13/13 12/12/12
f 16/16/16 15/15/15 21/21/21
f 16/16/16 21/21/21 17/17/17
f 17/17/17 21/21/21 22/22/22
f 23/23/23 17/17/17 22/22/22
f 23/23/23 24/24/24 17/17/17
f 17/17/17 24/24/24 18/18/18
f 24/24/24 25/25/25 18/18/18
f 18/18/18 25/25/25 19/19/19
f 26/26/26 21/21/21 15/15/15
f 26/26/26 27/27/27 21/21/21
f 27/27/27 22/22/22 21/21/21
f 28/28/28 22/22/22 27/27/27
f 22/22/22 28/28/28 29/29/29
f 22/22/22 29/29/29 23/23/23
f 30/30/30 26/26/26 15/15/15
f 26/26/26 30/30/30 31/31/31
f 27/27/27 26/26/26 31/31/31
f 27/27/27 31/31/31 32/32/32
f 27/27/27 32/32/32 33/33/33
f 28/28/28 27/27/27 33/33/33
f 28/28/28 33/33/33 34/34/34
f 34/34/34 33/33/33 35/35/35
f 15/15/15 36/36/36 30/30/30
f 30/30/30 36/36/36 37/37/37
f 37/37/37 38/38/38 30/30/30
f 31/31/31 30/30/30 38/38/38
f 38/38/38 39/39/39 31/31/31
f 31/31/31 39/39/39 32/32/32
f 39/39/39 40/40/40 32/32/32
f 32/32/32 40/40/40 41/41/41
f 41/41/41 42/42/42 32/32/32
f 33/33/33 32/32/32 42/42/42
f 33/33/33 42/42/42 35/35/35
f 43/43/43 35/35/35 42/42/42
f 38/38/38 37/37/37 44/44/44
f 38/38/38 44/44/44 45/45/45
f 45/45/45 39/39/39 38/38/38
f 39/39/39 45/45/45 40/40/40
f 46/46/46 40/40/40 45/45/45
f 40/40/40 46/46/46 47/47/47
f 47/47/47 41/41/41 40/40/40
f 48/48/48 45/45/45 44/44/44
f 45/45/45 48/48/48 46/46/46
f 49/49/49 46/46/46 48/48/48
f 49/49/49 50/50/50 46/46/46
f 46/46/46 50/50/50 51/51/51
f 51/51/51 47/47/47 46/46/46
f 44/44/44 52/52/52 48/48/48
f 7/7/7 48/48/48 52/52/52
f 48/48/48 7/7/7 49/49/49
f 49/49/49 7/7/7 53/53/53
f 54/54/54 49/49/49 53/53/53
f 49/49/49 54/54/54 50/50/50
f 54/54/54 55/55/55 50/50/50
f 50/50/50 55/55/55 56/56/56
f 56/56/56 51/51/51 50/50/50
f 52/52/52 8/8/8 7/7/7
f 54/54/54 57/57/57 55/55/55
f 57/57/57 54/54/54 58/58/58
f 58/58/58 59/59/59 57/57/57
f 60/60/60 59/59/59 58/58/58
f 58/58/58 61/61/61 60/60/60
f 61/61/61 62/62/62 60/60/60
f 58/58/58 54/54/54 53/53/53
f 58/58/58 53/53/53 61/61/61
f 61/61/61 53/53/53 63/63/63
f 63/63/63 64/64/64 61/61/61
f 61/61/61 64/64/64 62/62/62
f 65/65/65 62/62/62 64/64/64
f 64/64/64 66/66/66 65/65/65
f 65/65/65 66/66/66 67/67/67
f 67/67/67 68/68/68 65/65/65
f 63/63/63 53/53/53 7/7/7
f 5/5/5 63/63/63 7/7/7
f 63/63/63 5/5/5 13/13/13
f 63/63/63 13/13/13 64/64/64
f 66/66/66 64/64/64 13/13/13
f 13/13/13 20/20/20 66/66/66
f 67/67/67 66/66/66 20/20/20
f 20/20/20 69/69/69 67/67/67
f 70/70/70 67/67/67 69/69/69
f 68/68/68 67/67/67 70/70/70
f 70/70/70 71/71/71 68/68/68
f 70/70/70 72/72/72 71/71/71
f 71/71/71 72/72/72 73/73/73
f 71/71/71 73/73/73 74/74/74
f 69/69/69 20/20/20 19/19/19
f 19/19/19 75/75/75 69/69/69
f 76/76/76 69/69/69 75/75/75
f 69/69/69 76/76/76 70/70/70
f 70/70/70 76/76/76 77/77/77
f 77/77/77 72/72/72 70/70/70
f 73/73/73 72/72/72 77/77/77
f 78/78/78 75/75/75 19/19/19
f 75/75/75 78/78/78 79/79/79
f 79/79/79 80/80/80 75/75/75
f 75/75/75 80/80/80 76/76/76
f 80/80/80 77/77/77 76/76/76
f 77/77/77 80/80/80 81/81/81
f 77/77/77 81/81/81 73/73/73
f 19/19/19 25/25/25 78/78/78
f 82/82/82 78/78/78 25/25/25
f 79/79/79 78/78/78 82/82/82
f 82/82/82 83/83/83 79/79/79
f 79/79/79 83/83/83 84/84/84
f 79/79/79 84/84/84 80/80/80
f 84/84/84 85/85/85 80/80/80
f 81/81/81 80/80/80 85/85/85
f 25/25/25 86/86/86 82/82/82
f 24/24/24 86/86/86 25/25/25
f 87/87/87 86/86/86 24/24/24
f 23/23/23 87/87/87 24/24/24
f 83/83/83 88/88/88 84/84/84
f 84/84/84 88/88/88 89/89/89
f 84/84/84 89/89/89 85/85/85
f 85/85/85 89/89/89 90/90/90
f 90/90/90 91/91/91 85/85/85
f 85/85/85 91/91/91 92/92/92
f 92/92/92 81/81/81 85/85/85
f 81/81/81 92/92/92 93/93/93
f 93/93/93 73/73/73 81/81/81
f 89/89/89 88/88/88 94/94/94
f 94/94/94 90/90/90 89/89/89
f 90/90/90 94/94/94 95/95/95
f 95/95/95 96/96/96 90/90/90
f 96/96/96 97/97/97 90/90/90
f 91/91/91 90/90/90 97/97/97
f 92/92/92 91/91/91 97/97/97
f 98/98/98 92/92/92 97/97/97
f 92/92/92 98/98/98 99/99/99
f 99/99/99 93/93/93 92/92/92
f 100/100/100 96/96/96 95/95/95
f 96/96/96 100/100/100 101/101/101
f 96/96/96 101/101/101 102/102/102
f 97/97/97 96/96/96 102/102/102
f 98/98/98 97/97/97 102/102/102
f 101/101/101 98/98/98 102/102/102
f 98/98/98 101/101/101 103/103/103
f 99/99/99 98/98/98 103/103/103
f 95/95/95 104/104/104 100/100/100
f 100/100/100 104/104/104 105/105/105
f 105/105/105 106/106/106 100/100/100
f 100/100/100 106/106/106 107/107/107
f 107/107/107 108/108/108 100/100/100
f 100/100/100 108/108/108 101/101/101
f 108/108/108 103/103/103 101/101/101
f 109/109/109 103/103/103 108/108/108
f 103/103/103 109/109/109 110/110/110
f 110/110/110 111/111/111 103/103/103
f 103/103/103 111/111/111 99/99/99
f 108/108/108 107/107/107 109/109/109
f 111/111/111 110/110/110 112/112/112
f 112/112/112 113/113/113 111/111/111
f 99/99/99 111/111/111 113/113/113
f 113/113/113 114/114/114 99/99/99
f 93/93/93 99/99/99 114/114/114
f 114/114/114 115/115/115 93/93/93
f 73/73/73 93/93/93 115/115/115
f 115/115/115 74/74/74 73/73/73
f 116/116/116 51/51/51 56/56/56
f 47/47/47 51/51/51 116/116/116
f 116/116/116 117/117/117 47/47/47
f 41/41/41 47/47/47 117/117/117
f 56/56/56 118/118/118 116/116/116
f 119/119/119 116/116/116 118/118/118
f 117/117/117 116/116/116 119/119/119
f 119/119/119 120/120/120 117/117/117
f 121/121/121 117/117/117 120/120/120
f 117/117/117 121/121/121 41/41/41
f 41/41/41 121/121/121 122/122/122
f 122/122/122 42/42/42 41/41/41
f 42/42/42 122/122/122 43/43/43
f 118/118/118 123/123/123 119/119/119
f 119/119/119 123/123/123 124/124/124
f 119/119/119 124/124/124 125/125/125
f 125/125/125 120/120/120 119/119/119
f 126/126/126 120/120/120 125/125/125
f 120/120/120 126/126/126 121/121/121
f 121/121/121 126/126/126 127/127/127
f 127/127/127 122/122/122 121/121/121
f 43/43/43 122/122/122 127/127/127
f 127/127/127 128/128/128 43/43/43
f 123/123/123 129/129/129 124/124/124
f 125/125/125 124/124/124 129/129/129
f 129/129/129 130/130/130 125/125/125
f 125/125/125 130/130/130 126/126/126
f 130/130/130 131/131/131 126/126/126
f 132/132/132 126/126/126 131/131/131
f 127/127/127 126/126/126 132/132/132
f 127/127/127 132/132/132 128/128/128
f 128/128/128 132/132/132 133/133/133
f 123/123/123 134/134/134 129/129/129
f 129/129/129 134/134/134 135/135/135
f 135/135/135 136/136/136 129/129/129
f 130/130/130 129/129/129 136/136/136
f 136/136/136 137/137/137 130/130/130
f 131/131/131 130/130/130 137/137/137
f 137/137/137 138/138/138 131/131/131
f 131/131/131 138/138/138 139/139/139
f 139/139/139 140/140/140 131/131/131
f 132/132/132 131/131/131 140/140/140
f 132/132/132 140/140/140 133/133/133
f 141/141/141 133/133/133 140/140/140
f 136/136/136 135/135/135 142/142/142
f 142/142/142 143/143/143 136/136/136
f 137/137/137 136/136/136 143/143/143
f 143/143/143 144/144/144 137/137/137
f 144/144/144 145/145/145 137/137/137
f 137/137/137 145/145/145 138/138/138
f 138/138/138 145/145/145 139/139/139
f 143/143/143 142/142/142 146/146/146
f 146/146/146 147/147/147 143/143/143
f 143/143/143 147/147/147 148/148/148
f 148/148/148 144/144/144 143/143/143
f 144/144/144 148/148/148 149/149/149
f 149/149/149 150/150/150 144/144/144
f 144/144/144 150/150/150 145/145/145
f 145/145/145 150/150/150 151/151/151
f 151/151/151 139/139/139 145/145/145
f 147/147/147 146/146/146 152/152/152
f 152/152/152 153/153/153 147/147/147
f 148/148/148 147/147/147 153/153/153
f 153/153/153 154/154/154 148/148/148
f 155/155/155 148/148/148 154/154/154
f 155/155/155 149/149/149 148/148/148
f 156/156/156 149/149/149 155/155/155
f 151/151/151 149/149/149 156/156/156
f 151/151/151 150/150/150 149/149/149
f 154/154/154 157/157/157 155/155/155
f 156/156/156 155/155/155 157/157/157
f 157/157/157 158/158/158 156/156/156
f 156/156/156 158/158/158 159/159/159
f 159/159/159 160/160/160 156/156/156
f 156/156/156 160/160/160 161/161/161
f 161/161/161 151/151/151 156/156/156
f 139/139/139 151/151/151 161/161/161
f 161/161/161 141/141/141 139/139/139
f 140/140/140 139/139/139 141/141/141
