mtllib ka_downbody_002_1.mtl

g ka_downbody_002_1
v -15.998988 13.368684 13.582649
vn -0.609299 -0.251575 0.108886
v -8.924934 6.924932 13.722557
vn -0.661870 -0.722254 0.200694
v -8.221685 7.590657 18.437599
vn -0.602820 -0.785623 0.028429
v -15.445965 12.652455 18.517288
vn -0.593187 -0.010887 0.041421
v -8.361464 19.021511 14.075104
vn -0.304150 0.834440 0.182636
v -8.437349 17.985741 18.851334
vn -0.152607 0.862714 0.115067
v -0.321748 16.099579 16.304543
vn 0.500803 0.587782 0.260945
v -1.760968 15.633693 20.025536
vn 0.642587 0.410884 0.153728
v -1.117929 8.958026 16.315506
vn 0.586166 -0.524093 0.280556
v -7.853190 6.342214 31.695847
vn -0.592094 -0.804163 -0.043922
v -15.187366 11.998122 31.923790
vn -0.609063 0.264498 0.023671
v -7.718694 17.769447 31.704025
vn 0.035697 0.885636 0.023985
v -1.388470 15.139143 31.510368
vn 0.790145 0.234233 -0.017809
v -2.445490 9.821617 19.999771
vn 0.710431 -0.434006 0.108181
v -8.221685 7.590657 18.437599
vn 0.328881 -0.923328 0.067593
v -8.924934 6.924932 13.722557
vn 0.217991 -0.970341 0.104491
v -1.984885 9.402117 31.522285
vn 0.607651 -0.638136 -0.062678
v -7.853190 6.342214 31.695847
vn 0.457984 -0.883767 -0.095948
v -8.217531 -7.686968 18.437225
vn 0.328945 0.923260 0.067024
v -7.847686 -6.423527 31.695419
vn 0.457944 0.883675 -0.096985
v -1.979421 -9.483741 31.521179
vn 0.607721 0.638046 -0.063512
v -2.441225 -9.917965 19.998878
vn 0.710489 0.433966 0.107827
v -1.114063 -9.054365 16.314926
vn 0.586186 0.524089 0.280523
v -8.921125 -7.021240 13.722206
vn 0.218001 0.970340 0.104474
v -1.383052 -15.220778 31.509193
vn 0.790135 -0.234228 -0.017591
v -1.756738 -15.730045 20.024597
vn 0.642563 -0.410892 0.154034
v -0.317909 -16.195919 16.303955
vn 0.500816 -0.587783 0.260917
v -8.433224 -18.082047 18.850990
vn -0.152626 -0.862709 0.115569
v -8.357688 -19.117821 14.074753
vn -0.304144 -0.834438 0.182654
v -15.441826 -12.748718 18.517540
vn -0.593181 0.010886 0.041317
v -15.995197 -13.464964 13.582512
vn -0.609294 0.251577 0.108925
v -7.713276 -17.850819 31.703590
vn 0.035646 -0.885638 0.025050
v -15.181883 -12.079381 31.924225
vn -0.609050 -0.264478 0.024038
v -7.847686 -6.423527 31.695419
vn -0.592082 0.804125 -0.044764
v -8.217531 -7.686968 18.437225
vn -0.602808 0.785607 0.028172
v -8.921125 -7.021240 13.722206
vn -0.661858 0.722251 0.200742
vt 0.860478 0.045381 0.000000
vt 0.934715 0.063679 0.000000
vt 0.931258 0.106932 0.000000
vt 0.857012 0.095046 0.000000
vt 0.783140 0.054791 0.000000
vt 0.779978 0.098371 0.000000
vt 0.714981 0.070333 0.000000
vt 0.711998 0.105249 0.000000
vt 0.661636 0.065465 0.000000
vt 0.925996 0.232756 0.000000
vt 0.847856 0.224837 0.000000
vt 0.767650 0.219294 0.000000
vt 0.703219 0.216842 0.000000
vt 0.657668 0.103041 0.000000
vt 0.600181 0.087410 0.000000
vt 0.590654 0.046235 0.000000
vt 0.654182 0.214628 0.000000
vt 0.592820 0.209725 0.000000
vt 0.377714 0.087410 0.000000
vt 0.383930 0.209868 0.000000
vt 0.323948 0.214567 0.000000
vt 0.320228 0.103041 0.000000
vt 0.316259 0.065465 0.000000
vt 0.387242 0.046235 0.000000
vt 0.275134 0.216847 0.000000
vt 0.265897 0.105249 0.000000
vt 0.262914 0.070333 0.000000
vt 0.197917 0.098371 0.000000
vt 0.194754 0.054791 0.000000
vt 0.120884 0.095046 0.000000
vt 0.117417 0.045381 0.000000
vt 0.210142 0.219282 0.000000
vt 0.130040 0.224834 0.000000
vt 0.052124 0.232730 0.000000
vt 0.046637 0.106932 0.000000
vt 0.043180 0.063679 0.000000
usemtl Material_0
f 1/1/1 2/2/2 3/3/3
f 3/3/3 4/4/4 1/1/1
f 5/5/5 1/1/1 4/4/4
f 4/4/4 6/6/6 5/5/5
f 7/7/7 5/5/5 6/6/6
f 6/6/6 8/8/8 7/7/7
f 9/9/9 7/7/7 8/8/8
f 4/4/4 3/3/3 10/10/10
f 10/10/10 11/11/11 4/4/4
f 6/6/6 4/4/4 11/11/11
f 11/11/11 12/12/12 6/6/6
f 8/8/8 6/6/6 12/12/12
f 12/12/12 13/13/13 8/8/8
f 14/14/14 8/8/8 13/13/13
f 8/8/8 14/14/14 9/9/9
f 9/9/9 14/14/14 15/15/15
f 15/15/15 16/16/16 9/9/9
f 13/13/13 17/17/17 14/14/14
f 15/15/15 14/14/14 17/17/17
f 17/17/17 18/18/18 15/15/15
f 19/19/19 20/20/20 21/21/21
f 21/21/21 22/22/22 19/19/19
f 19/19/19 22/22/22 23/23/23
f 23/23/23 24/24/24 19/19/19
f 22/22/22 21/21/21 25/25/25
f 25/25/25 26/26/26 22/22/22
f 23/23/23 22/22/22 26/26/26
f 26/26/26 27/27/27 23/23/23
f 27/27/27 26/26/26 28/28/28
f 28/28/28 29/29/29 27/27/27
f 29/29/29 28/28/28 30/30/30
f 30/30/30 31/31/31 29/29/29
f 26/26/26 25/25/25 32/32/32
f 32/32/32 28/28/28 26/26/26
f 28/28/28 32/32/32 33/33/33
f 33/33/33 30/30/30 28/28/28
f 30/30/30 33/33/33 34/34/34
f 34/34/34 35/35/35 30/30/30
f 31/31/31 30/30/30 35/35/35
f 35/35/35 36/36/36 31/31/31
