mtllib ka_downbody_001.mtl

g ka_downbody_001
v -9.076688 -0.039673 103.031731
vn -0.450319 0.634917 -0.539127
v -3.868447 -0.039670 99.854172
vn -0.505342 0.241997 -0.828291
v -4.091110 -0.969092 99.718475
vn -0.320902 0.636295 -0.609350
v -10.777394 -3.317870 98.861191
vn -0.524200 0.506491 -0.289157
v -11.922110 -2.382885 102.505913
vn -0.807973 0.197022 -0.216066
v -11.255051 -0.039662 105.826569
vn -0.654033 0.666473 -0.139930
v -12.174891 -1.068686 109.241074
vn -0.851516 0.124125 0.099647
v -9.179626 -0.039668 115.798012
vn -0.795034 0.208071 0.264151
v -1.176816 -1.223693 97.661209
vn -0.231924 0.915921 -0.257090
v -2.042725 -1.753594 92.481247
vn -0.523906 0.760531 -0.184976
v -11.075171 -10.028438 92.771225
vn -0.675442 -0.093016 -0.069634
v -8.889304 -11.779200 99.953644
vn -0.709862 -0.579196 -0.001665
v -9.886073 -11.029173 104.266907
vn -0.795797 -0.478004 0.026428
v -9.890639 -9.308875 110.925171
vn -0.778697 -0.445394 0.249473
v -8.705935 -7.640322 115.864471
vn -0.828873 -0.337815 0.312925
v -4.360816 -12.284137 116.230095
vn -0.397255 -0.826969 0.269992
v -11.339412 -10.712034 77.733131
vn -0.620637 -0.031697 -0.005443
v -1.790516 -17.023701 92.514984
vn -0.169068 -0.866427 0.022123
v -0.761112 -16.464825 100.736237
vn -0.010953 -0.911550 0.057521
v -3.775059 -14.627352 107.392113
vn -0.425104 -0.870475 0.140177
v 1.820649 -15.466652 108.494003
vn 0.170704 -0.894414 0.196938
v 1.522703 -13.087252 116.017006
vn 0.324420 -0.849953 0.260031
v -2.376962 -2.992415 77.453087
vn -0.652713 0.756683 -0.036510
v -11.094783 -10.909616 67.633484
vn -0.608810 -0.036932 -0.047580
v -2.525460 -16.848320 77.480110
vn -0.108766 -0.880781 -0.033242
v 6.777098 -13.424707 77.199951
vn 0.662474 -0.529143 -0.116148
v 8.448817 -12.885275 92.198975
vn 0.681553 -0.515441 -0.050828
v -3.501487 -4.482899 64.763397
vn -0.670474 0.732497 0.013017
v -10.347854 -10.855673 62.994141
vn -0.639817 -0.021602 0.111260
v -3.164184 -16.014282 64.772873
vn -0.015553 -0.861986 -0.007635
v 4.185758 -13.446663 67.138885
vn 0.588515 -0.613568 -0.200911
v 5.149049 -7.330888 67.100006
vn 0.680665 0.322075 -0.274473
v 7.546710 -6.563842 77.165802
vn 0.653632 0.415707 -0.128018
v -7.152431 -4.715090 50.676460
vn -0.680786 0.717578 0.115399
v -14.239765 -11.339502 51.099571
vn -0.661696 -0.001291 0.090880
v -6.755977 -18.177380 50.648796
vn -0.120335 -0.826697 0.098288
v 0.821182 -14.817101 50.187233
vn 0.705480 -0.380937 -0.034433
v 2.363078 -13.208110 62.749237
vn 0.764665 -0.319637 -0.229929
v -7.997874 -5.762537 32.574326
vn -0.662991 0.748341 -0.007819
v -15.282869 -12.042189 32.802719
vn -0.652373 0.000396 0.023201
v -7.825020 -18.482834 32.584839
vn -0.217128 -0.829210 0.033356
v -0.695931 -15.469831 32.377914
vn 0.694444 -0.412696 -0.000481
v -1.343059 -9.180888 32.390350
vn 0.720106 0.506231 -0.046410
v -0.266748 -8.139399 50.234520
vn 0.707725 0.486513 -0.129279
v -15.554901 -12.733568 13.640350
vn -0.653120 -0.003948 0.009551
v -8.276470 -18.839760 14.216080
vn -0.161744 -0.855894 0.020606
v -0.313210 -16.133469 15.401535
vn 0.569129 -0.597493 0.024948
v -0.812441 -9.446194 15.382568
vn 0.692647 0.502617 -0.004557
v -8.847580 -6.784472 14.249268
vn -0.662956 0.748578 -0.011006
v 9.302538 -12.434797 98.862312
vn 0.749332 -0.456014 0.001563
v 8.488624 -10.688280 108.255371
vn 0.753639 -0.534902 0.184800
v 7.448650 -9.473980 115.400780
vn 0.804139 -0.459925 0.190544
v 11.621669 -0.039691 108.001404
vn 0.955554 0.000187 0.112330
v 10.357987 -0.039692 114.956200
vn 0.943689 -0.000001 0.171468
v 9.194656 -5.461345 92.155861
vn 0.717281 0.320327 -0.103109
v 9.826289 -5.208037 97.596008
vn 0.584394 0.564312 -0.140949
v 10.458449 -5.526510 104.250793
vn 0.828838 -0.036896 -0.118434
v -2.042725 -1.753594 92.481247
vn 0.322545 0.940186 -0.104917
v -1.176816 -1.223693 97.661209
vn 0.262720 0.927654 -0.154755
v 5.935717 -2.468694 100.569534
vn 0.346895 0.403942 -0.505957
v 11.546612 -0.039690 103.492271
vn 0.654244 0.000189 -0.576148
v -2.376962 -2.992415 77.453087
vn 0.336550 0.932910 -0.124719
v -3.501487 -4.482899 64.763397
vn 0.397807 0.895891 -0.175825
v 2.770374 -7.885975 62.691006
vn 0.665820 0.403550 -0.284375
v -7.152431 -4.715090 50.676460
vn 0.443015 0.891306 -0.092929
v -7.997874 -5.762537 32.574326
vn 0.411118 0.907234 -0.046604
v -8.847580 -6.784472 14.249268
vn 0.322316 0.944215 -0.067601
v -4.091110 -0.969092 99.718475
vn 0.093477 0.358057 -0.636017
v 5.649410 -0.039679 100.443161
vn 0.199548 -0.000348 -0.957927
v 5.935545 2.372355 100.569427
vn 0.346830 -0.403799 -0.506019
v 10.458344 5.430164 104.250580
vn 0.828756 0.037199 -0.118644
v -3.868447 -0.039670 99.854172
vn 0.061232 -0.001148 -0.989494
v -4.091192 0.872772 99.718544
vn 0.093454 -0.358734 -0.635939
v -1.178420 1.127352 97.661476
vn 0.262697 -0.927650 -0.154837
v 9.824474 5.111763 97.594391
vn 0.584383 -0.564292 -0.141102
v 9.300901 12.338520 98.860786
vn 0.749320 0.456039 0.001392
v 8.488619 10.591937 108.255196
vn 0.755641 0.534475 0.182341
v 7.448668 9.394604 115.400787
vn 0.807629 0.457949 0.189848
v -2.045985 1.657247 92.481689
vn 0.322531 -0.940181 -0.105000
v 9.191294 5.365091 92.153893
vn 0.717259 -0.320318 -0.103287
v 8.445402 12.789015 92.197166
vn 0.681537 0.515447 -0.050988
v -0.762306 16.368483 100.736420
vn -0.010959 0.911544 0.057519
v 1.820678 15.370317 108.493958
vn 0.168036 0.895340 0.192100
v 1.522730 13.113249 116.017021
vn 0.322485 0.849517 0.250462
v 7.540114 6.467573 77.164192
vn 0.653606 -0.415702 -0.128170
v 6.770456 13.328433 77.198509
vn 0.662441 0.529147 -0.116311
v -1.793896 16.927355 92.515381
vn -0.169074 0.866423 0.022171
v -8.890168 11.682835 99.954773
vn -0.709869 0.579178 -0.001506
v -3.775037 14.531025 107.392212
vn -0.425191 0.870513 0.139660
v -2.383466 2.896069 77.453606
vn 0.336535 -0.932905 -0.124801
v 5.139934 7.234563 67.099823
vn 0.680617 -0.322071 -0.274627
v 4.176629 13.350336 67.138802
vn 0.588478 0.613565 -0.201041
v -2.532065 16.751974 77.480667
vn -0.108774 0.880781 -0.033219
v -11.345914 10.615619 77.735580
vn -0.620638 0.031692 -0.005303
v -11.078439 9.932015 92.773605
vn -0.675451 0.093004 -0.069447
v -3.510950 4.386546 64.764229
vn 0.397803 -0.895885 -0.175845
v 2.760870 7.789601 62.691994
vn 0.665802 -0.403548 -0.284397
v 2.353590 13.111737 62.750214
vn 0.764647 0.319630 -0.229946
v -3.173645 15.917929 64.773705
vn -0.015557 0.861986 -0.007623
v -11.103781 10.813235 67.635292
vn -0.608815 0.036930 -0.047455
v -0.274711 8.043018 50.235825
vn 0.707738 -0.486516 -0.129199
v 0.813277 14.720713 50.188667
vn 0.705490 0.380930 -0.034351
v -6.763911 18.081051 50.649345
vn -0.120336 0.826701 0.098272
v -10.357340 10.759346 62.994797
vn -0.639832 0.021606 0.111236
v -7.160472 4.618764 50.676964
vn 0.443019 -0.891309 -0.092880
v -1.348938 9.084520 32.391510
vn 0.720107 -0.506236 -0.046326
v -0.701760 15.373457 32.379181
vn 0.694447 0.412691 -0.000400
v -7.830850 18.386517 32.585251
vn -0.217126 0.829212 0.033331
v -14.247805 11.243232 51.099251
vn -0.661707 0.001296 0.090799
v -8.003803 5.666222 32.574722
vn 0.411115 -0.907238 -0.046556
v -0.816315 9.349834 15.383575
vn 0.692643 -0.502622 -0.004477
v -0.317044 16.037106 15.402588
vn 0.569129 0.597489 0.025014
v -8.280197 18.743446 14.216431
vn -0.161741 0.855896 0.020588
v -15.558628 12.637306 13.640091
vn -0.653120 0.003953 0.009476
v -15.288776 11.945930 32.802277
vn -0.652376 -0.000391 0.023126
v -8.851387 6.688165 14.249603
vn 0.322314 -0.944219 -0.067564
v -4.360790 12.204789 116.230103
vn -0.401963 0.827748 0.264850
v -9.890624 9.212569 110.925179
vn -0.778929 0.445475 0.248819
v -8.705922 7.560986 115.864487
vn -0.829128 0.338108 0.311923
v -9.179626 -0.039668 115.798012
vn -0.793021 -0.209389 0.263547
v -12.174895 0.972386 109.241081
vn -0.849958 -0.125609 0.099206
v -11.255051 -0.039662 105.826569
vn -0.650692 -0.669788 -0.140019
v -9.886127 10.932851 104.267242
vn -0.795806 0.477998 0.026480
v -11.922218 2.286565 102.506332
vn -0.806908 -0.198357 -0.215789
v -9.076688 -0.039673 103.031731
vn -0.449213 -0.637453 -0.537801
v -10.778342 3.221498 98.862549
vn -0.523967 -0.507004 -0.288658
v -4.091192 0.872772 99.718544
vn -0.321031 -0.638174 -0.608220
v -3.868447 -0.039670 99.854172
vn -0.504789 -0.246214 -0.827385
v -2.045985 1.657247 92.481689
vn -0.523940 -0.760535 -0.184858
v -1.178420 1.127352 97.661476
vn -0.231960 -0.915928 -0.257026
v -2.383466 2.896069 77.453606
vn -0.652712 -0.756690 -0.036360
v -3.510950 4.386546 64.764229
vn -0.670478 -0.732506 0.013069
v -7.160472 4.618764 50.676964
vn -0.680798 -0.717581 0.115318
v -8.003803 5.666222 32.574722
vn -0.662995 -0.748336 -0.007895
v -8.851387 6.688165 14.249603
vn -0.662958 -0.748574 -0.011082
vt 0.088828 0.863606 0.000000
vt 0.061369 0.840324 0.000000
vt 0.064842 0.827804 0.000000
vt 0.115673 0.818201 0.000000
vt 0.112123 0.859732 0.000000
vt 0.088830 0.893620 0.000000
vt 0.099394 0.921337 0.000000
vt 0.091032 0.975866 0.000000
vt 0.047878 0.799303 0.000000
vt 0.065862 0.758309 0.000000
vt 0.187714 0.752097 0.000000
vt 0.208002 0.827751 0.000000
vt 0.200717 0.869666 0.000000
vt 0.192870 0.930106 0.000000
vt 0.186537 0.971919 0.000000
vt 0.250180 0.970549 0.000000
vt 0.192050 0.615233 0.000000
vt 0.280048 0.752989 0.000000
vt 0.279450 0.828604 0.000000
vt 0.254275 0.893017 0.000000
vt 0.297377 0.899298 0.000000
vt 0.303734 0.965758 0.000000
vt 0.073404 0.624419 0.000000
vt 0.190375 0.523791 0.000000
vt 0.283623 0.616278 0.000000
vt 0.353279 0.623170 0.000000
vt 0.352421 0.760745 0.000000
vt 0.072753 0.507651 0.000000
vt 0.189053 0.482374 0.000000
vt 0.288244 0.501126 0.000000
vt 0.351699 0.529936 0.000000
vt 0.396822 0.533998 0.000000
vt 0.395593 0.627565 0.000000
vt 0.080027 0.376964 0.000000
vt 0.183266 0.371209 0.000000
vt 0.268502 0.369000 0.000000
vt 0.341573 0.372849 0.000000
vt 0.349663 0.488858 0.000000
vt 0.083881 0.211670 0.000000
vt 0.180152 0.204354 0.000000
vt 0.271837 0.204321 0.000000
vt 0.346659 0.209987 0.000000
vt 0.408242 0.213335 0.000000
vt 0.410010 0.376394 0.000000
vt 0.174481 0.026790 0.000000
vt 0.279966 0.036978 0.000000
vt 0.356601 0.053258 0.000000
vt 0.405121 0.056676 0.000000
vt 0.080456 0.044568 0.000000
vt 0.351466 0.818800 0.000000
vt 0.347308 0.895661 0.000000
vt 0.354169 0.956004 0.000000
vt 0.500220 0.895778 0.000000
vt 0.500226 0.955919 0.000000
vt 0.405375 0.765379 0.000000
vt 0.408785 0.811803 0.000000
vt 0.406538 0.861038 0.000000
vt 0.483679 0.762176 0.000000
vt 0.490707 0.809417 0.000000
vt 0.446593 0.832116 0.000000
vt 0.500250 0.854938 0.000000
vt 0.480469 0.624419 0.000000
vt 0.479818 0.507651 0.000000
vt 0.398244 0.491829 0.000000
vt 0.490249 0.376964 0.000000
vt 0.488794 0.211669 0.000000
vt 0.478797 0.044568 0.000000
vt 0.495952 0.819661 0.000000
vt 0.500286 0.842509 0.000000
vt 0.553614 0.832116 0.000000
vt 0.593669 0.861038 0.000000
vt 0.500157 0.819628 0.000000
vt 0.504256 0.819661 0.000000
vt 0.509500 0.809417 0.000000
vt 0.591422 0.811803 0.000000
vt 0.648741 0.818800 0.000000
vt 0.652899 0.895661 0.000000
vt 0.646209 0.955948 0.000000
vt 0.516528 0.762176 0.000000
vt 0.594832 0.765379 0.000000
vt 0.647786 0.760745 0.000000
vt 0.720757 0.828604 0.000000
vt 0.702830 0.899298 0.000000
vt 0.696651 0.965389 0.000000
vt 0.604614 0.627565 0.000000
vt 0.646928 0.623170 0.000000
vt 0.720159 0.752989 0.000000
vt 0.792206 0.827751 0.000000
vt 0.743798 0.892920 0.000000
vt 0.519738 0.624419 0.000000
vt 0.603385 0.533998 0.000000
vt 0.648508 0.529936 0.000000
vt 0.716584 0.616278 0.000000
vt 0.808158 0.615233 0.000000
vt 0.812493 0.752097 0.000000
vt 0.520389 0.507651 0.000000
vt 0.601963 0.491829 0.000000
vt 0.650544 0.488858 0.000000
vt 0.711964 0.501126 0.000000
vt 0.809832 0.523791 0.000000
vt 0.590197 0.376394 0.000000
vt 0.658634 0.372849 0.000000
vt 0.731705 0.369000 0.000000
vt 0.811154 0.482374 0.000000
vt 0.509958 0.376964 0.000000
vt 0.591965 0.213335 0.000000
vt 0.653548 0.209987 0.000000
vt 0.728370 0.204321 0.000000
vt 0.816941 0.371209 0.000000
vt 0.511413 0.211669 0.000000
vt 0.595086 0.056676 0.000000
vt 0.643606 0.053258 0.000000
vt 0.720241 0.036978 0.000000
vt 0.825726 0.026790 0.000000
vt 0.820055 0.204354 0.000000
vt 0.521411 0.044568 0.000000
vt 0.749945 0.970541 0.000000
vt 0.807337 0.930106 0.000000
vt 0.813495 0.971872 0.000000
vt 0.909045 0.975874 0.000000
vt 0.900813 0.921337 0.000000
vt 0.911287 0.893609 0.000000
vt 0.799490 0.869666 0.000000
vt 0.888084 0.859732 0.000000
vt 0.911288 0.863518 0.000000
vt 0.884535 0.818201 0.000000
vt 0.935365 0.827804 0.000000
vt 0.938733 0.840151 0.000000
vt 0.934345 0.758309 0.000000
vt 0.952329 0.799303 0.000000
vt 0.926804 0.624419 0.000000
vt 0.927454 0.507651 0.000000
vt 0.920180 0.376964 0.000000
vt 0.916326 0.211670 0.000000
vt 0.919751 0.044568 0.000000
usemtl Material_0
f 1/1/1 2/2/2 3/3/3
f 1/1/1 3/3/3 4/4/4
f 4/4/4 5/5/5 1/1/1
f 5/5/5 6/6/6 1/1/1
f 7/7/7 6/6/6 5/5/5
f 8/8/8 6/6/6 7/7/7
f 3/3/3 9/9/9 4/4/4
f 9/9/9 10/10/10 4/4/4
f 4/4/4 10/10/10 11/11/11
f 4/4/4 11/11/11 12/12/12
f 5/5/5 4/4/4 12/12/12
f 5/5/5 12/12/12 13/13/13
f 5/5/5 13/13/13 7/7/7
f 7/7/7 13/13/13 14/14/14
f 8/8/8 7/7/7 14/14/14
f 14/14/14 15/15/15 8/8/8
f 16/16/16 15/15/15 14/14/14
f 17/17/17 11/11/11 10/10/10
f 18/18/18 11/11/11 17/17/17
f 12/12/12 11/11/11 18/18/18
f 12/12/12 18/18/18 19/19/19
f 20/20/20 12/12/12 19/19/19
f 13/13/13 12/12/12 20/20/20
f 14/14/14 13/13/13 20/20/20
f 16/16/16 14/14/14 20/20/20
f 16/16/16 20/20/20 21/21/21
f 21/21/21 22/22/22 16/16/16
f 10/10/10 23/23/23 17/17/17
f 24/24/24 17/17/17 23/23/23
f 25/25/25 17/17/17 24/24/24
f 17/17/17 25/25/25 18/18/18
f 18/18/18 25/25/25 26/26/26
f 26/26/26 27/27/27 18/18/18
f 19/19/19 18/18/18 27/27/27
f 23/23/23 28/28/28 24/24/24
f 24/24/24 28/28/28 29/29/29
f 24/24/24 29/29/29 30/30/30
f 24/24/24 30/30/30 25/25/25
f 25/25/25 30/30/30 31/31/31
f 31/31/31 26/26/26 25/25/25
f 26/26/26 31/31/31 32/32/32
f 32/32/32 33/33/33 26/26/26
f 27/27/27 26/26/26 33/33/33
f 28/28/28 34/34/34 29/29/29
f 29/29/29 34/34/34 35/35/35
f 29/29/29 35/35/35 36/36/36
f 29/29/29 36/36/36 30/30/30
f 37/37/37 30/30/30 36/36/36
f 38/38/38 30/30/30 37/37/37
f 30/30/30 38/38/38 31/31/31
f 32/32/32 31/31/31 38/38/38
f 35/35/35 34/34/34 39/39/39
f 39/39/39 40/40/40 35/35/35
f 35/35/35 40/40/40 41/41/41
f 41/41/41 36/36/36 35/35/35
f 36/36/36 41/41/41 42/42/42
f 42/42/42 37/37/37 36/36/36
f 37/37/37 42/42/42 43/43/43
f 43/43/43 44/44/44 37/37/37
f 38/38/38 37/37/37 44/44/44
f 39/39/39 45/45/45 40/40/40
f 40/40/40 45/45/45 41/41/41
f 41/41/41 45/45/45 46/46/46
f 41/41/41 46/46/46 47/47/47
f 41/41/41 47/47/47 42/42/42
f 42/42/42 47/47/47 48/48/48
f 48/48/48 43/43/43 42/42/42
f 39/39/39 49/49/49 45/45/45
f 20/20/20 19/19/19 21/21/21
f 21/21/21 19/19/19 50/50/50
f 50/50/50 51/51/51 21/21/21
f 22/22/22 21/21/21 51/51/51
f 51/51/51 52/52/52 22/22/22
f 52/52/52 51/51/51 53/53/53
f 53/53/53 54/54/54 52/52/52
f 27/27/27 50/50/50 19/19/19
f 50/50/50 27/27/27 55/55/55
f 55/55/55 56/56/56 50/50/50
f 57/57/57 50/50/50 56/56/56
f 57/57/57 51/51/51 50/50/50
f 51/51/51 57/57/57 53/53/53
f 33/33/33 55/55/55 27/27/27
f 58/58/58 55/55/55 33/33/33
f 56/56/56 55/55/55 58/58/58
f 58/58/58 59/59/59 56/56/56
f 60/60/60 56/56/56 59/59/59
f 57/57/57 56/56/56 60/60/60
f 60/60/60 61/61/61 57/57/57
f 57/57/57 61/61/61 53/53/53
f 33/33/33 62/62/62 58/58/58
f 62/62/62 33/33/33 32/32/32
f 32/32/32 63/63/63 62/62/62
f 32/32/32 64/64/64 63/63/63
f 63/63/63 64/64/64 44/44/44
f 63/63/63 44/44/44 65/65/65
f 65/65/65 44/44/44 43/43/43
f 43/43/43 66/66/66 65/65/65
f 38/38/38 64/64/64 32/32/32
f 44/44/44 64/64/64 38/38/38
f 43/43/43 48/48/48 66/66/66
f 66/66/66 48/48/48 67/67/67
f 60/60/60 59/59/59 68/68/68
f 69/69/69 60/60/60 68/68/68
f 69/69/69 61/61/61 60/60/60
f 69/69/69 70/70/70 61/61/61
f 70/70/70 71/71/71 61/61/61
f 71/71/71 53/53/53 61/61/61
f 68/68/68 72/72/72 69/69/69
f 69/69/69 72/72/72 73/73/73
f 73/73/73 70/70/70 69/69/69
f 70/70/70 73/73/73 74/74/74
f 70/70/70 74/74/74 75/75/75
f 71/71/71 70/70/70 75/75/75
f 71/71/71 75/75/75 76/76/76
f 71/71/71 76/76/76 77/77/77
f 77/77/77 53/53/53 71/71/71
f 53/53/53 77/77/77 78/78/78
f 78/78/78 54/54/54 53/53/53
f 75/75/75 74/74/74 79/79/79
f 79/79/79 80/80/80 75/75/75
f 76/76/76 75/75/75 80/80/80
f 80/80/80 81/81/81 76/76/76
f 82/82/82 76/76/76 81/81/81
f 76/76/76 82/82/82 83/83/83
f 83/83/83 77/77/77 76/76/76
f 77/77/77 83/83/83 84/84/84
f 84/84/84 78/78/78 77/77/77
f 85/85/85 80/80/80 79/79/79
f 81/81/81 80/80/80 85/85/85
f 85/85/85 86/86/86 81/81/81
f 87/87/87 81/81/81 86/86/86
f 81/81/81 87/87/87 82/82/82
f 88/88/88 82/82/82 87/87/87
f 89/89/89 82/82/82 88/88/88
f 89/89/89 83/83/83 82/82/82
f 79/79/79 90/90/90 85/85/85
f 91/91/91 85/85/85 90/90/90
f 86/86/86 85/85/85 91/91/91
f 91/91/91 92/92/92 86/86/86
f 93/93/93 86/86/86 92/92/92
f 86/86/86 93/93/93 87/87/87
f 87/87/87 93/93/93 94/94/94
f 94/94/94 95/95/95 87/87/87
f 88/88/88 87/87/87 95/95/95
f 90/90/90 96/96/96 91/91/91
f 91/91/91 96/96/96 97/97/97
f 91/91/91 97/97/97 98/98/98
f 98/98/98 92/92/92 91/91/91
f 99/99/99 92/92/92 98/98/98
f 92/92/92 99/99/99 93/93/93
f 93/93/93 99/99/99 100/100/100
f 100/100/100 94/94/94 93/93/93
f 96/96/96 101/101/101 97/97/97
f 98/98/98 97/97/97 101/101/101
f 101/101/101 102/102/102 98/98/98
f 98/98/98 102/102/102 99/99/99
f 102/102/102 103/103/103 99/99/99
f 104/104/104 99/99/99 103/103/103
f 100/100/100 99/99/99 104/104/104
f 96/96/96 105/105/105 101/101/101
f 106/106/106 101/101/101 105/105/105
f 102/102/102 101/101/101 106/106/106
f 106/106/106 107/107/107 102/102/102
f 103/103/103 102/102/102 107/107/107
f 107/107/107 108/108/108 103/103/103
f 109/109/109 103/103/103 108/108/108
f 104/104/104 103/103/103 109/109/109
f 105/105/105 110/110/110 106/106/106
f 106/106/106 110/110/110 111/111/111
f 107/107/107 106/106/106 111/111/111
f 111/111/111 112/112/112 107/107/107
f 108/108/108 107/107/107 112/112/112
f 108/108/108 112/112/112 113/113/113
f 108/108/108 113/113/113 114/114/114
f 115/115/115 108/108/108 114/114/114
f 108/108/108 115/115/115 109/109/109
f 110/110/110 116/116/116 111/111/111
f 117/117/117 84/84/84 83/83/83
f 83/83/83 89/89/89 117/117/117
f 117/117/117 89/89/89 118/118/118
f 117/117/117 118/118/118 119/119/119
f 120/120/120 119/119/119 118/118/118
f 118/118/118 121/121/121 120/120/120
f 120/120/120 121/121/121 122/122/122
f 89/89/89 123/123/123 118/118/118
f 121/121/121 118/118/118 123/123/123
f 124/124/124 121/121/121 123/123/123
f 121/121/121 124/124/124 122/122/122
f 124/124/124 125/125/125 122/122/122
f 125/125/125 124/124/124 126/126/126
f 126/126/126 127/127/127 125/125/125
f 125/125/125 127/127/127 128/128/128
f 123/123/123 89/89/89 88/88/88
f 124/124/124 123/123/123 88/88/88
f 124/124/124 88/88/88 126/126/126
f 126/126/126 88/88/88 95/95/95
f 126/126/126 95/95/95 129/129/129
f 130/130/130 126/126/126 129/129/129
f 127/127/127 126/126/126 130/130/130
f 129/129/129 95/95/95 94/94/94
f 94/94/94 131/131/131 129/129/129
f 131/131/131 94/94/94 100/100/100
f 100/100/100 132/132/132 131/131/131
f 100/100/100 104/104/104 132/132/132
f 132/132/132 104/104/104 133/133/133
f 104/104/104 109/109/109 133/133/133
f 134/134/134 133/133/133 109/109/109
f 109/109/109 115/115/115 134/134/134
f 134/134/134 115/115/115 114/114/114
f 134/134/134 114/114/114 135/135/135
