mtllib vr_face_001.mtl

g vr_face_001
v -7.210929 -13.300020 125.678970
vn 0.114898 -0.989948 -0.057424
v -6.936476 -13.162801 123.314011
vn 0.041682 -0.961654 -0.213425
v -4.974624 -13.037184 123.131149
vn 0.230301 -0.920241 -0.164578
v -6.055943 -11.944917 120.369263
vn 0.064505 -0.788015 -0.562572
v -3.063222 -11.711532 120.784561
vn 0.400641 -0.785666 -0.350174
v -1.532330 -10.938015 122.980911
vn 0.695427 -0.657770 -0.002419
v -4.193092 -12.877720 125.471542
vn 0.426768 -0.854780 -0.024042
v -3.920254 -13.383866 130.807968
vn 0.370368 -0.880518 -0.107748
v -7.141947 -13.843048 131.171371
vn 0.130677 -0.987361 -0.089097
v -5.562466 -13.947807 135.118042
vn 0.228919 -0.955731 0.057608
v -2.499674 -9.652114 118.562752
vn 0.334837 -0.498293 -0.699325
v -1.244727 -10.282244 121.039429
vn 0.761780 -0.485783 -0.275296
v 0.764298 -5.465202 122.973282
vn 0.835376 -0.511763 0.030943
v -1.713101 -10.584984 125.092255
vn 0.801004 -0.552647 -0.015846
v -4.549185 -8.515607 117.862602
vn 0.021040 -0.493124 -0.862045
v -3.864839 -5.348919 116.501747
vn 0.305635 -0.349283 -0.869639
v -1.285353 -5.264924 117.734131
vn 0.608864 -0.308260 -0.698143
v 0.981991 -5.294377 120.508011
vn 0.762592 -0.422668 -0.354276
v 2.809934 -3.559823 123.046906
vn 0.724627 -0.549041 0.055868
v 0.698451 -5.599554 125.102295
vn 0.862222 -0.421702 0.038660
v -3.182952 -2.182233 115.477074
vn 0.485014 -0.002903 -0.816930
v -0.536687 -2.182237 117.302834
vn 0.655793 0.000544 -0.687645
v 2.393993 -2.182240 120.307648
vn 0.743051 0.001102 -0.462942
v 3.953190 -2.182242 123.073318
vn 0.667041 -0.000001 0.086847
v 1.914010 -2.182239 125.295670
vn 0.789972 -0.002087 0.341785
v -1.285345 0.900452 117.734131
vn 0.613714 0.307578 -0.695696
v 0.972296 0.916595 120.507950
vn 0.762726 0.424044 -0.355587
v 2.809937 -0.804659 123.046906
vn 0.724859 0.548418 0.049710
v 0.698461 1.313401 125.102280
vn 0.870308 0.414933 0.047670
v 2.138372 -2.182239 128.941864
vn 0.942608 -0.001325 -0.116318
v -3.864830 1.112002 116.501747
vn 0.334033 0.344910 -0.864821
v -2.499654 5.251204 118.562752
vn 0.354573 0.506605 -0.691421
v -1.244704 5.881330 121.039429
vn 0.761751 0.486830 -0.275963
v 0.764307 1.100727 122.973282
vn 0.823883 0.528601 -0.001470
v -4.549166 4.406238 117.862595
vn 0.075306 0.514780 -0.841686
v -6.055916 7.543827 120.369263
vn 0.076939 0.800240 -0.553620
v -3.063196 7.310437 120.784561
vn 0.400626 0.785680 -0.350195
v -1.532305 6.537102 122.980911
vn 0.720727 0.632042 -0.004616
v -1.713078 6.274292 125.092255
vn 0.770423 0.591125 -0.025527
v 1.286355 1.088172 130.100754
vn 0.912746 0.363432 -0.158942
v -4.974595 8.636281 123.131134
vn 0.237785 0.919123 -0.157338
v -4.193067 8.381159 125.471542
vn 0.431132 0.863936 -0.026976
v -3.920228 9.019404 130.807968
vn 0.371180 0.883166 -0.113140
v -1.234230 6.669160 130.511017
vn 0.751632 0.600178 -0.182624
v -6.936446 8.761903 123.314011
vn 0.040931 0.961231 -0.221189
v -7.210899 8.935565 125.678970
vn 0.135365 0.985484 -0.061376
v -7.141915 9.478596 131.171356
vn 0.130680 0.987361 -0.089097
v -5.562433 9.583347 135.118042
vn 0.228922 0.955730 0.057608
v -2.124873 8.642262 134.566422
vn 0.506438 0.799468 0.026310
v 0.345589 5.869890 134.007721
vn 0.860611 0.446368 -0.081757
v 3.030348 -2.182240 133.329880
vn 0.936653 -0.000001 -0.100565
v 1.286345 -5.452648 130.100754
vn 0.912563 -0.363326 -0.161493
v -4.835013 8.247990 138.721146
vn 0.225361 0.941241 0.236325
v -1.778413 7.817551 138.415543
vn 0.446691 0.819711 0.135424
v 0.311088 5.555830 138.102859
vn 0.814133 0.542544 0.055023
v 2.752304 -2.182239 137.645035
vn 0.951075 -0.000001 0.046040
v 0.345566 -10.234364 134.007721
vn 0.860610 -0.446371 -0.081757
v -1.234255 -11.033629 130.511017
vn 0.751317 -0.600142 -0.184914
v -2.124904 -13.006729 134.566422
vn 0.506436 -0.799469 0.026310
v -4.835042 -12.612449 138.721146
vn 0.225359 -0.941241 0.236326
v 0.311067 -9.920301 138.102859
vn 0.814132 -0.542546 0.055023
v -1.778440 -12.182018 138.415543
vn 0.446689 -0.819712 0.135424
vt 0.027883 0.459484 0.000000
vt 0.035770 0.367495 0.000000
vt 0.103074 0.368086 0.000000
vt 0.088292 0.260669 0.000000
vt 0.174302 0.301336 0.000000
vt 0.229211 0.381493 0.000000
vt 0.126775 0.457120 0.000000
vt 0.110042 0.653763 0.000000
vt 0.013973 0.658763 0.000000
vt 0.044058 0.796198 0.000000
vt 0.251696 0.215159 0.000000
vt 0.243120 0.307070 0.000000
vt 0.391935 0.388295 0.000000
vt 0.226908 0.457809 0.000000
vt 0.231607 0.148097 0.000000
vt 0.367656 0.115309 0.000000
vt 0.390528 0.171434 0.000000
vt 0.405919 0.307364 0.000000
vt 0.463468 0.400903 0.000000
vt 0.392843 0.473590 0.000000
vt 0.500853 0.086349 0.000000
vt 0.501068 0.167276 0.000000
vt 0.501128 0.305314 0.000000
vt 0.500520 0.396773 0.000000
vt 0.501148 0.487477 0.000000
vt 0.612114 0.171453 0.000000
vt 0.594154 0.306352 0.000000
vt 0.538384 0.401094 0.000000
vt 0.609405 0.473715 0.000000
vt 0.501475 0.617050 0.000000
vt 0.634691 0.115470 0.000000
vt 0.750357 0.214852 0.000000
vt 0.759076 0.307948 0.000000
vt 0.610690 0.389274 0.000000
vt 0.771297 0.148470 0.000000
vt 0.913952 0.261303 0.000000
vt 0.828261 0.301056 0.000000
vt 0.771979 0.384711 0.000000
vt 0.775346 0.459063 0.000000
vt 0.608273 0.635595 0.000000
vt 0.899271 0.368235 0.000000
vt 0.875754 0.457425 0.000000
vt 0.892375 0.654042 0.000000
vt 0.787600 0.655535 0.000000
vt 0.966662 0.368208 0.000000
vt 0.974392 0.458912 0.000000
vt 0.988616 0.658150 0.000000
vt 0.957925 0.796607 0.000000
vt 0.852675 0.789319 0.000000
vt 0.750348 0.775163 0.000000
vt 0.501332 0.766351 0.000000
vt 0.394684 0.635280 0.000000
vt 0.930227 0.919752 0.000000
vt 0.838579 0.912769 0.000000
vt 0.752304 0.906068 0.000000
vt 0.500699 0.911441 0.000000
vt 0.252363 0.775429 0.000000
vt 0.214653 0.654925 0.000000
vt 0.150013 0.789582 0.000000
vt 0.072099 0.919616 0.000000
vt 0.250317 0.906115 0.000000
vt 0.163283 0.912389 0.000000
usemtl Material_0
f 1/1/1 2/2/2 3/3/3
f 3/3/3 2/2/2 4/4/4
f 4/4/4 5/5/5 3/3/3
f 6/6/6 3/3/3 5/5/5
f 7/7/7 3/3/3 6/6/6
f 1/1/1 3/3/3 7/7/7
f 1/1/1 7/7/7 8/8/8
f 8/8/8 9/9/9 1/1/1
f 10/10/10 9/9/9 8/8/8
f 11/11/11 5/5/5 4/4/4
f 11/11/11 12/12/12 5/5/5
f 6/6/6 5/5/5 12/12/12
f 13/13/13 6/6/6 12/12/12
f 14/14/14 6/6/6 13/13/13
f 6/6/6 14/14/14 7/7/7
f 8/8/8 7/7/7 14/14/14
f 4/4/4 15/15/15 11/11/11
f 11/11/11 15/15/15 16/16/16
f 16/16/16 17/17/17 11/11/11
f 12/12/12 11/11/11 17/17/17
f 17/17/17 18/18/18 12/12/12
f 12/12/12 18/18/18 13/13/13
f 13/13/13 18/18/18 19/19/19
f 20/20/20 13/13/13 19/19/19
f 13/13/13 20/20/20 14/14/14
f 17/17/17 16/16/16 21/21/21
f 21/21/21 22/22/22 17/17/17
f 18/18/18 17/17/17 22/22/22
f 22/22/22 23/23/23 18/18/18
f 19/19/19 18/18/18 23/23/23
f 23/23/23 24/24/24 19/19/19
f 24/24/24 25/25/25 19/19/19
f 19/19/19 25/25/25 20/20/20
f 26/26/26 22/22/22 21/21/21
f 27/27/27 22/22/22 26/26/26
f 22/22/22 27/27/27 23/23/23
f 23/23/23 27/27/27 28/28/28
f 28/28/28 24/24/24 23/23/23
f 25/25/25 24/24/24 28/28/28
f 29/29/29 25/25/25 28/28/28
f 30/30/30 25/25/25 29/29/29
f 20/20/20 25/25/25 30/30/30
f 21/21/21 31/31/31 26/26/26
f 32/32/32 26/26/26 31/31/31
f 26/26/26 32/32/32 33/33/33
f 33/33/33 27/27/27 26/26/26
f 34/34/34 27/27/27 33/33/33
f 34/34/34 28/28/28 27/27/27
f 28/28/28 34/34/34 29/29/29
f 31/31/31 35/35/35 32/32/32
f 32/32/32 35/35/35 36/36/36
f 36/36/36 37/37/37 32/32/32
f 32/32/32 37/37/37 33/33/33
f 38/38/38 33/33/33 37/37/37
f 33/33/33 38/38/38 34/34/34
f 29/29/29 34/34/34 38/38/38
f 38/38/38 39/39/39 29/29/29
f 40/40/40 29/29/29 39/39/39
f 29/29/29 40/40/40 30/30/30
f 41/41/41 37/37/37 36/36/36
f 38/38/38 37/37/37 41/41/41
f 38/38/38 41/41/41 42/42/42
f 42/42/42 39/39/39 38/38/38
f 39/39/39 42/42/42 43/43/43
f 43/43/43 44/44/44 39/39/39
f 39/39/39 44/44/44 40/40/40
f 36/36/36 45/45/45 41/41/41
f 46/46/46 41/41/41 45/45/45
f 46/46/46 42/42/42 41/41/41
f 43/43/43 42/42/42 46/46/46
f 46/46/46 47/47/47 43/43/43
f 43/43/43 47/47/47 48/48/48
f 48/48/48 49/49/49 43/43/43
f 44/44/44 43/43/43 49/49/49
f 49/49/49 50/50/50 44/44/44
f 40/40/40 44/44/44 50/50/50
f 50/50/50 51/51/51 40/40/40
f 40/40/40 51/51/51 30/30/30
f 52/52/52 30/30/30 51/51/51
f 30/30/30 52/52/52 20/20/20
f 14/14/14 20/20/20 52/52/52
f 49/49/49 48/48/48 53/53/53
f 53/53/53 54/54/54 49/49/49
f 49/49/49 54/54/54 55/55/55
f 55/55/55 50/50/50 49/49/49
f 50/50/50 55/55/55 56/56/56
f 56/56/56 51/51/51 50/50/50
f 57/57/57 51/51/51 56/56/56
f 52/52/52 51/51/51 57/57/57
f 57/57/57 58/58/58 52/52/52
f 52/52/52 58/58/58 14/14/14
f 14/14/14 58/58/58 8/8/8
f 59/59/59 8/8/8 58/58/58
f 8/8/8 59/59/59 10/10/10
f 60/60/60 10/10/10 59/59/59
f 56/56/56 61/61/61 57/57/57
f 59/59/59 57/57/57 61/61/61
f 58/58/58 57/57/57 59/59/59
f 61/61/61 62/62/62 59/59/59
f 59/59/59 62/62/62 60/60/60
