mtllib vr_pelvis_001.mtl

g vr_pelvis_001
v -1.544529 10.561422 74.643295
vn 0.192356 0.888214 0.055084
v -7.455466 9.828609 73.277328
vn -0.115830 0.992773 -0.031370
v -7.561257 9.946503 77.398895
vn -0.070408 0.971489 0.155769
v -1.338932 10.066565 78.126526
vn 0.346155 0.808473 0.178072
v 2.954929 5.813464 73.958580
vn 0.860410 0.341253 -0.022987
v 3.041492 5.125452 77.789886
vn 0.824432 0.460784 -0.038666
v 3.341024 1.588382 76.584564
vn 0.962554 0.095451 -0.214082
v 1.853239 -0.527988 71.110893
vn 0.648296 0.202426 -0.516354
v -6.670712 8.416086 81.556595
vn -0.056438 0.931110 0.360303
v -0.377644 8.700907 81.749420
vn 0.458819 0.773150 0.114719
v 4.044053 4.495710 80.947998
vn 0.893038 0.278597 -0.186690
v 3.768421 -2.184080 76.146317
vn 0.934996 -0.000040 -0.221337
v 2.829238 -2.184078 71.285645
vn 0.588676 -0.000098 -0.554358
v -0.935313 -2.184072 70.007233
vn 0.166828 -0.000037 -0.950485
v -7.911251 -0.371766 69.526543
vn -0.062756 0.019890 -0.951062
v 4.547094 -2.184081 80.842377
vn 0.983627 -0.000001 -0.163099
v 4.044037 -8.863872 80.947998
vn 0.893037 -0.278600 -0.186690
v 3.341019 -5.956540 76.584564
vn 0.962552 -0.095456 -0.214087
v 1.853235 -3.838799 71.110909
vn 0.648257 -0.202559 -0.516333
v -7.911255 -3.994992 69.526550
vn -0.062738 -0.020242 -0.950952
v -6.986620 -2.184064 69.854530
vn -0.134853 0.000056 -0.955684
v -12.621555 -0.200949 70.588249
vn -0.584952 -0.111359 -0.565682
v -11.903906 6.486002 71.638123
vn -0.695135 0.326651 -0.260332
v 3.041476 -9.493609 77.789894
vn 0.824430 -0.460786 -0.038666
v 2.954908 -10.181616 73.958641
vn 0.860383 -0.341291 -0.023046
v -0.377671 -13.069057 81.749435
vn 0.458816 -0.773151 0.114719
v -1.338964 -14.434711 78.126534
vn 0.346142 -0.808505 0.177967
v -1.544565 -14.928207 74.643295
vn 0.192358 -0.888277 0.054767
v -7.561287 -14.314633 77.398903
vn -0.070371 -0.971507 0.155533
v -7.455497 -14.195379 73.277328
vn -0.115758 -0.992772 -0.031696
v -6.670740 -12.784219 81.556595
vn -0.056441 -0.931110 0.360303
v -13.346073 -0.186561 75.248734
vn -0.973599 0.078474 0.060602
v -13.123194 -2.184057 75.195747
vn -0.959264 0.000000 -0.097073
v -12.683956 -2.184058 79.255661
vn -0.943933 0.000001 0.261396
v -12.664030 -0.942899 79.364655
vn -0.882518 0.102656 0.402567
v -11.211139 4.554082 79.871628
vn -0.783831 0.386340 0.395561
v -11.934995 6.125477 75.893639
vn -0.774151 0.516294 0.131024
v -7.455466 9.828609 73.277328
vn -0.632004 0.772909 0.011888
v -11.974560 -2.184058 70.953293
vn -0.558009 -0.000003 -0.596546
v -12.621556 -4.167161 70.588272
vn -0.584951 0.111244 -0.565630
v -13.346075 -4.181551 75.248741
vn -0.973613 -0.078364 0.060823
v -12.664032 -3.425215 79.364662
vn -0.882518 -0.102653 0.402568
v -11.251802 -2.184060 81.646790
vn -0.830493 0.000002 0.545265
v -11.909340 -10.859864 71.651215
vn -0.694876 -0.326985 -0.259361
v -11.935013 -10.493594 75.893639
vn -0.773950 -0.516386 0.131705
v -11.211155 -8.922200 79.871635
vn -0.783832 -0.386338 0.395562
v -10.027992 -7.823514 81.918381
vn -0.749006 -0.260499 0.584073
v -7.455497 -14.195379 73.277328
vn -0.631491 -0.773220 0.012812
v -7.561287 -14.314633 77.398903
vn -0.669008 -0.673957 0.237322
v -6.670740 -12.784219 81.556595
vn -0.653618 -0.551439 0.497359
v -10.027979 3.455392 81.918381
vn -0.749006 0.260502 0.584072
v -6.670712 8.416086 81.556595
vn -0.653617 0.551441 0.497359
v -7.561257 9.946503 77.398895
vn -0.669024 0.673947 0.237405
vt 0.821275 0.724631 0.000000
vt 0.955520 0.711193 0.000000
vt 0.947193 0.806186 0.000000
vt 0.809781 0.803661 0.000000
vt 0.674994 0.714138 0.000000
vt 0.663813 0.798081 0.000000
vt 0.584267 0.770630 0.000000
vt 0.529151 0.652739 0.000000
vt 0.915359 0.900984 0.000000
vt 0.776970 0.884468 0.000000
vt 0.643996 0.870263 0.000000
vt 0.500367 0.764128 0.000000
vt 0.502314 0.660251 0.000000
vt 0.502314 0.621596 0.000000
vt 0.547722 0.568038 0.000000
vt 0.499768 0.866722 0.000000
vt 0.356823 0.870450 0.000000
vt 0.416462 0.770687 0.000000
vt 0.469383 0.652540 0.000000
vt 0.457660 0.569831 0.000000
vt 0.502314 0.589142 0.000000
vt 0.548663 0.451394 0.000000
vt 0.715428 0.438003 0.000000
vt 0.336716 0.798562 0.000000
vt 0.324272 0.716069 0.000000
vt 0.224490 0.886438 0.000000
vt 0.190654 0.806519 0.000000
vt 0.178376 0.728141 0.000000
vt 0.053468 0.811493 0.000000
vt 0.043250 0.715429 0.000000
vt 0.086727 0.905604 0.000000
vt 0.547714 0.339785 0.000000
vt 0.502314 0.341646 0.000000
vt 0.502314 0.238387 0.000000
vt 0.531280 0.236497 0.000000
vt 0.671829 0.224325 0.000000
vt 0.705180 0.326337 0.000000
vt 0.853311 0.382163 0.000000
vt 0.502314 0.456697 0.000000
vt 0.455753 0.451855 0.000000
vt 0.456385 0.339554 0.000000
vt 0.473429 0.236375 0.000000
vt 0.502324 0.167685 0.000000
vt 0.288726 0.437707 0.000000
vt 0.299327 0.326280 0.000000
vt 0.332809 0.224276 0.000000
vt 0.349788 0.161871 0.000000
vt 0.150894 0.381215 0.000000
vt 0.163283 0.270000 0.000000
vt 0.194532 0.156234 0.000000
vt 0.654905 0.161918 0.000000
vt 0.810229 0.156495 0.000000
vt 0.841424 0.270394 0.000000
usemtl Material_0
f 1/1/1 2/2/2 3/3/3
f 3/3/3 4/4/4 1/1/1
f 5/5/5 1/1/1 4/4/4
f 4/4/4 6/6/6 5/5/5
f 7/7/7 5/5/5 6/6/6
f 8/8/8 5/5/5 7/7/7
f 4/4/4 3/3/3 9/9/9
f 9/9/9 10/10/10 4/4/4
f 6/6/6 4/4/4 10/10/10
f 10/10/10 11/11/11 6/6/6
f 11/11/11 7/7/7 6/6/6
f 11/11/11 12/12/12 7/7/7
f 7/7/7 12/12/12 8/8/8
f 13/13/13 8/8/8 12/12/12
f 8/8/8 13/13/13 14/14/14
f 15/15/15 8/8/8 14/14/14
f 11/11/11 16/16/16 12/12/12
f 17/17/17 12/12/12 16/16/16
f 17/17/17 18/18/18 12/12/12
f 18/18/18 19/19/19 12/12/12
f 13/13/13 12/12/12 19/19/19
f 19/19/19 14/14/14 13/13/13
f 20/20/20 14/14/14 19/19/19
f 14/14/14 20/20/20 21/21/21
f 14/14/14 21/21/21 15/15/15
f 22/22/22 15/15/15 21/21/21
f 23/23/23 15/15/15 22/22/22
f 17/17/17 24/24/24 18/18/18
f 18/18/18 24/24/24 25/25/25
f 19/19/19 18/18/18 25/25/25
f 24/24/24 17/17/17 26/26/26
f 26/26/26 27/27/27 24/24/24
f 25/25/25 24/24/24 27/27/27
f 27/27/27 28/28/28 25/25/25
f 28/28/28 27/27/27 29/29/29
f 29/29/29 30/30/30 28/28/28
f 27/27/27 26/26/26 31/31/31
f 31/31/31 29/29/29 27/27/27
f 23/23/23 22/22/22 32/32/32
f 33/33/33 32/32/32 22/22/22
f 32/32/32 33/33/33 34/34/34
f 34/34/34 35/35/35 32/32/32
f 32/32/32 35/35/35 36/36/36
f 36/36/36 37/37/37 32/32/32
f 32/32/32 37/37/37 23/23/23
f 38/38/38 23/23/23 37/37/37
f 22/22/22 39/39/39 33/33/33
f 33/33/33 39/39/39 40/40/40
f 40/40/40 41/41/41 33/33/33
f 34/34/34 33/33/33 41/41/41
f 41/41/41 42/42/42 34/34/34
f 42/42/42 43/43/43 34/34/34
f 35/35/35 34/34/34 43/43/43
f 21/21/21 39/39/39 22/22/22
f 40/40/40 39/39/39 21/21/21
f 21/21/21 20/20/20 40/40/40
f 44/44/44 40/40/40 20/20/20
f 41/41/41 40/40/40 44/44/44
f 44/44/44 45/45/45 41/41/41
f 41/41/41 45/45/45 46/46/46
f 46/46/46 42/42/42 41/41/41
f 42/42/42 46/46/46 47/47/47
f 47/47/47 43/43/43 42/42/42
f 45/45/45 44/44/44 48/48/48
f 48/48/48 49/49/49 45/45/45
f 46/46/46 45/45/45 49/49/49
f 49/49/49 50/50/50 46/46/46
f 50/50/50 47/47/47 46/46/46
f 35/35/35 43/43/43 51/51/51
f 51/51/51 36/36/36 35/35/35
f 52/52/52 36/36/36 51/51/51
f 36/36/36 52/52/52 53/53/53
f 53/53/53 37/37/37 36/36/36
f 37/37/37 53/53/53 38/38/38
