mtllib vr_foot_001_1.mtl

g vr_foot_001_1
v -3.493166 10.843365 20.783730
vn 0.182750 0.857237 -0.104431
v -9.106278 10.222727 20.865498
vn -0.110704 0.990552 -0.080940
v -9.113686 11.189903 32.712067
vn -0.121786 0.988737 -0.086109
v -2.322158 12.097452 32.638741
vn 0.483591 0.725132 -0.124476
v -0.801994 7.267928 20.828171
vn 0.807548 0.029635 -0.165446
v 1.647433 6.823536 32.704300
vn 0.807548 0.029635 -0.165446
v -2.212525 1.125005 32.023224
vn 0.408631 -0.758261 -0.190451
v -3.418840 3.404625 20.366440
vn 0.408882 -0.758234 -0.190595
v -8.992523 3.397391 20.563999
vn -0.006013 -0.981555 -0.191086
v -8.945887 1.122252 32.267372
vn -0.006517 -0.981608 -0.190799
v -9.106278 10.222727 20.865498
vn -0.963377 0.166045 -0.093466
v -10.942616 6.145899 32.550484
vn -0.951743 -0.011051 -0.084745
v -9.113686 11.189903 32.712067
vn -0.939434 0.341546 -0.028472
v -8.992523 3.397391 20.563999
vn -0.957898 -0.187350 -0.112882
v -8.945887 1.122252 32.267372
vn -0.928475 -0.365244 -0.067304
v -9.113718 -15.556684 32.712059
vn -0.121788 -0.988736 -0.086110
v -9.106308 -14.589486 20.865490
vn -0.110707 -0.990552 -0.080942
v -3.493194 -15.210141 20.783718
vn 0.182748 -0.857237 -0.104432
v -2.322192 -16.464249 32.638729
vn 0.483589 -0.725133 -0.124477
v -0.802011 -11.634715 20.828167
vn 0.807547 -0.029637 -0.165446
v 1.647415 -11.190350 32.704300
vn 0.807547 -0.029637 -0.165446
v -2.212526 -5.491805 32.023232
vn 0.408633 0.758260 -0.190450
v -3.418846 -7.771403 20.366444
vn 0.408885 0.758233 -0.190594
v -8.992531 -7.764151 20.564003
vn -0.006010 0.981555 -0.191085
v -8.945889 -5.489032 32.267380
vn -0.006514 0.981608 -0.190797
v -9.106308 -14.589486 20.865490
vn -0.963377 -0.166042 -0.093466
v -9.113718 -15.556684 32.712059
vn -0.939435 -0.341543 -0.028472
v -10.942633 -10.512674 32.550480
vn -0.951743 0.011054 -0.084745
v -8.992531 -7.764151 20.564003
vn -0.957897 0.187353 -0.112882
v -8.945889 -5.489032 32.267380
vn -0.928474 0.365247 -0.067303
vt 0.834895 0.162666 0.000000
vt 0.834895 0.056701 0.000000
vt 0.979953 0.043660 0.000000
vt 0.979953 0.153505 0.000000
vt 0.834895 0.226953 0.000000
vt 0.979953 0.230278 0.000000
vt 0.979953 0.303945 0.000000
vt 0.834895 0.299355 0.000000
vt 0.834895 0.380756 0.000000
vt 0.979953 0.386789 0.000000
vt 0.834979 0.296310 0.000000
vt 0.979835 0.241949 0.000000
vt 0.979835 0.299212 0.000000
vt 0.834895 0.185905 0.000000
vt 0.979835 0.176439 0.000000
vt 0.979953 0.043660 0.000000
vt 0.834895 0.056701 0.000000
vt 0.834895 0.162666 0.000000
vt 0.979953 0.153505 0.000000
vt 0.834895 0.226953 0.000000
vt 0.979953 0.230278 0.000000
vt 0.979953 0.303945 0.000000
vt 0.834895 0.299355 0.000000
vt 0.834895 0.380756 0.000000
vt 0.979953 0.386789 0.000000
vt 0.834979 0.296310 0.000000
vt 0.979835 0.299212 0.000000
vt 0.979835 0.241949 0.000000
vt 0.834895 0.185905 0.000000
vt 0.979835 0.176439 0.000000
usemtl Material_0
f 1/1/1 2/2/2 3/3/3
f 3/3/3 4/4/4 1/1/1
f 5/5/5 1/1/1 4/4/4
f 4/4/4 6/6/6 5/5/5
f 5/5/5 6/6/6 7/7/7
f 7/7/7 8/8/8 5/5/5
f 9/9/9 8/8/8 7/7/7
f 7/7/7 10/10/10 9/9/9
f 11/11/11 12/12/12 13/13/13
f 14/14/14 12/12/12 11/11/11
f 14/14/14 15/15/15 12/12/12
f 16/16/16 17/17/17 18/18/18
f 18/18/18 19/19/19 16/16/16
f 19/19/19 18/18/18 20/20/20
f 20/20/20 21/21/21 19/19/19
f 22/22/22 21/21/21 20/20/20
f 20/20/20 23/23/23 22/22/22
f 22/22/22 23/23/23 24/24/24
f 24/24/24 25/25/25 22/22/22
f 26/26/26 27/27/27 28/28/28
f 29/29/29 26/26/26 28/28/28
f 29/29/29 28/28/28 30/30/30
