mtllib vr_foot_000.mtl

g vr_foot_000
v -10.779452 12.968714 -2.226601
vn -0.508830 0.714551 -0.109454
v -12.943815 8.729700 -2.295212
vn -0.884656 0.453445 -0.108494
v -13.571358 8.455791 1.676956
vn -0.887139 0.445596 -0.119345
v -11.361189 12.990623 1.822044
vn -0.521839 0.712713 -0.078838
v 2.596572 15.173028 2.013008
vn -0.138257 0.982408 -0.105678
v 2.088897 14.386063 -2.160614
vn -0.138136 0.975689 -0.167170
v 11.646273 16.029812 -2.284401
vn 0.144428 0.940495 -0.075158
v 11.512774 16.277605 2.015701
vn 0.156031 0.945152 -0.049620
v 18.367805 12.965309 2.019035
vn 0.609738 0.692926 -0.013886
v 18.597713 12.682177 -1.979210
vn 0.782802 0.491096 0.018323
v 20.118240 6.943485 2.105240
vn 0.962895 0.022996 0.050324
v 20.339333 7.018612 -1.893127
vn 0.962054 0.028397 0.053731
v 19.055340 1.762251 -1.942413
vn 0.618633 -0.598952 -0.006613
v 18.802380 1.715651 2.052307
vn 0.639445 -0.597310 0.033524
v 12.362278 -0.391551 2.028084
vn 0.121414 -0.961668 -0.100237
v 12.608036 0.300763 -2.259682
vn -0.046942 -0.963280 -0.177531
v 1.967227 1.426775 2.174782
vn -0.163504 -0.969102 -0.162616
v 1.741761 2.472640 -2.103531
vn -0.151237 -0.961103 -0.226979
v -10.916314 3.909153 -2.180244
vn -0.396795 -0.778197 -0.151403
v -11.902101 3.951918 2.329971
vn -0.665942 -0.577213 -0.131105
v -12.943815 8.729700 -2.295212
vn -0.909230 -0.374155 -0.181717
v -13.571358 8.455791 1.676956
vn -0.915782 -0.364030 -0.169782
v -12.943815 8.729700 -2.295212
vn 0.005980 -0.004365 -0.999854
v -10.779452 12.968714 -2.226601
vn 0.003544 0.014374 -0.999890
v 2.088897 14.386063 -2.160614
vn 0.000744 0.001610 -0.999911
v 1.741761 2.472640 -2.103531
vn -0.003164 -0.008597 -0.999868
v -10.916314 3.909153 -2.180244
vn 0.003521 -0.022362 -0.999744
v 11.646273 16.029812 -2.284401
vn 0.005786 -0.001924 -0.999605
v 12.608036 0.300763 -2.259682
vn 0.031778 -0.001155 -0.999128
v 18.597713 12.682177 -1.979210
vn 0.046097 0.000329 -0.998935
v 20.339333 7.018612 -1.893127
vn 0.048782 -0.001642 -0.998807
v 19.055340 1.762251 -1.942413
vn 0.049782 -0.002796 -0.998756
v -13.571358 8.455791 1.676956
vn -0.916394 0.049719 0.133504
v -11.902101 3.951918 2.329971
vn -0.938548 -0.337118 0.074028
v -11.463019 3.725088 6.863785
vn -0.918286 -0.305743 0.196881
v -12.797335 7.865963 6.822441
vn -0.877788 0.045047 0.319747
v -11.113087 11.484495 6.877495
vn -0.516008 0.694505 0.219058
v -11.361189 12.990623 1.822044
vn -0.519795 0.686230 0.229952
v 2.596572 15.173028 2.013008
vn -0.140415 0.947147 0.287978
v 3.422406 13.795604 6.943481
vn 0.199462 0.668378 0.472202
v 11.512774 16.277605 2.015701
vn 0.226038 0.462395 0.726541
v -9.204170 4.541628 12.217598
vn -0.899739 -0.274732 0.276891
v -10.133967 7.717803 12.311485
vn -0.920197 0.021607 0.202510
v -9.118771 10.353344 12.355789
vn -0.706938 0.580210 0.237656
v -5.831145 12.977729 11.622429
vn -0.093948 0.835078 0.325475
v -8.849888 3.532679 20.568405
vn -0.974601 -0.151954 0.074546
v -8.959401 10.103712 20.858665
vn -0.632811 0.543223 0.101785
v -6.603969 11.749975 14.143456
vn -0.132430 0.884431 0.189214
v -2.969055 10.668789 14.186897
vn 0.560173 0.657755 0.287942
v -1.628993 11.334693 12.329834
vn 0.448734 0.565591 0.598917
v -0.172306 7.542366 12.650902
vn 0.657093 -0.040812 0.593724
v 3.834597 7.051541 9.710976
vn 0.484972 0.009684 0.779729
v -3.555420 10.701223 20.779945
vn 0.325602 0.844218 0.096837
v -0.964518 7.259000 20.822731
vn 0.837313 0.010960 0.002320
v -1.121449 7.530663 14.875679
vn 0.816445 -0.006083 0.153073
v -2.988407 4.426323 13.918617
vn 0.608327 -0.653631 0.239539
v -1.962979 3.841147 12.172432
vn 0.481281 -0.591288 0.584123
v 2.593143 1.300738 6.921776
vn 0.168589 -0.697807 0.387904
v 12.662338 7.031187 4.362282
vn 0.305972 -0.073393 0.895377
v 18.367805 12.965309 2.019035
vn 0.206940 0.178169 0.955069
v 20.118240 6.943485 2.105240
vn 0.288635 0.007818 0.953173
v -3.483868 3.539639 20.378204
vn 0.417644 -0.819852 -0.009947
v -6.058300 3.023277 13.657280
vn -0.030421 -0.890161 0.122563
v -5.466781 1.994699 11.472191
vn -0.036910 -0.831413 0.329262
v -8.849888 3.532679 20.568405
vn -0.196911 -0.954942 -0.009151
v -9.204170 4.541628 12.217598
vn -0.465008 -0.848375 0.161394
v -11.463019 3.725088 6.863785
vn -0.274491 -0.923105 0.049253
v -11.902101 3.951918 2.329971
vn -0.174446 -0.984380 -0.017669
v 1.967227 1.426775 2.174782
vn -0.175750 -0.984424 -0.002964
v 12.362278 -0.391551 2.028084
vn 0.103578 -0.525963 0.606586
v 18.802380 1.715651 2.052307
vn 0.191579 -0.192120 0.951319
v -13.605040 -12.821648 1.703812
vn -0.886735 -0.444073 -0.127490
v -12.943850 -13.096337 -2.295227
vn -0.883960 -0.453193 -0.115022
v -10.779497 -17.335358 -2.226616
vn -0.508421 -0.713803 -0.114191
v -11.408279 -17.362305 1.853401
vn -0.521367 -0.711343 -0.085047
v 2.596519 -19.539707 2.013000
vn -0.138051 -0.982421 -0.106342
v 2.088849 -18.752743 -2.160622
vn -0.138139 -0.975689 -0.167170
v 11.646223 -20.396517 -2.284401
vn 0.144426 -0.940495 -0.075158
v 11.512726 -20.644308 2.015709
vn 0.156029 -0.945152 -0.049620
v 18.367762 -17.332033 2.019035
vn 0.609736 -0.692928 -0.013886
v 18.597673 -17.048899 -1.979202
vn 0.782801 -0.491098 0.018323
v 20.118214 -11.310213 2.105240
vn 0.962895 -0.022999 0.050324
v 20.339306 -11.385344 -1.893127
vn 0.962054 -0.028400 0.053731
v 19.055328 -6.128979 -1.942413
vn 0.618759 0.598887 -0.006752
v 18.802368 -6.082378 2.052307
vn 0.639693 0.597228 0.033541
v 12.369778 -3.973942 2.029953
vn 0.121596 0.961592 -0.100390
v 12.608028 -4.667473 -2.259682
vn -0.046924 0.963258 -0.177696
v 1.967213 -5.793454 2.174774
vn -0.163502 0.969107 -0.162561
v 1.741745 -6.839318 -2.103539
vn -0.151234 0.961104 -0.226979
v -10.916334 -8.275796 -2.180252
vn -0.396625 0.778143 -0.152304
v -11.920752 -8.322240 2.340698
vn -0.664988 0.578107 -0.134154
v -12.943850 -13.096337 -2.295227
vn -0.907781 0.375498 -0.186352
v -13.605040 -12.821648 1.703812
vn -0.913427 0.366873 -0.176224
v -12.943850 -13.096337 -2.295227
vn 0.005980 0.004366 -0.999854
v -10.916334 -8.275796 -2.180252
vn 0.003521 0.022364 -0.999744
v 1.741745 -6.839318 -2.103539
vn -0.003164 0.008597 -0.999868
v 2.088849 -18.752743 -2.160622
vn 0.000744 -0.001610 -0.999911
v -10.779497 -17.335358 -2.226616
vn 0.003545 -0.014374 -0.999890
v 11.646223 -20.396517 -2.284401
vn 0.005787 0.001924 -0.999605
v 12.608028 -4.667473 -2.259682
vn 0.031778 0.001154 -0.999128
v 18.597673 -17.048899 -1.979202
vn 0.046097 -0.000329 -0.998935
v 20.339306 -11.385344 -1.893127
vn 0.048782 0.001641 -0.998807
v 19.055328 -6.128979 -1.942413
vn 0.049782 0.002796 -0.998756
v 3.832203 -11.428609 9.702324
vn 0.486649 -0.010142 0.779180
v 3.422360 -18.162285 6.943466
vn 0.398565 -0.368377 0.839907
v 11.512726 -20.644308 2.015709
vn 0.448691 -0.319662 0.831587
v 12.662312 -11.397896 4.362282
vn 0.305835 0.073025 0.895664
v 2.593128 -5.667418 6.921761
vn 0.422329 0.377285 0.816764
v 12.369778 -3.973942 2.029953
vn 0.387548 0.290161 0.874993
v 11.512726 -20.644308 2.015709
vn 0.003281 -0.604846 0.621698
v 18.367762 -17.332033 2.019035
vn 0.206940 -0.178169 0.955069
v 20.118214 -11.310213 2.105240
vn 0.288635 -0.007819 0.953173
v 18.802368 -6.082378 2.052307
vn 0.191744 0.191946 0.951357
v 12.369778 -3.973942 2.029953
vn -0.038361 0.643403 0.472572
v 2.593128 -5.667418 6.921761
vn 0.095833 0.791003 0.262652
v 1.967213 -5.793454 2.174774
vn -0.175754 0.984424 -0.002963
v -11.920752 -8.322240 2.340698
vn -0.174263 0.984388 -0.018367
v -11.466974 -8.086715 6.871887
vn -0.269304 0.927343 0.047438
v -5.402566 -6.377324 11.406288
vn -0.026416 0.836282 0.335999
v -2.000213 -8.166902 12.242560
vn 0.470057 0.593241 0.588059
v -0.173620 -11.888732 12.672393
vn 0.657964 0.038636 0.594322
v 3.422360 -18.162285 6.943466
vn 0.167052 -0.717918 0.410776
v -9.154135 -8.852129 12.235481
vn -0.436998 0.854859 0.186869
v -5.624660 -7.311966 13.399918
vn 0.008112 0.884961 0.134497
v -2.941259 -8.804169 13.870773
vn 0.620949 0.646742 0.242395
v -1.093644 -11.919291 14.831939
vn 0.815705 0.000376 0.155199
v -2.972775 -15.040602 14.184547
vn 0.554364 -0.660635 0.288192
v -1.617350 -15.688607 12.333649
vn 0.449396 -0.565243 0.599407
v -8.849894 -7.899338 20.568405
vn -0.184175 0.959956 -0.004207
v -3.483873 -7.906313 20.378204
vn 0.442525 0.807339 -0.000925
v -0.964534 -11.625685 20.822731
vn 0.836560 -0.014359 0.005858
v -3.555448 -15.067900 20.779930
vn 0.315698 -0.847513 0.093501
v -6.685086 -16.019104 14.304741
vn -0.138539 -0.886449 0.189193
v -5.858683 -17.345238 11.642868
vn -0.095297 -0.833465 0.327573
v -11.140217 -15.846284 6.903381
vn -0.516401 -0.692672 0.220913
v 2.596519 -19.539707 2.013000
vn -0.139745 -0.947001 0.288802
v -8.959427 -14.470373 20.858658
vn -0.631407 -0.542561 0.100047
v -9.137520 -14.695992 12.394508
vn -0.707139 -0.576939 0.239441
v -12.813591 -12.223077 6.844627
vn -0.876897 -0.038834 0.321278
v -13.605040 -12.821648 1.703812
vn -0.916137 -0.046650 0.136424
v -11.408279 -17.362305 1.853401
vn -0.519406 -0.684422 0.233037
v -10.134490 -12.024588 12.372284
vn -0.919553 -0.011889 0.201325
v -9.154135 -8.852129 12.235481
vn -0.896132 0.286696 0.274782
v -11.466974 -8.086715 6.871887
vn -0.916403 0.308836 0.199840
v -11.920752 -8.322240 2.340698
vn -0.937304 0.340082 0.076190
v -8.849894 -7.899338 20.568405
vn -0.972392 0.159061 0.072347
vt 0.916754 0.015786 0.000000
vt 0.978021 0.015786 0.000000
vt 0.978021 0.105908 0.000000
vt 0.916754 0.105908 0.000000
vt 0.753563 0.105908 0.000000
vt 0.758637 0.015786 0.000000
vt 0.635982 0.015786 0.000000
vt 0.642039 0.105908 0.000000
vt 0.555513 0.105908 0.000000
vt 0.555513 0.015786 0.000000
vt 0.475834 0.105908 0.000000
vt 0.475971 0.015786 0.000000
vt 0.407397 0.015786 0.000000
vt 0.407397 0.105908 0.000000
vt 0.340091 0.105908 0.000000
vt 0.338051 0.015786 0.000000
vt 0.225312 0.105908 0.000000
vt 0.225312 0.015786 0.000000
vt 0.078240 0.015786 0.000000
vt 0.078240 0.105908 0.000000
vt 0.010829 0.015786 0.000000
vt 0.010829 0.105908 0.000000
vt 0.887170 0.181113 0.000000
vt 0.922796 0.195179 0.000000
vt 0.943449 0.303678 0.000000
vt 0.842249 0.306236 0.000000
vt 0.847990 0.199629 0.000000
vt 0.962892 0.382734 0.000000
vt 0.831724 0.400103 0.000000
vt 0.938955 0.442968 0.000000
vt 0.892547 0.460917 0.000000
vt 0.847765 0.453270 0.000000
vt 0.974720 0.707329 0.000000
vt 0.951073 0.877361 0.000000
vt 0.880838 0.900260 0.000000
vt 0.877733 0.799127 0.000000
vt 0.793000 0.710900 0.000000
vt 0.899618 0.618986 0.000000
vt 0.736821 0.456821 0.000000
vt 0.576104 0.527230 0.000000
vt 0.630853 0.358567 0.000000
vt 0.733429 0.928876 0.000000
vt 0.739836 0.856391 0.000000
vt 0.701081 0.801488 0.000000
vt 0.646048 0.686831 0.000000
vt 0.599902 0.955440 0.000000
vt 0.599120 0.878563 0.000000
vt 0.630633 0.751817 0.000000
vt 0.523684 0.702845 0.000000
vt 0.528825 0.659625 0.000000
vt 0.446876 0.659625 0.000000
vt 0.447737 0.525414 0.000000
vt 0.502967 0.820921 0.000000
vt 0.446876 0.785072 0.000000
vt 0.446876 0.699591 0.000000
vt 0.373632 0.699591 0.000000
vt 0.360638 0.659625 0.000000
vt 0.317906 0.517341 0.000000
vt 0.447144 0.360594 0.000000
vt 0.561856 0.264743 0.000000
vt 0.446876 0.247190 0.000000
vt 0.370118 0.819425 0.000000
vt 0.285911 0.750545 0.000000
vt 0.246897 0.702878 0.000000
vt 0.309422 0.875892 0.000000
vt 0.175757 0.791614 0.000000
vt 0.085790 0.688057 0.000000
vt 0.034421 0.620154 0.000000
vt 0.185173 0.486856 0.000000
vt 0.290147 0.363800 0.000000
vt 0.354133 0.264743 0.000000
vt 0.978021 0.105908 0.000000
vt 0.978021 0.015786 0.000000
vt 0.916754 0.015786 0.000000
vt 0.916754 0.105908 0.000000
vt 0.753563 0.105908 0.000000
vt 0.758637 0.015786 0.000000
vt 0.635982 0.015786 0.000000
vt 0.642039 0.105908 0.000000
vt 0.555513 0.105908 0.000000
vt 0.555513 0.015786 0.000000
vt 0.475834 0.105908 0.000000
vt 0.475971 0.015786 0.000000
vt 0.407397 0.015786 0.000000
vt 0.407397 0.105908 0.000000
vt 0.340091 0.105908 0.000000
vt 0.338051 0.015786 0.000000
vt 0.225312 0.105908 0.000000
vt 0.225312 0.015786 0.000000
vt 0.078240 0.015786 0.000000
vt 0.078240 0.105908 0.000000
vt 0.010829 0.015786 0.000000
vt 0.010829 0.105908 0.000000
vt 0.887170 0.181113 0.000000
vt 0.847990 0.199629 0.000000
vt 0.842249 0.306236 0.000000
vt 0.943449 0.303678 0.000000
vt 0.922796 0.195179 0.000000
vt 0.962892 0.382734 0.000000
vt 0.831724 0.400103 0.000000
vt 0.938955 0.442968 0.000000
vt 0.892547 0.460917 0.000000
vt 0.847765 0.453270 0.000000
vt 0.447737 0.525414 0.000000
vt 0.317906 0.517341 0.000000
vt 0.290147 0.363800 0.000000
vt 0.447144 0.360594 0.000000
vt 0.576104 0.527230 0.000000
vt 0.630853 0.358567 0.000000
vt 0.630853 0.358567 0.000000
vt 0.561856 0.264743 0.000000
vt 0.446876 0.247190 0.000000
vt 0.354133 0.264743 0.000000
vt 0.290147 0.363800 0.000000
vt 0.317906 0.517341 0.000000
vt 0.185173 0.486856 0.000000
vt 0.034421 0.620154 0.000000
vt 0.085790 0.688057 0.000000
vt 0.246897 0.702878 0.000000
vt 0.360638 0.659625 0.000000
vt 0.446876 0.659625 0.000000
vt 0.576104 0.527230 0.000000
vt 0.175757 0.791614 0.000000
vt 0.285911 0.750545 0.000000
vt 0.373632 0.699591 0.000000
vt 0.446876 0.699591 0.000000
vt 0.523684 0.702845 0.000000
vt 0.528825 0.659625 0.000000
vt 0.309422 0.875892 0.000000
vt 0.370118 0.819425 0.000000
vt 0.446876 0.785072 0.000000
vt 0.502967 0.820921 0.000000
vt 0.630633 0.751817 0.000000
vt 0.646048 0.686831 0.000000
vt 0.793000 0.710900 0.000000
vt 0.736821 0.456821 0.000000
vt 0.599120 0.878563 0.000000
vt 0.701081 0.801488 0.000000
vt 0.877733 0.799127 0.000000
vt 0.974720 0.707329 0.000000
vt 0.899618 0.618986 0.000000
vt 0.739836 0.856391 0.000000
vt 0.733429 0.928876 0.000000
vt 0.880838 0.900260 0.000000
vt 0.951073 0.877361 0.000000
vt 0.599902 0.955440 0.000000
usemtl Material_0
f 1/1/1 2/2/2 3/3/3
f 3/3/3 4/4/4 1/1/1
f 1/1/1 4/4/4 5/5/5
f 5/5/5 6/6/6 1/1/1
f 7/7/7 6/6/6 5/5/5
f 5/5/5 8/8/8 7/7/7
f 7/7/7 8/8/8 9/9/9
f 9/9/9 10/10/10 7/7/7
f 10/10/10 9/9/9 11/11/11
f 11/11/11 12/12/12 10/10/10
f 13/13/13 12/12/12 11/11/11
f 11/11/11 14/14/14 13/13/13
f 13/13/13 14/14/14 15/15/15
f 15/15/15 16/16/16 13/13/13
f 16/16/16 15/15/15 17/17/17
f 17/17/17 18/18/18 16/16/16
f 19/19/19 18/18/18 17/17/17
f 17/17/17 20/20/20 19/19/19
f 21/21/21 19/19/19 20/20/20
f 20/20/20 22/22/22 21/21/21
f 23/23/23 24/24/24 25/25/25
f 23/23/23 25/25/25 26/26/26
f 23/23/23 26/26/26 27/27/27
f 26/26/26 25/25/25 28/28/28
f 28/28/28 29/29/29 26/26/26
f 29/29/29 28/28/28 30/30/30
f 29/29/29 30/30/30 31/31/31
f 29/29/29 31/31/31 32/32/32
f 33/33/33 34/34/34 35/35/35
f 35/35/35 36/36/36 33/33/33
f 33/33/33 36/36/36 37/37/37
f 37/37/37 38/38/38 33/33/33
f 39/39/39 38/38/38 37/37/37
f 37/37/37 40/40/40 39/39/39
f 40/40/40 41/41/41 39/39/39
f 36/36/36 35/35/35 42/42/42
f 42/42/42 43/43/43 36/36/36
f 36/36/36 43/43/43 44/44/44
f 44/44/44 37/37/37 36/36/36
f 44/44/44 45/45/45 37/37/37
f 40/40/40 37/37/37 45/45/45
f 43/43/43 42/42/42 46/46/46
f 43/43/43 46/46/46 47/47/47
f 44/44/44 43/43/43 47/47/47
f 48/48/48 44/44/44 47/47/47
f 44/44/44 48/48/48 45/45/45
f 48/48/48 49/49/49 45/45/45
f 45/45/45 49/49/49 50/50/50
f 45/45/45 50/50/50 40/40/40
f 40/40/40 50/50/50 51/51/51
f 51/51/51 52/52/52 40/40/40
f 41/41/41 40/40/40 52/52/52
f 47/47/47 53/53/53 48/48/48
f 53/53/53 49/49/49 48/48/48
f 49/49/49 53/53/53 54/54/54
f 54/54/54 55/55/55 49/49/49
f 49/49/49 55/55/55 51/51/51
f 51/51/51 50/50/50 49/49/49
f 56/56/56 55/55/55 54/54/54
f 51/51/51 55/55/55 56/56/56
f 56/56/56 57/57/57 51/51/51
f 51/51/51 57/57/57 58/58/58
f 58/58/58 52/52/52 51/51/51
f 59/59/59 52/52/52 58/58/58
f 52/52/52 59/59/59 41/41/41
f 60/60/60 41/41/41 59/59/59
f 59/59/59 61/61/61 60/60/60
f 54/54/54 62/62/62 56/56/56
f 62/62/62 63/63/63 56/56/56
f 56/56/56 63/63/63 64/64/64
f 57/57/57 56/56/56 64/64/64
f 58/58/58 57/57/57 64/64/64
f 62/62/62 65/65/65 63/63/63
f 65/65/65 66/66/66 63/63/63
f 63/63/63 66/66/66 64/64/64
f 66/66/66 67/67/67 64/64/64
f 64/64/64 67/67/67 58/58/58
f 58/58/58 67/67/67 68/68/68
f 68/68/68 69/69/69 58/58/58
f 58/58/58 69/69/69 70/70/70
f 58/58/58 70/70/70 59/59/59
f 59/59/59 70/70/70 71/71/71
f 71/71/71 61/61/61 59/59/59
f 72/72/72 73/73/73 74/74/74
f 74/74/74 75/75/75 72/72/72
f 76/76/76 75/75/75 74/74/74
f 74/74/74 77/77/77 76/76/76
f 76/76/76 77/77/77 78/78/78
f 78/78/78 79/79/79 76/76/76
f 80/80/80 79/79/79 78/78/78
f 78/78/78 81/81/81 80/80/80
f 82/82/82 80/80/80 81/81/81
f 81/81/81 83/83/83 82/82/82
f 82/82/82 83/83/83 84/84/84
f 84/84/84 85/85/85 82/82/82
f 86/86/86 85/85/85 84/84/84
f 84/84/84 87/87/87 86/86/86
f 88/88/88 86/86/86 87/87/87
f 87/87/87 89/89/89 88/88/88
f 88/88/88 89/89/89 90/90/90
f 90/90/90 91/91/91 88/88/88
f 91/91/91 90/90/90 92/92/92
f 92/92/92 93/93/93 91/91/91
f 94/94/94 95/95/95 96/96/96
f 94/94/94 96/96/96 97/97/97
f 94/94/94 97/97/97 98/98/98
f 99/99/99 97/97/97 96/96/96
f 96/96/96 100/100/100 99/99/99
f 100/100/100 101/101/101 99/99/99
f 100/100/100 102/102/102 101/101/101
f 100/100/100 103/103/103 102/102/102
f 104/104/104 105/105/105 106/106/106
f 106/106/106 107/107/107 104/104/104
f 108/108/108 104/104/104 107/107/107
f 107/107/107 109/109/109 108/108/108
f 107/107/107 110/110/110 111/111/111
f 111/111/111 112/112/112 107/107/107
f 107/107/107 112/112/112 113/113/113
f 113/113/113 114/114/114 107/107/107
f 115/115/115 114/114/114 116/116/116
f 115/115/115 116/116/116 117/117/117
f 117/117/117 118/118/118 115/115/115
f 119/119/119 115/115/115 118/118/118
f 115/115/115 119/119/119 120/120/120
f 115/115/115 120/120/120 121/121/121
f 121/121/121 104/104/104 115/115/115
f 122/122/122 104/104/104 121/121/121
f 123/123/123 119/119/119 118/118/118
f 124/124/124 119/119/119 123/123/123
f 125/125/125 119/119/119 124/124/124
f 120/120/120 119/119/119 125/125/125
f 121/121/121 120/120/120 125/125/125
f 125/125/125 126/126/126 121/121/121
f 121/121/121 126/126/126 127/127/127
f 127/127/127 128/128/128 121/121/121
f 121/121/121 128/128/128 122/122/122
f 129/129/129 124/124/124 123/123/123
f 130/130/130 124/124/124 129/129/129
f 130/130/130 125/125/125 124/124/124
f 125/125/125 130/130/130 131/131/131
f 131/131/131 126/126/126 125/125/125
f 127/127/127 126/126/126 131/131/131
f 131/131/131 132/132/132 127/127/127
f 132/132/132 133/133/133 127/127/127
f 133/133/133 134/134/134 127/127/127
f 134/134/134 128/128/128 127/127/127
f 134/134/134 122/122/122 128/128/128
f 122/122/122 134/134/134 135/135/135
f 136/136/136 122/122/122 135/135/135
f 122/122/122 136/136/136 110/110/110
f 137/137/137 133/133/133 132/132/132
f 133/133/133 137/137/137 138/138/138
f 138/138/138 134/134/134 133/133/133
f 138/138/138 135/135/135 134/134/134
f 139/139/139 135/135/135 138/138/138
f 135/135/135 139/139/139 140/140/140
f 140/140/140 141/141/141 135/135/135
f 135/135/135 141/141/141 136/136/136
f 138/138/138 137/137/137 142/142/142
f 138/138/138 142/142/142 139/139/139
f 139/139/139 142/142/142 143/143/143
f 143/143/143 144/144/144 139/139/139
f 140/140/140 139/139/139 144/144/144
f 144/144/144 145/145/145 140/140/140
f 142/142/142 137/137/137 146/146/146
f 142/142/142 146/146/146 143/143/143
