mtllib rg_face_001.mtl

g rg_face_001
v 3.834501 -14.520533 171.395752
vn 0.399233 -0.904647 -0.131773
v 3.419335 -13.999312 166.884048
vn 0.387980 -0.909850 -0.101596
v 9.240939 -11.458493 168.560440
vn 0.545170 -0.805303 -0.114798
v 9.441931 -11.179000 166.586914
vn 0.530482 -0.814519 0.086397
v 12.490886 -7.994475 169.718948
vn 0.763139 -0.619383 0.024873
v 8.978426 -12.568513 172.941971
vn 0.582584 -0.773557 -0.057443
v 3.797357 -14.820074 176.656952
vn 0.401521 -0.913307 0.006445
v 9.291547 -12.080408 177.721741
vn 0.620606 -0.752111 -0.047990
v 7.876168 -11.990610 163.678009
vn 0.384720 -0.862390 -0.235829
v 11.862341 -10.116168 164.910522
vn 0.611386 -0.715796 0.075114
v 11.682853 -9.446991 166.445557
vn 0.670686 -0.679587 0.254428
v 3.383242 -13.034366 162.353638
vn 0.304352 -0.874473 -0.343329
v 5.908731 -10.357923 159.604538
vn 0.360689 -0.795878 -0.485636
v 12.395732 -8.895482 162.242325
vn 0.599593 -0.689007 -0.282475
v 13.982267 -7.005461 165.458328
vn 0.783159 -0.586665 0.130093
v 14.145511 -4.900013 170.286133
vn 0.884171 -0.385221 0.149477
v 13.521277 -7.021037 173.668030
vn 0.859081 -0.456583 -0.060594
v 13.317870 -8.626909 178.318680
vn 0.809955 -0.488566 -0.133277
v 15.106374 -1.848799 178.558105
vn 0.948067 -0.000001 0.016792
v 9.784332 -7.161996 157.302139
vn 0.504047 -0.672095 -0.525177
v 14.954268 -5.045324 160.309616
vn 0.742310 -0.499606 -0.365458
v 15.794631 -4.821028 165.358307
vn 0.753788 -0.550398 0.097207
v 15.587790 -1.848794 168.314056
vn 0.774085 -0.000001 0.403363
v 14.933207 -1.848794 170.606506
vn 0.938854 -0.000001 0.040117
v 15.507806 -1.848796 173.821991
vn 0.926101 -0.000001 -0.043008
v 13.917837 -1.843321 156.042343
vn 0.703058 0.000053 -0.511563
v 15.729194 -1.848789 159.411057
vn 0.839060 -0.000028 -0.435460
v 17.334431 -1.848792 162.617844
vn 0.800955 -0.000001 -0.272878
v 18.662552 -1.848796 166.041473
vn 0.597887 -0.000001 0.180308
v 15.794641 1.123444 165.358307
vn 0.753789 0.550396 0.097207
v 14.145519 1.202428 170.286133
vn 0.884172 0.385218 0.149477
v 14.954276 1.347748 160.309631
vn 0.742650 0.499651 -0.364985
v 9.784347 3.475363 157.302155
vn 0.504876 0.672312 -0.524108
v 12.395751 5.197910 162.242325
vn 0.599962 0.689129 -0.281958
v 13.982280 3.307881 165.458328
vn 0.783161 0.586663 0.130094
v 12.490902 4.296894 169.718948
vn 0.763141 0.619381 0.024874
v 13.521290 3.323450 173.668045
vn 0.859082 0.456581 -0.060594
v 13.317885 4.929318 178.318695
vn 0.809957 0.488564 -0.133276
v 9.291575 8.382828 177.721741
vn 0.620608 0.752109 -0.047990
v 5.908752 6.671296 159.604553
vn 0.361812 0.796193 -0.484303
v 7.876195 8.293047 163.678009
vn 0.385700 0.862301 -0.235486
v 11.862361 6.418596 164.910538
vn 0.611388 0.715794 0.075116
v 11.682872 5.749416 166.445572
vn 0.670688 0.679585 0.254429
v 3.383269 9.347742 162.353653
vn 0.306212 0.874242 -0.342604
v 3.419367 10.312685 166.884048
vn 0.389431 0.909357 -0.101209
v 9.441953 7.481432 166.586929
vn 0.530930 0.814316 0.086290
v 9.240963 7.760925 168.560440
vn 0.545646 0.805149 -0.114335
v 8.978454 8.870936 172.941986
vn 0.582586 0.773556 -0.057442
v 3.797393 11.122507 176.656952
vn 0.401524 0.913306 0.006446
v 3.834532 10.822971 171.395752
vn 0.399571 0.904595 -0.131077
vt 0.010696 0.620718 0.000000
vt 0.004388 0.498821 0.000000
vt 0.160423 0.490632 0.000000
vt 0.166356 0.419265 0.000000
vt 0.314028 0.510350 0.000000
vt 0.140553 0.649820 0.000000
vt 0.010230 0.836935 0.000000
vt 0.170124 0.810858 0.000000
vt 0.121097 0.317356 0.000000
vt 0.224996 0.340938 0.000000
vt 0.245452 0.391587 0.000000
vt 0.042997 0.305140 0.000000
vt 0.108907 0.145626 0.000000
vt 0.272210 0.249087 0.000000
vt 0.345588 0.339597 0.000000
vt 0.411546 0.508197 0.000000
vt 0.344804 0.615502 0.000000
vt 0.348318 0.804079 0.000000
vt 0.499694 0.797930 0.000000
vt 0.305988 0.052381 0.000000
vt 0.400823 0.181647 0.000000
vt 0.414411 0.331995 0.000000
vt 0.499694 0.436276 0.000000
vt 0.499694 0.515170 0.000000
vt 0.499694 0.649026 0.000000
vt 0.499694 0.005034 0.000000
vt 0.499694 0.138018 0.000000
vt 0.499694 0.254375 0.000000
vt 0.499694 0.352652 0.000000
vt 0.584977 0.331995 0.000000
vt 0.587842 0.508197 0.000000
vt 0.598565 0.181647 0.000000
vt 0.693400 0.052381 0.000000
vt 0.727178 0.249087 0.000000
vt 0.653800 0.339597 0.000000
vt 0.685360 0.510350 0.000000
vt 0.654584 0.615502 0.000000
vt 0.651069 0.804079 0.000000
vt 0.829264 0.810858 0.000000
vt 0.890481 0.145626 0.000000
vt 0.878290 0.317356 0.000000
vt 0.774392 0.340938 0.000000
vt 0.753936 0.391587 0.000000
vt 0.956391 0.305140 0.000000
vt 0.995000 0.498821 0.000000
vt 0.833032 0.419265 0.000000
vt 0.838965 0.490632 0.000000
vt 0.858835 0.649820 0.000000
vt 0.989158 0.836935 0.000000
vt 0.988692 0.620718 0.000000
usemtl Material_0
f 1/1/1 2/2/2 3/3/3
f 3/3/3 2/2/2 4/4/4
f 5/5/5 3/3/3 4/4/4
f 6/6/6 3/3/3 5/5/5
f 3/3/3 6/6/6 1/1/1
f 7/7/7 1/1/1 6/6/6
f 6/6/6 8/8/8 7/7/7
f 4/4/4 2/2/2 9/9/9
f 10/10/10 4/4/4 9/9/9
f 4/4/4 10/10/10 11/11/11
f 4/4/4 11/11/11 5/5/5
f 2/2/2 12/12/12 9/9/9
f 12/12/12 13/13/13 9/9/9
f 14/14/14 9/9/9 13/13/13
f 14/14/14 10/10/10 9/9/9
f 14/14/14 15/15/15 10/10/10
f 15/15/15 11/11/11 10/10/10
f 11/11/11 15/15/15 5/5/5
f 16/16/16 5/5/5 15/15/15
f 17/17/17 5/5/5 16/16/16
f 5/5/5 17/17/17 6/6/6
f 8/8/8 6/6/6 17/17/17
f 17/17/17 18/18/18 8/8/8
f 19/19/19 18/18/18 17/17/17
f 13/13/13 20/20/20 14/14/14
f 20/20/20 21/21/21 14/14/14
f 14/14/14 21/21/21 22/22/22
f 22/22/22 15/15/15 14/14/14
f 22/22/22 16/16/16 15/15/15
f 16/16/16 22/22/22 23/23/23
f 23/23/23 24/24/24 16/16/16
f 17/17/17 16/16/16 24/24/24
f 24/24/24 25/25/25 17/17/17
f 17/17/17 25/25/25 19/19/19
f 21/21/21 20/20/20 26/26/26
f 21/21/21 26/26/26 27/27/27
f 21/21/21 27/27/27 28/28/28
f 28/28/28 22/22/22 21/21/21
f 28/28/28 29/29/29 22/22/22
f 29/29/29 23/23/23 22/22/22
f 29/29/29 30/30/30 23/23/23
f 23/23/23 30/30/30 31/31/31
f 31/31/31 24/24/24 23/23/23
f 32/32/32 27/27/27 26/26/26
f 28/28/28 27/27/27 32/32/32
f 32/32/32 30/30/30 28/28/28
f 28/28/28 30/30/30 29/29/29
f 32/32/32 26/26/26 33/33/33
f 33/33/33 34/34/34 32/32/32
f 30/30/30 32/32/32 34/34/34
f 34/34/34 35/35/35 30/30/30
f 30/30/30 35/35/35 31/31/31
f 31/31/31 35/35/35 36/36/36
f 37/37/37 31/31/31 36/36/36
f 24/24/24 31/31/31 37/37/37
f 37/37/37 25/25/25 24/24/24
f 19/19/19 25/25/25 37/37/37
f 37/37/37 38/38/38 19/19/19
f 39/39/39 38/38/38 37/37/37
f 34/34/34 33/33/33 40/40/40
f 40/40/40 41/41/41 34/34/34
f 34/34/34 41/41/41 42/42/42
f 34/34/34 42/42/42 35/35/35
f 35/35/35 42/42/42 43/43/43
f 43/43/43 36/36/36 35/35/35
f 44/44/44 41/41/41 40/40/40
f 45/45/45 41/41/41 44/44/44
f 46/46/46 41/41/41 45/45/45
f 42/42/42 41/41/41 46/46/46
f 46/46/46 43/43/43 42/42/42
f 36/36/36 43/43/43 46/46/46
f 46/46/46 47/47/47 36/36/36
f 36/36/36 47/47/47 48/48/48
f 48/48/48 37/37/37 36/36/36
f 37/37/37 48/48/48 39/39/39
f 49/49/49 39/39/39 48/48/48
f 48/48/48 50/50/50 49/49/49
f 47/47/47 46/46/46 45/45/45
f 47/47/47 45/45/45 50/50/50
f 50/50/50 48/48/48 47/47/47
