mtllib rg_thigh_001.mtl

g rg_thigh_001
v 8.768330 8.094176 84.926216
vn 0.741862 -0.150043 -0.114034
v 1.845233 -0.171398 85.386688
vn 0.760057 -0.642164 -0.099697
v 1.503066 1.659448 70.985313
vn 0.794790 -0.587477 -0.144399
v 6.499787 8.690240 71.683357
vn 0.726696 0.219013 -0.099337
v 0.728039 15.325704 87.294380
vn 0.306084 0.798877 -0.032836
v -0.619681 15.365536 73.018280
vn 0.085756 0.819535 -0.046129
v -9.240908 10.777901 88.049683
vn -0.634836 0.602763 0.040848
v -10.625634 9.661880 74.926666
vn -0.772225 0.311852 -0.064346
v -9.504999 2.809434 87.917648
vn -0.743597 -0.397987 -0.023101
v 5.460449 9.113729 64.001358
vn 0.696726 0.117995 -0.229454
v -2.300933 14.309881 62.774445
vn -0.012936 0.755649 -0.017423
v -8.619715 7.872817 64.788734
vn -0.632441 -0.128175 -0.048935
v -9.072374 4.274362 74.337288
vn -0.539985 -0.698717 -0.153132
v 1.845233 -0.171398 85.386688
vn -0.274144 -0.954981 -0.113365
v 1.503066 1.659448 70.985313
vn -0.278741 -0.950037 -0.138290
v 0.788248 3.505270 61.454308
vn 0.742446 -0.544870 -0.228893
v 2.345419 8.992476 59.005135
vn 0.803577 0.170763 -0.198799
v -0.148225 12.756335 45.963715
vn 0.718288 0.565302 -0.048253
v -7.465380 16.339779 46.326057
vn -0.252209 0.748370 0.050465
v -10.731707 8.265112 60.633354
vn -0.575605 -0.056342 0.209968
v 0.788248 3.505270 61.454308
vn -0.386963 -0.891052 -0.040099
v 0.862054 7.345280 45.391865
vn 0.793123 -0.227701 -0.110597
v -2.622929 13.412285 23.434929
vn 0.674961 0.583022 -0.060460
v -8.326304 15.420041 23.210728
vn -0.281445 0.692343 -0.017065
v -10.974884 10.063591 23.223808
vn -0.799867 -0.043092 -0.053614
v -13.105372 9.825050 47.856216
vn -0.756971 0.015355 0.035701
v -7.628181 3.055952 44.777550
vn 0.480795 -0.865559 -0.117427
v -1.106315 8.598409 23.467226
vn 0.646985 -0.476606 -0.071768
v -6.643675 5.102782 23.191051
vn 0.534968 -0.843045 -0.055539
v -7.628181 3.055952 44.777550
vn -0.672301 -0.700495 0.027772
v -6.643675 5.102782 23.191051
vn -0.750109 -0.654273 -0.096249
v 1.507665 -5.338551 70.985535
vn 0.793537 0.588827 -0.144650
v 1.783215 -3.482290 85.391685
vn 0.755303 0.648015 -0.097945
v 8.769383 -11.695845 84.923729
vn 0.742352 0.153613 -0.113403
v 6.504338 -12.369338 71.683975
vn 0.727899 -0.218053 -0.099587
v 5.466444 -12.792910 64.001091
vn 0.696728 -0.117989 -0.229376
v 0.794247 -7.184438 61.454086
vn 0.742439 0.544874 -0.228898
v 2.351114 -12.671635 59.004658
vn 0.803573 -0.170769 -0.198849
v 0.866664 -11.024456 45.391251
vn 0.793115 0.227695 -0.110664
v -7.623605 -6.735073 44.777706
vn 0.480790 0.865556 -0.117468
v 0.783748 -18.990517 87.289085
vn 0.310290 -0.798041 -0.031745
v -0.615229 -19.044643 73.018326
vn 0.086719 -0.819967 -0.046550
v -2.294958 -17.989042 62.774223
vn -0.012932 -0.755647 -0.017438
v -0.143599 -16.435509 45.963177
vn 0.718281 -0.565305 -0.048313
v -2.620359 -17.091431 23.434608
vn 0.674951 -0.583027 -0.060522
v -1.103711 -12.277570 23.466768
vn 0.646982 0.476601 -0.071827
v -6.641073 -8.781906 23.191101
vn 0.534968 0.843042 -0.055587
v -9.226333 -14.506076 88.050217
vn -0.632763 -0.605494 0.040559
v -10.621344 -13.341004 74.925903
vn -0.772237 -0.312779 -0.065086
v -8.613897 -11.551969 64.788338
vn -0.632427 0.128174 -0.048991
v -10.725941 -11.944208 60.633476
vn -0.575591 0.056345 0.210011
v -7.460746 -20.018904 46.326191
vn -0.252211 -0.748368 0.050486
v -8.323769 -19.099152 23.210928
vn -0.281451 -0.692341 -0.017040
v -10.972313 -13.742688 23.224251
vn -0.799871 0.043097 -0.053541
v -9.535728 -6.537985 87.922333
vn -0.745535 0.395549 -0.022627
v -9.068042 -7.953480 74.336647
vn -0.541107 0.698347 -0.153431
v 0.794247 -7.184438 61.454086
vn -0.386953 0.891044 -0.040114
v -7.623605 -6.735073 44.777706
vn -0.672297 0.700499 0.027830
v -13.100559 -13.504134 47.856861
vn -0.756969 -0.015350 0.035765
v -6.641073 -8.781906 23.191101
vn -0.750113 0.654278 -0.096180
v 1.783215 -3.482290 85.391685
vn -0.277548 0.953976 -0.113402
v 1.507665 -5.338551 70.985535
vn -0.279108 0.949757 -0.139721
vt 0.319186 0.990433 0.000000
vt 0.165533 0.990433 0.000000
vt 0.204248 0.755203 0.000000
vt 0.319037 0.776222 0.000000
vt 0.459979 0.990433 0.000000
vt 0.455463 0.774283 0.000000
vt 0.590739 0.990433 0.000000
vt 0.597577 0.792981 0.000000
vt 0.694149 0.990433 0.000000
vt 0.326917 0.653884 0.000000
vt 0.465060 0.611809 0.000000
vt 0.621953 0.630703 0.000000
vt 0.679412 0.792685 0.000000
vt 0.862967 0.990433 0.000000
vt 0.829312 0.751112 0.000000
vt 0.240422 0.597748 0.000000
vt 0.337463 0.564025 0.000000
vt 0.399643 0.360309 0.000000
vt 0.512478 0.357565 0.000000
vt 0.623428 0.555617 0.000000
vt 0.813330 0.610131 0.000000
vt 0.317025 0.353556 0.000000
vt 0.425955 0.012373 0.000000
vt 0.529801 0.012373 0.000000
vt 0.621511 0.012373 0.000000
vt 0.625114 0.378914 0.000000
vt 0.186095 0.324003 0.000000
vt 0.357165 0.012373 0.000000
vt 0.253293 0.012373 0.000000
vt 0.771629 0.339207 0.000000
vt 0.718110 0.012373 0.000000
vt 0.204248 0.755203 0.000000
vt 0.165533 0.990433 0.000000
vt 0.319186 0.990433 0.000000
vt 0.319037 0.776222 0.000000
vt 0.326917 0.653884 0.000000
vt 0.240422 0.597748 0.000000
vt 0.337463 0.564025 0.000000
vt 0.317025 0.353556 0.000000
vt 0.186095 0.324003 0.000000
vt 0.459979 0.990433 0.000000
vt 0.455463 0.774283 0.000000
vt 0.465060 0.611809 0.000000
vt 0.399643 0.360309 0.000000
vt 0.425955 0.012373 0.000000
vt 0.357165 0.012373 0.000000
vt 0.253293 0.012373 0.000000
vt 0.590739 0.990433 0.000000
vt 0.597577 0.792981 0.000000
vt 0.621953 0.630703 0.000000
vt 0.623428 0.555617 0.000000
vt 0.512478 0.357565 0.000000
vt 0.529801 0.012373 0.000000
vt 0.621511 0.012373 0.000000
vt 0.694149 0.990433 0.000000
vt 0.679412 0.792685 0.000000
vt 0.813330 0.610131 0.000000
vt 0.771629 0.339207 0.000000
vt 0.625114 0.378914 0.000000
vt 0.718110 0.012373 0.000000
vt 0.862967 0.990433 0.000000
vt 0.829312 0.751112 0.000000
usemtl Material_0
f 1/1/1 2/2/2 3/3/3
f 3/3/3 4/4/4 1/1/1
f 5/5/5 1/1/1 4/4/4
f 4/4/4 6/6/6 5/5/5
f 7/7/7 5/5/5 6/6/6
f 6/6/6 8/8/8 7/7/7
f 9/9/9 7/7/7 8/8/8
f 10/10/10 4/4/4 3/3/3
f 6/6/6 4/4/4 10/10/10
f 10/10/10 11/11/11 6/6/6
f 8/8/8 6/6/6 11/11/11
f 8/8/8 11/11/11 12/12/12
f 13/13/13 8/8/8 12/12/12
f 8/8/8 13/13/13 9/9/9
f 14/14/14 9/9/9 13/13/13
f 13/13/13 15/15/15 14/14/14
f 3/3/3 16/16/16 10/10/10
f 16/16/16 17/17/17 10/10/10
f 10/10/10 17/17/17 11/11/11
f 17/17/17 18/18/18 11/11/11
f 11/11/11 18/18/18 19/19/19
f 20/20/20 11/11/11 19/19/19
f 11/11/11 20/20/20 12/12/12
f 12/12/12 20/20/20 21/21/21
f 13/13/13 12/12/12 21/21/21
f 15/15/15 13/13/13 21/21/21
f 16/16/16 22/22/22 17/17/17
f 17/17/17 22/22/22 18/18/18
f 23/23/23 18/18/18 22/22/22
f 19/19/19 18/18/18 23/23/23
f 23/23/23 24/24/24 19/19/19
f 19/19/19 24/24/24 25/25/25
f 25/25/25 26/26/26 19/19/19
f 19/19/19 26/26/26 20/20/20
f 27/27/27 22/22/22 16/16/16
f 28/28/28 22/22/22 27/27/27
f 22/22/22 28/28/28 23/23/23
f 27/27/27 29/29/29 28/28/28
f 30/30/30 21/21/21 20/20/20
f 20/20/20 26/26/26 30/30/30
f 30/30/30 26/26/26 25/25/25
f 25/25/25 31/31/31 30/30/30
f 32/32/32 33/33/33 34/34/34
f 34/34/34 35/35/35 32/32/32
f 32/32/32 35/35/35 36/36/36
f 36/36/36 37/37/37 32/32/32
f 37/37/37 36/36/36 38/38/38
f 37/37/37 38/38/38 39/39/39
f 40/40/40 37/37/37 39/39/39
f 35/35/35 34/34/34 41/41/41
f 41/41/41 42/42/42 35/35/35
f 36/36/36 35/35/35 42/42/42
f 42/42/42 43/43/43 36/36/36
f 36/36/36 43/43/43 38/38/38
f 38/38/38 43/43/43 44/44/44
f 38/38/38 44/44/44 39/39/39
f 39/39/39 44/44/44 45/45/45
f 45/45/45 46/46/46 39/39/39
f 40/40/40 39/39/39 46/46/46
f 46/46/46 47/47/47 40/40/40
f 42/42/42 41/41/41 48/48/48
f 48/48/48 49/49/49 42/42/42
f 49/49/49 43/43/43 42/42/42
f 49/49/49 50/50/50 43/43/43
f 43/43/43 50/50/50 51/51/51
f 52/52/52 43/43/43 51/51/51
f 43/43/43 52/52/52 44/44/44
f 45/45/45 44/44/44 52/52/52
f 52/52/52 53/53/53 45/45/45
f 54/54/54 53/53/53 52/52/52
f 49/49/49 48/48/48 55/55/55
f 55/55/55 56/56/56 49/49/49
f 56/56/56 50/50/50 49/49/49
f 56/56/56 57/57/57 50/50/50
f 50/50/50 57/57/57 51/51/51
f 51/51/51 57/57/57 58/58/58
f 58/58/58 59/59/59 51/51/51
f 51/51/51 59/59/59 52/52/52
f 52/52/52 59/59/59 54/54/54
f 54/54/54 59/59/59 58/58/58
f 58/58/58 60/60/60 54/54/54
f 56/56/56 55/55/55 61/61/61
f 61/61/61 62/62/62 56/56/56
f 62/62/62 57/57/57 56/56/56
