mtllib rg_pelvies_001.mtl

g rg_pelvies_001
v -5.697123 8.778966 112.212860
vn -0.446842 0.796260 0.312311
v 0.768662 10.818716 111.422287
vn -0.251269 0.916798 0.310394
v 0.975006 13.132358 104.755615
vn -0.260004 0.932172 0.221906
v -7.388026 10.264860 107.150146
vn -0.464379 0.765941 0.339181
v -10.684750 5.407604 108.833908
vn -0.819931 0.311851 0.282899
v -10.089800 4.866067 112.916046
vn -0.812413 0.350563 0.164911
v -9.819496 -1.839491 112.581390
vn -0.963603 0.000001 0.239469
v -8.977064 10.864687 103.137848
vn -0.560908 0.741920 0.197872
v -12.692662 6.380497 103.681358
vn -0.835006 0.236108 0.261136
v -11.988000 -1.839482 101.395706
vn -0.769302 -0.000000 -0.018589
v -11.230921 -1.839485 108.698914
vn -0.964952 0.000001 0.221895
v -10.684762 -9.086576 108.833939
vn -0.819932 -0.311853 0.282894
v -10.089809 -8.545048 112.916061
vn -0.812414 -0.350561 0.164911
v -9.105133 11.174656 94.937225
vn -0.558681 0.749182 -0.008546
v -13.539145 6.101335 99.690994
vn -0.848496 0.288344 -0.017388
v 0.930331 14.777143 96.170425
vn -0.364697 0.923569 0.065252
v -9.240908 10.777901 88.049683
vn -0.631678 0.594386 -0.100349
v -12.231504 5.581072 94.259773
vn -0.859641 -0.027777 -0.255186
v 0.728039 15.325704 87.294380
vn -0.410038 0.909708 0.065567
v -9.504999 2.809434 87.917648
vn -0.564558 -0.548256 -0.342625
v -8.760381 -1.704176 96.479057
vn -0.376359 -0.757374 -0.291862
v -4.700589 -1.270215 94.106918
vn -0.083529 -0.938324 -0.273210
v -6.226676 -1.839488 96.339172
vn -0.000620 -0.000003 -0.273480
v 1.845233 -0.171398 85.386688
vn -0.129357 -0.940680 -0.215634
v 2.747491 -1.043093 95.855209
vn 0.057360 -0.937007 -0.275708
v 2.409021 -1.839498 97.057930
vn 0.045169 -0.000013 -0.542690
v 2.748061 -2.635911 95.855370
vn 0.057202 0.937068 -0.275018
v -4.699984 -2.408784 94.106834
vn -0.085280 0.937528 -0.273404
v -8.759868 -1.974820 96.478844
vn -0.376816 0.756932 -0.292468
v 1.783215 -3.482290 85.391685
vn -0.132642 0.939769 -0.214431
v -9.535728 -6.537985 87.922333
vn -0.566829 0.545953 -0.342779
v -12.231084 -9.260056 94.259521
vn -0.859783 0.026965 -0.254515
v -13.539047 -9.780305 99.690887
vn -0.848490 -0.288350 -0.017420
v -12.692641 -10.059467 103.681358
vn -0.835004 -0.236118 0.261122
v -9.226333 -14.506076 88.050217
vn -0.630590 -0.596323 -0.098888
v -9.104724 -14.853643 94.937042
vn -0.558815 -0.749165 -0.007271
v -8.976935 -14.543674 103.137733
vn -0.560908 -0.741926 0.197855
v -7.388048 -13.943838 107.150146
vn -0.464385 -0.765942 0.339171
v -5.697143 -12.457956 112.212860
vn -0.446844 -0.796260 0.312309
v 0.931378 -18.456156 96.170578
vn -0.362976 -0.924550 0.065943
v 0.974978 -16.811356 104.755615
vn -0.260005 -0.932174 0.221894
v 0.768638 -14.497726 111.422302
vn -0.251273 -0.916798 0.310392
v 0.783748 -18.990517 87.289085
vn -0.404157 -0.912611 0.061626
v 0.975006 13.132358 104.755615
vn 0.708631 0.658529 0.214688
v 0.768662 10.818716 111.422287
vn 0.670363 0.694346 0.261719
v 7.328281 5.027605 109.984528
vn 0.851101 0.419490 0.098165
v 7.781425 5.000053 104.050819
vn 0.879395 0.252811 0.002045
v 8.434335 6.315017 101.026848
vn 0.842858 0.189270 0.190371
v 8.926683 7.502439 95.793831
vn 0.752451 0.137400 -0.028619
v 0.930331 14.777143 96.170425
vn 0.672305 0.735649 0.065668
v 8.768330 8.094176 84.926216
vn 0.728525 0.062579 -0.025425
v 0.728039 15.325704 87.294380
vn 0.673336 0.738715 0.030309
v 8.768909 -1.839508 103.887177
vn 0.977545 -0.000001 -0.045402
v 7.860812 -1.839506 99.736015
vn 0.757984 0.000001 -0.503703
v 7.123806 0.576343 99.758392
vn 0.748707 -0.216962 -0.340542
v 2.747491 -1.043093 95.855209
vn 0.703861 -0.616509 -0.261935
v 1.845233 -0.171398 85.386688
vn 0.757928 -0.641441 -0.118736
v 8.765968 -1.839513 109.506577
vn 0.978787 -0.000001 0.000512
v 7.328272 -8.706630 109.984528
vn 0.851100 -0.419491 0.098164
v 7.781415 -8.679069 104.050842
vn 0.879395 -0.252804 0.002065
v 7.123921 -4.255353 99.758484
vn 0.748704 0.216993 -0.340466
v 2.409021 -1.839498 97.057930
vn 0.505312 0.000021 -0.610999
v 0.974978 -16.811356 104.755615
vn 0.708626 -0.658517 0.214741
v 8.434485 -9.994030 101.026985
vn 0.842848 -0.189242 0.190470
v 8.927768 -11.181445 95.794479
vn 0.752466 -0.137400 -0.028726
v 2.748061 -2.635911 95.855370
vn 0.702565 0.617981 -0.261594
v 0.768638 -14.497726 111.422302
vn 0.670362 -0.694348 0.261717
v 0.931378 -18.456156 96.170578
vn 0.674296 -0.733843 0.064781
v 8.769383 -11.695845 84.923729
vn 0.728729 -0.059785 -0.025821
v 1.783215 -3.482290 85.391685
vn 0.752627 0.647095 -0.121741
v 0.783748 -18.990517 87.289085
vn 0.679360 -0.733071 0.032813
vt 0.245830 0.564640 0.000000
vt 0.136138 0.564968 0.000000
vt 0.094209 0.455171 0.000000
vt 0.235213 0.491343 0.000000
vt 0.354463 0.512898 0.000000
vt 0.362934 0.562622 0.000000
vt 0.502450 0.562861 0.000000
vt 0.231232 0.423849 0.000000
vt 0.340272 0.437485 0.000000
vt 0.502450 0.402743 0.000000
vt 0.502450 0.510780 0.000000
vt 0.650437 0.512898 0.000000
vt 0.641967 0.562622 0.000000
vt 0.230410 0.298269 0.000000
vt 0.340597 0.379305 0.000000
vt 0.078657 0.325724 0.000000
vt 0.243625 0.178284 0.000000
vt 0.346293 0.289327 0.000000
vt 0.073229 0.190478 0.000000
vt 0.378800 0.158466 0.000000
vt 0.479431 0.306120 0.000000
vt 0.464274 0.207674 0.000000
vt 0.502450 0.286177 0.000000
vt 0.389908 0.014958 0.000000
vt 0.484093 0.078827 0.000000
vt 0.502450 0.094314 0.000000
vt 0.520808 0.078827 0.000000
vt 0.540627 0.207674 0.000000
vt 0.525470 0.306120 0.000000
vt 0.614992 0.014958 0.000000
vt 0.626100 0.158466 0.000000
vt 0.658607 0.289327 0.000000
vt 0.664303 0.379305 0.000000
vt 0.664629 0.437485 0.000000
vt 0.761275 0.178284 0.000000
vt 0.774490 0.298269 0.000000
vt 0.773669 0.423849 0.000000
vt 0.769687 0.491343 0.000000
vt 0.759070 0.564640 0.000000
vt 0.926244 0.325724 0.000000
vt 0.910692 0.455171 0.000000
vt 0.868763 0.564968 0.000000
vt 0.931671 0.190478 0.000000
vt 0.803216 0.886170 0.000000
vt 0.778080 0.980861 0.000000
vt 0.625765 0.969383 0.000000
vt 0.617447 0.877881 0.000000
vt 0.638781 0.831795 0.000000
vt 0.659913 0.756160 0.000000
vt 0.831173 0.762934 0.000000
vt 0.662923 0.580909 0.000000
vt 0.839288 0.608098 0.000000
vt 0.502450 0.878068 0.000000
vt 0.502450 0.816413 0.000000
vt 0.545449 0.821174 0.000000
vt 0.518114 0.747586 0.000000
vt 0.519279 0.578675 0.000000
vt 0.502450 0.965683 0.000000
vt 0.379136 0.969383 0.000000
vt 0.387454 0.877881 0.000000
vt 0.459452 0.821174 0.000000
vt 0.502450 0.760644 0.000000
vt 0.201685 0.886170 0.000000
vt 0.366119 0.831795 0.000000
vt 0.344987 0.756160 0.000000
vt 0.486787 0.747586 0.000000
vt 0.226821 0.980861 0.000000
vt 0.173728 0.762934 0.000000
vt 0.341979 0.580909 0.000000
vt 0.485622 0.578675 0.000000
vt 0.165612 0.608098 0.000000
usemtl Material_0
f 1/1/1 2/2/2 3/3/3
f 3/3/3 4/4/4 1/1/1
f 1/1/1 4/4/4 5/5/5
f 5/5/5 6/6/6 1/1/1
f 7/7/7 6/6/6 5/5/5
f 4/4/4 3/3/3 8/8/8
f 5/5/5 4/4/4 8/8/8
f 8/8/8 9/9/9 5/5/5
f 5/5/5 9/9/9 10/10/10
f 10/10/10 11/11/11 5/5/5
f 5/5/5 11/11/11 7/7/7
f 7/7/7 11/11/11 12/12/12
f 12/12/12 13/13/13 7/7/7
f 14/14/14 8/8/8 3/3/3
f 15/15/15 8/8/8 14/14/14
f 8/8/8 15/15/15 9/9/9
f 9/9/9 15/15/15 10/10/10
f 3/3/3 16/16/16 14/14/14
f 17/17/17 14/14/14 16/16/16
f 18/18/18 14/14/14 17/17/17
f 14/14/14 18/18/18 15/15/15
f 10/10/10 15/15/15 18/18/18
f 16/16/16 19/19/19 17/17/17
f 17/17/17 20/20/20 18/18/18
f 21/21/21 18/18/18 20/20/20
f 18/18/18 21/21/21 10/10/10
f 21/21/21 20/20/20 22/22/22
f 23/23/23 21/21/21 22/22/22
f 21/21/21 23/23/23 10/10/10
f 22/22/22 20/20/20 24/24/24
f 24/24/24 25/25/25 22/22/22
f 23/23/23 22/22/22 25/25/25
f 25/25/25 26/26/26 23/23/23
f 23/23/23 26/26/26 27/27/27
f 27/27/27 28/28/28 23/23/23
f 23/23/23 28/28/28 29/29/29
f 29/29/29 10/10/10 23/23/23
f 28/28/28 27/27/27 30/30/30
f 30/30/30 31/31/31 28/28/28
f 29/29/29 28/28/28 31/31/31
f 29/29/29 31/31/31 32/32/32
f 10/10/10 29/29/29 32/32/32
f 32/32/32 33/33/33 10/10/10
f 34/34/34 10/10/10 33/33/33
f 10/10/10 34/34/34 12/12/12
f 12/12/12 11/11/11 10/10/10
f 32/32/32 31/31/31 35/35/35
f 35/35/35 36/36/36 32/32/32
f 33/33/33 32/32/32 36/36/36
f 36/36/36 37/37/37 33/33/33
f 37/37/37 34/34/34 33/33/33
f 12/12/12 34/34/34 37/37/37
f 37/37/37 38/38/38 12/12/12
f 12/12/12 38/38/38 39/39/39
f 39/39/39 13/13/13 12/12/12
f 40/40/40 36/36/36 35/35/35
f 36/36/36 40/40/40 41/41/41
f 41/41/41 37/37/37 36/36/36
f 38/38/38 37/37/37 41/41/41
f 39/39/39 38/38/38 41/41/41
f 41/41/41 42/42/42 39/39/39
f 35/35/35 43/43/43 40/40/40
f 44/44/44 45/45/45 46/46/46
f 46/46/46 47/47/47 44/44/44
f 44/44/44 47/47/47 48/48/48
f 44/44/44 48/48/48 49/49/49
f 49/49/49 50/50/50 44/44/44
f 50/50/50 49/49/49 51/51/51
f 51/51/51 52/52/52 50/50/50
f 53/53/53 47/47/47 46/46/46
f 47/47/47 53/53/53 54/54/54
f 54/54/54 55/55/55 47/47/47
f 48/48/48 47/47/47 55/55/55
f 49/49/49 48/48/48 55/55/55
f 55/55/55 56/56/56 49/49/49
f 51/51/51 49/49/49 56/56/56
f 56/56/56 57/57/57 51/51/51
f 46/46/46 58/58/58 53/53/53
f 53/53/53 58/58/58 59/59/59
f 59/59/59 60/60/60 53/53/53
f 54/54/54 53/53/53 60/60/60
f 60/60/60 61/61/61 54/54/54
f 62/62/62 54/54/54 61/61/61
f 55/55/55 54/54/54 62/62/62
f 62/62/62 56/56/56 55/55/55
f 63/63/63 60/60/60 59/59/59
f 63/63/63 64/64/64 60/60/60
f 64/64/64 61/61/61 60/60/60
f 61/61/61 64/64/64 65/65/65
f 65/65/65 66/66/66 61/61/61
f 61/61/61 66/66/66 62/62/62
f 59/59/59 67/67/67 63/63/63
f 65/65/65 64/64/64 63/63/63
f 63/63/63 68/68/68 65/65/65
f 69/69/69 65/65/65 68/68/68
f 66/66/66 65/65/65 69/69/69
f 69/69/69 70/70/70 66/66/66
f 68/68/68 71/71/71 69/69/69
