# Blender v2.93.6 OBJ File: ''
# www.blender.org
mtllib 맨발.mtl
o untitled.008
v 16.759880 9.410502 1.495845
v 14.914769 7.216058 1.326605
v 7.272946 5.531295 0.313089
v 16.961767 13.069602 1.467876
v 7.717515 20.364790 0.039122
v -0.350359 20.031380 0.189165
v -2.068065 6.456619 0.372016
v -7.752462 13.205298 -0.405772
v -8.521586 7.605332 -0.331545
v -13.090391 8.601042 -0.518143
v 16.211468 16.630331 1.212702
v 14.627308 19.089512 0.812335
v -14.444481 12.757159 -0.640671
v -13.428072 16.513119 -0.668239
v -6.991094 18.701139 -0.467360
v 7.257773 -5.695616 0.313152
v 14.769011 -7.037650 1.314889
v 16.651560 -9.542579 1.479584
v 16.843851 -13.171028 1.451203
v 6.771526 -20.527660 -0.020391
v 16.102991 -16.700489 1.198393
v 14.528612 -19.130938 0.800372
v -1.096705 -20.180080 0.203266
v -2.025260 -6.613876 0.374462
v -7.657138 -13.305831 -0.402668
v -6.903410 -18.748119 -0.462991
v -13.286478 -16.579733 -0.662227
v -14.300929 -12.853931 -0.635110
v -12.944809 -8.728523 -0.513024
v -8.418596 -7.763515 -0.328527
v -12.969958 -8.150240 6.969169
v -14.180888 -12.695225 14.030107
v -9.115615 -7.971407 12.893898
v -9.174648 -6.881581 0.865904
v -3.951384 -9.063704 13.322177
v -1.216667 -6.569946 1.599431
v 1.378006 -8.153879 8.824655
v 7.847936 -5.571635 1.559690
v 8.122473 -7.282804 5.236210
v -13.954789 -7.984963 0.669294
v -12.944809 -8.728523 -0.513024
v -8.418596 -7.763515 -0.328527
v -2.025260 -6.613876 0.374462
v 7.257773 -5.695616 0.313152
v 15.902301 -6.281713 2.584683
v 14.910061 -7.412098 4.769948
v 14.769011 -7.037650 1.314889
v -14.178730 12.594625 14.030165
v -12.968360 8.049703 6.969094
v -9.113425 7.870828 12.893723
v -9.172672 6.784341 0.865750
v -13.953271 7.884442 0.669181
v -13.090391 8.601042 -0.518143
v -8.521586 7.605332 -0.331545
v -1.216061 6.470994 1.596000
v -2.068065 6.456619 0.372016
v -3.949240 8.963160 13.321784
v 1.379526 8.053395 8.824526
v 7.845006 5.471717 1.555809
v 7.272946 5.531295 0.313089
v 8.127388 7.181841 5.232214
v 14.866359 6.983739 4.773686
v 15.902020 6.168051 2.584634
v 14.914769 7.216058 1.326605
v -14.178730 12.594625 14.030165
v -9.113425 7.870828 12.893723
v -7.379808 8.113814 17.922375
v -13.599699 12.691343 18.849615
v -7.780448 6.609021 32.569721
v -13.511678 11.947187 32.749866
v -8.809787 17.141573 17.926426
v -7.579152 17.395489 32.576958
v -8.748804 18.106775 12.814326
v -4.174254 17.430006 13.235636
v -3.568914 14.661794 18.941343
v -1.765953 14.854769 32.408558
v -3.689960 10.724044 18.883583
v -2.312595 9.542373 32.419041
v -7.780448 6.609021 32.569721
v -7.379808 8.113814 17.922375
v -1.931713 13.145856 14.549484
v -3.949240 8.963160 13.321784
v -9.113425 7.870828 12.893723
v 1.035750 18.243706 8.543605
v -4.174254 17.430006 13.235636
v -1.931713 13.145856 14.549484
v 2.297684 12.930266 10.049764
v 1.379526 8.053395 8.824526
v -3.949240 8.963160 13.321784
v 8.632939 12.439169 6.518809
v 8.127388 7.181841 5.232214
v 16.374390 9.643315 5.410833
v 14.866359 6.983739 4.773686
v 17.911659 9.056623 2.722739
v 15.902020 6.168051 2.584634
v 8.314851 19.008989 4.902887
v 14.206658 18.232042 4.525176
v 15.593409 16.091381 5.062521
v 16.145088 12.902699 5.557530
v 17.028309 17.082832 2.397311
v 18.231567 13.091922 2.699627
v 16.961767 13.069602 1.467876
v 16.759880 9.410502 1.495845
v 14.914769 7.216058 1.326605
v 14.976548 19.928192 2.053844
v 14.627308 19.089512 0.812335
v 16.211468 16.630331 1.212702
v 14.976548 19.928192 2.053844
v 14.627308 19.089512 0.812335
v 7.717515 20.364790 0.039122
v 7.326197 21.258129 1.205415
v -0.473085 20.733879 1.374752
v -0.350359 20.031380 0.189165
v -6.991094 18.701139 -0.467360
v 14.206658 18.232042 4.525176
v 8.314851 19.008989 4.902887
v 1.035750 18.243706 8.543605
v -4.174254 17.430006 13.235636
v -7.449710 19.275219 0.711912
v -14.330222 16.724157 0.501023
v -13.428072 16.513119 -0.668239
v -15.494661 12.363229 0.533861
v -14.444481 12.757159 -0.640671
v -13.090391 8.601042 -0.518143
v -8.748804 18.106775 12.814326
v -14.294741 16.393114 6.606534
v -15.728040 12.146797 6.933428
v -13.953271 7.884442 0.669181
v -14.178730 12.594625 14.030165
v -12.968360 8.049703 6.969094
v -7.383058 -8.214442 17.922749
v -9.115615 -7.971407 12.893898
v -14.180888 -12.695225 14.030107
v -13.603007 -12.792017 18.849428
v -8.812984 -17.242208 17.926645
v -8.750937 -18.207354 12.814466
v -4.176351 -17.530554 13.235984
v -3.572205 -14.762396 18.942047
v -1.933890 -13.246394 14.549966
v -7.786009 -6.709694 32.570129
v -13.517206 -12.047902 32.749588
v -7.584625 -17.496162 32.577404
v -1.771416 -14.955392 32.409653
v -3.693271 -10.824646 18.884266
v -3.951384 -9.063704 13.322177
v -7.383058 -8.214442 17.922749
v -9.115615 -7.971407 12.893898
v -2.318100 -9.643001 32.420071
v -7.786009 -6.709694 32.570129
v -1.933890 -13.246394 14.549966
v -4.176351 -17.530554 13.235984
v 1.034258 -18.344194 8.543749
v 2.296041 -13.030764 10.050026
v 8.625170 -12.540521 6.522387
v 8.310354 -19.109871 4.903944
v 14.204982 -18.331228 4.525399
v 1.378006 -8.153879 8.824655
v 8.122473 -7.282804 5.236210
v 16.372860 -9.743759 5.411057
v 16.143572 -13.003141 5.557739
v 15.591901 -16.191837 5.062728
v -3.951384 -9.063704 13.322177
v 14.910061 -7.412098 4.769948
v 17.910130 -9.157067 2.722945
v 18.230051 -13.192369 2.699835
v 17.026812 -17.183279 2.397519
v 14.974882 -20.027378 2.054067
v 14.528612 -19.130938 0.800372
v 16.102991 -16.700489 1.198393
v 15.902301 -6.281713 2.584683
v 14.769011 -7.037650 1.314889
v 16.651560 -9.542579 1.479584
v 16.843851 -13.171028 1.451203
v 6.771526 -20.527660 -0.020391
v 14.528612 -19.130938 0.800372
v 14.974882 -20.027378 2.054067
v 7.329492 -21.357941 1.203736
v 14.204982 -18.331228 4.525399
v 8.310354 -19.109871 4.903944
v -0.473087 -20.834101 1.369180
v 1.034258 -18.344194 8.543749
v -4.176351 -17.530554 13.235984
v -1.096705 -20.180080 0.203266
v -6.903410 -18.748119 -0.462991
v -7.451313 -19.374901 0.712034
v -8.750937 -18.207354 12.814466
v -14.296357 -16.493666 6.606579
v -14.180888 -12.695225 14.030107
v -15.729668 -12.247493 6.933453
v -12.969958 -8.150240 6.969169
v -14.331728 -16.824692 0.501150
v -15.496149 -12.463891 0.533971
v -13.954789 -7.984963 0.669294
v -13.286478 -16.579733 -0.662227
v -14.300929 -12.853931 -0.635110
v -12.944809 -8.728523 -0.513024
vt 0.812558 0.030710
vt 0.759116 0.047507
vt 0.748224 0.186758
vt 0.866000 0.013914
vt 0.979097 0.186456
vt 0.972383 0.281391
vt 0.754095 0.295161
vt 0.862818 0.389944
vt 0.759965 0.403564
vt 0.810822 0.480496
vt 0.918484 0.031763
vt 0.970967 0.049613
vt 0.868337 0.476798
vt 0.925852 0.473100
vt 0.965670 0.376325
vt 0.748224 0.186758
vt 0.759116 0.047507
vt 0.812558 0.030710
vt 0.866000 0.013914
vt 0.979097 0.186456
vt 0.918484 0.031763
vt 0.970967 0.049613
vt 0.972383 0.281391
vt 0.754095 0.295161
vt 0.862818 0.389944
vt 0.965670 0.376325
vt 0.925852 0.473100
vt 0.868337 0.476798
vt 0.810822 0.480496
vt 0.759965 0.403564
vt 0.039588 0.578178
vt 0.033190 0.500485
vt 0.151665 0.515374
vt 0.147110 0.655872
vt 0.245395 0.498976
vt 0.268569 0.655872
vt 0.318660 0.528469
vt 0.390028 0.655872
vt 0.391925 0.557962
vt 0.045986 0.655872
vt 0.042069 0.701865
vt 0.146341 0.701865
vt 0.268465 0.701865
vt 0.390590 0.701865
vt 0.546605 0.655872
vt 0.520265 0.586916
vt 0.547113 0.701865
vt 0.033190 0.500485
vt 0.039588 0.578178
vt 0.151665 0.515374
vt 0.147110 0.655872
vt 0.045986 0.655872
vt 0.042069 0.701865
vt 0.146341 0.701865
vt 0.268569 0.655872
vt 0.268465 0.701865
vt 0.245395 0.498976
vt 0.318660 0.528469
vt 0.390028 0.655872
vt 0.390590 0.701865
vt 0.391925 0.557962
vt 0.520265 0.586916
vt 0.546605 0.655872
vt 0.547113 0.701865
vt 0.403960 0.391520
vt 0.514190 0.392631
vt 0.513543 0.318049
vt 0.404281 0.303467
vt 0.501386 0.041907
vt 0.402511 0.041907
vt 0.300232 0.324148
vt 0.291568 0.041907
vt 0.302952 0.400453
vt 0.215925 0.390282
vt 0.193303 0.306706
vt 0.186840 0.041907
vt 0.119458 0.303729
vt 0.113775 0.041907
vt 0.027633 0.041907
vt 0.043436 0.318049
vt 0.156695 0.357999
vt 0.098029 0.383968
vt 0.011061 0.392631
vt 0.545962 0.220898
vt 0.551508 0.144091
vt 0.626916 0.162217
vt 0.626602 0.227720
vt 0.713733 0.216689
vt 0.708984 0.138501
vt 0.626288 0.293223
vt 0.718482 0.294878
vt 0.671669 0.434289
vt 0.716423 0.427511
vt 0.686837 0.506479
vt 0.746758 0.494885
vt 0.540415 0.297706
vt 0.540654 0.430139
vt 0.583785 0.435603
vt 0.626916 0.441068
vt 0.564071 0.507477
vt 0.626916 0.518074
vt 0.626916 0.561703
vt 0.689688 0.551775
vt 0.752460 0.541847
vt 0.501227 0.496880
vt 0.496276 0.543979
vt 0.561596 0.552841
vt 0.053820 0.911743
vt 0.053551 0.958288
vt 0.209422 0.958288
vt 0.209381 0.911743
vt 0.316980 0.911743
vt 0.318217 0.958288
vt 0.427012 0.958288
vt 0.076115 0.839494
vt 0.204547 0.808375
vt 0.277561 0.776999
vt 0.350575 0.745624
vt 0.424579 0.911743
vt 0.542376 0.903113
vt 0.549534 0.947845
vt 0.604070 0.883385
vt 0.613690 0.928634
vt 0.677846 0.909423
vt 0.434602 0.761801
vt 0.553916 0.822258
vt 0.584762 0.812393
vt 0.665763 0.863657
vt 0.565455 0.741402
vt 0.615609 0.802529
vt 0.513543 0.318049
vt 0.514190 0.392631
vt 0.403960 0.391520
vt 0.404281 0.303467
vt 0.300232 0.324148
vt 0.302952 0.400453
vt 0.215925 0.390282
vt 0.193303 0.306706
vt 0.156695 0.357999
vt 0.501386 0.041907
vt 0.402511 0.041907
vt 0.291568 0.041907
vt 0.186840 0.041907
vt 0.119458 0.303729
vt 0.098029 0.383968
vt 0.043436 0.318049
vt 0.011061 0.392631
vt 0.113775 0.041907
vt 0.027633 0.041907
vt 0.853907 0.584782
vt 0.929315 0.566656
vt 0.934861 0.643464
vt 0.852770 0.650379
vt 0.851632 0.715976
vt 0.940408 0.720272
vt 0.940169 0.852705
vt 0.767090 0.639255
vt 0.762341 0.717444
vt 0.809154 0.856855
vt 0.853907 0.863633
vt 0.897038 0.858169
vt 0.771839 0.561067
vt 0.764400 0.850076
vt 0.793986 0.929045
vt 0.853907 0.940639
vt 0.916752 0.930042
vt 0.979596 0.919446
vt 0.984547 0.966545
vt 0.919227 0.975407
vt 0.734065 0.917451
vt 0.728363 0.964413
vt 0.791135 0.974341
vt 0.853907 0.984268
vt 0.209422 0.958288
vt 0.053551 0.958288
vt 0.053820 0.911743
vt 0.209381 0.911743
vt 0.076115 0.839494
vt 0.204547 0.808375
vt 0.316980 0.911743
vt 0.277561 0.776999
vt 0.350575 0.745624
vt 0.318217 0.958288
vt 0.427012 0.958288
vt 0.424579 0.911743
vt 0.434602 0.761801
vt 0.553916 0.822258
vt 0.565455 0.741402
vt 0.584762 0.812393
vt 0.615609 0.802529
vt 0.542376 0.903113
vt 0.604070 0.883385
vt 0.665763 0.863657
vt 0.549534 0.947845
vt 0.613690 0.928634
vt 0.677846 0.909423
vn 0.1350 -0.0282 -0.9904
vn 0.1404 -0.0418 -0.9892
vn 0.0762 -0.0219 -0.9969
vn 0.1273 -0.0278 -0.9915
vn 0.0818 -0.0473 -0.9955
vn 0.0457 -0.0207 -0.9987
vn 0.0669 -0.0222 -0.9975
vn 0.0654 -0.0213 -0.9976
vn 0.0701 -0.0229 -0.9973
vn 0.0365 -0.0179 -0.9992
vn 0.1044 -0.0743 -0.9918
vn 0.0920 -0.1020 -0.9905
vn 0.0362 -0.0174 -0.9992
vn 0.0364 -0.0168 -0.9992
vn 0.0701 -0.0209 -0.9973
vn 0.0731 0.0215 -0.9971
vn 0.1390 0.0394 -0.9895
vn 0.1341 0.0270 -0.9906
vn 0.1236 0.0268 -0.9920
vn 0.0752 0.0492 -0.9960
vn 0.0978 0.0774 -0.9922
vn 0.0856 0.1068 -0.9906
vn 0.0497 0.0209 -0.9985
vn 0.0700 0.0198 -0.9974
vn 0.0692 0.0207 -0.9974
vn 0.0787 0.0220 -0.9967
vn 0.0363 0.0167 -0.9992
vn 0.0361 0.0174 -0.9992
vn 0.0364 0.0180 -0.9992
vn 0.0707 0.0231 -0.9972
vn -0.3453 0.9217 0.1770
vn -0.5908 0.7207 0.3626
vn -0.2060 0.9592 0.1935
vn -0.0829 0.9721 -0.2196
vn 0.0516 0.9848 0.1656
vn -0.0777 0.9968 0.0207
vn 0.0030 0.9560 0.2932
vn 0.0101 0.9723 0.2333
vn 0.0747 0.9062 0.4162
vn -0.2031 0.9330 -0.2971
vn -0.1438 0.7636 -0.6295
vn -0.1063 0.9074 -0.4065
vn -0.1421 0.9881 0.0584
vn 0.0302 0.9771 -0.2107
vn 0.1288 0.9844 -0.1195
vn 0.0324 0.8961 0.4426
vn 0.2171 0.7413 -0.6351
vn -0.5908 -0.7207 0.3626
vn -0.3449 -0.9218 0.1769
vn -0.2059 -0.9593 0.1933
vn -0.0850 -0.9749 -0.2057
vn -0.2041 -0.9374 -0.2823
vn -0.1511 -0.7842 -0.6018
vn -0.1125 -0.9230 -0.3679
vn -0.0784 -0.9958 0.0475
vn -0.1434 -0.9834 0.1114
vn 0.0515 -0.9849 0.1654
vn 0.0028 -0.9561 0.2929
vn 0.0037 -0.9727 0.2319
vn 0.0348 -0.9794 -0.1987
vn 0.0526 -0.9070 0.4179
vn 0.0181 -0.9195 0.3926
vn 0.1405 -0.9749 -0.1726
vn 0.2386 -0.6458 -0.7252
vn -0.9788 -0.0366 0.2015
vn -0.6291 -0.7352 0.2524
vn -0.6100 -0.7883 0.0811
vn -0.9658 -0.2587 0.0190
vn -0.6418 -0.7640 -0.0665
vn -0.9391 0.3427 0.0244
vn -0.3036 0.9435 0.1327
vn 0.0619 0.9977 -0.0292
vn -0.3135 0.9338 0.1726
vn 0.4754 0.8409 0.2587
vn 0.7794 0.6136 0.1264
vn 0.9422 0.3110 -0.1246
vn 0.8635 -0.5025 0.0428
vn 0.8228 -0.5528 -0.1320
vn 0.5286 -0.8435 -0.0956
vn 0.4504 -0.8915 0.0494
vn 0.9748 0.0013 0.2230
vn 0.5778 -0.8084 0.1127
vn 0.2088 -0.9776 -0.0248
vn 0.5386 0.3589 0.7623
vn 0.5390 0.4918 0.6838
vn 0.6717 0.0213 0.7405
vn 0.6158 0.0253 0.7875
vn 0.5288 -0.3312 0.7814
vn 0.5243 -0.4627 0.7148
vn 0.2583 0.0516 0.9647
vn 0.1824 -0.2573 0.9490
vn 0.4063 -0.2292 0.8845
vn 0.5204 -0.4633 0.7173
vn 0.9382 -0.3240 -0.1214
vn 0.8152 -0.5601 -0.1471
vn 0.2580 0.2425 0.9352
vn 0.3833 0.4299 0.8175
vn 0.5210 0.3287 0.7877
vn 0.5955 0.0750 0.7998
vn 0.8883 0.4366 -0.1425
vn 0.9873 0.1414 0.0727
vn 0.7294 0.0437 -0.6827
vn 0.6693 -0.2487 -0.7001
vn 0.5774 -0.4004 -0.7116
vn 0.8092 0.5869 0.0277
vn 0.7152 0.4070 -0.5681
vn 0.7536 0.2407 -0.6116
vn 0.1943 0.9554 -0.2223
vn 0.2100 0.7818 -0.5872
vn 0.0760 0.8155 -0.5738
vn 0.0752 0.9920 0.1017
vn -0.0629 0.9920 -0.1097
vn -0.0822 0.8536 -0.5143
vn -0.2081 0.8567 -0.4719
vn 0.1109 0.8381 0.5341
vn 0.0531 0.8929 0.4471
vn 0.0916 0.9465 0.3095
vn 0.0141 0.9783 0.2067
vn -0.2127 0.9719 -0.1008
vn -0.6140 0.7156 -0.3331
vn -0.6596 0.4666 -0.5892
vn -0.9087 0.0231 -0.4167
vn -0.7418 -0.0208 -0.6703
vn -0.6905 -0.2516 -0.6782
vn -0.2988 0.9355 0.1886
vn -0.7627 0.6358 0.1187
vn -0.9799 -0.1712 0.1028
vn -0.8885 -0.4106 -0.2048
vn -0.9351 0.1883 0.3001
vn -0.8170 -0.5487 0.1773
vn -0.6100 0.7883 0.0809
vn -0.6291 0.7353 0.2523
vn -0.9788 0.0366 0.2013
vn -0.9658 0.2587 0.0187
vn -0.3036 -0.9435 0.1326
vn -0.3136 -0.9338 0.1725
vn 0.4753 -0.8409 0.2588
vn 0.7794 -0.6136 0.1265
vn 0.9748 -0.0013 0.2232
vn -0.6417 0.7640 -0.0666
vn -0.9391 -0.3428 0.0242
vn 0.0619 -0.9977 -0.0292
vn 0.9422 -0.3110 -0.1245
vn 0.8635 0.5025 0.0430
vn 0.5777 0.8084 0.1128
vn 0.4503 0.8915 0.0495
vn 0.2088 0.9776 -0.0247
vn 0.8227 0.5529 -0.1319
vn 0.5286 0.8435 -0.0955
vn 0.6717 -0.0213 0.7405
vn 0.5390 -0.4918 0.6838
vn 0.5385 -0.3589 0.7623
vn 0.6158 -0.0253 0.7875
vn 0.2585 -0.0518 0.9646
vn 0.2580 -0.2427 0.9351
vn 0.3833 -0.4302 0.8173
vn 0.5288 0.3311 0.7815
vn 0.1869 0.2714 0.9441
vn 0.4036 0.2481 0.8807
vn 0.5957 -0.0750 0.7997
vn 0.5211 -0.3288 0.7876
vn 0.5243 0.4627 0.7149
vn 0.5012 0.4835 0.7176
vn 0.9364 0.3260 -0.1298
vn 0.9881 -0.1415 0.0601
vn 0.8848 -0.4330 -0.1724
vn 0.8110 -0.5850 -0.0011
vn 0.6914 -0.3858 -0.6109
vn 0.7260 -0.2249 -0.6499
vn 0.8171 0.5651 -0.1140
vn 0.5792 0.3790 -0.7217
vn 0.6504 0.2207 -0.7268
vn 0.7014 -0.0399 -0.7116
vn 0.0717 -0.8220 -0.5649
vn 0.2023 -0.7611 -0.6162
vn 0.1942 -0.9454 -0.2617
vn 0.0743 -0.9915 0.1066
vn 0.1110 -0.8382 0.5339
vn 0.0531 -0.8931 0.4467
vn -0.0700 -0.9942 -0.0811
vn 0.0915 -0.9466 0.3093
vn 0.0141 -0.9783 0.2066
vn -0.1133 -0.8912 -0.4393
vn -0.2152 -0.8518 -0.4777
vn -0.2110 -0.9706 -0.1156
vn -0.2988 -0.9355 0.1885
vn -0.7627 -0.6358 0.1187
vn -0.9351 -0.1883 0.3001
vn -0.9799 0.1712 0.1027
vn -0.8170 0.5487 0.1773
vn -0.6026 -0.7069 -0.3704
vn -0.8907 -0.0233 -0.4539
vn -0.8835 0.4107 -0.2252
vn -0.6192 -0.4475 -0.6452
vn -0.6955 0.0214 -0.7182
vn -0.6476 0.2396 -0.7233
usemtl m0.008
s 1
f 1/1/1 2/2/2 3/3/3
f 1/1/1 3/3/3 4/4/4
f 3/3/3 5/5/5 4/4/4
f 6/6/6 5/5/5 3/3/3
f 3/3/3 7/7/7 6/6/6
f 8/8/8 6/6/6 7/7/7
f 8/8/8 7/7/7 9/9/9
f 8/8/8 9/9/9 10/10/10
f 11/11/11 4/4/4 5/5/5
f 12/12/12 11/11/11 5/5/5
f 10/10/10 13/13/13 8/8/8
f 8/8/8 13/13/13 14/14/14
f 14/14/14 15/15/15 8/8/8
f 8/8/8 15/15/15 6/6/6
f 16/16/16 17/17/17 18/18/18
f 16/16/16 18/18/18 19/19/19
f 16/16/16 19/19/19 20/20/20
f 19/19/19 21/21/21 20/20/20
f 21/21/21 22/22/22 20/20/20
f 16/16/16 20/20/20 23/23/23
f 23/23/23 24/24/24 16/16/16
f 24/24/24 23/23/23 25/25/25
f 23/23/23 26/26/26 25/25/25
f 25/25/25 26/26/26 27/27/27
f 27/27/27 28/28/28 25/25/25
f 25/25/25 28/28/28 29/29/29
f 29/29/29 30/30/30 25/25/25
f 24/24/24 25/25/25 30/30/30
f 31/31/31 32/32/32 33/33/33
f 34/34/34 31/31/31 33/33/33
f 35/35/35 34/34/34 33/33/33
f 35/35/35 36/36/36 34/34/34
f 35/35/35 37/37/37 36/36/36
f 38/38/38 36/36/36 37/37/37
f 37/37/37 39/39/39 38/38/38
f 34/34/34 40/40/40 31/31/31
f 41/41/41 40/40/40 34/34/34
f 34/34/34 42/42/42 41/41/41
f 42/42/42 34/34/34 36/36/36
f 36/36/36 43/43/43 42/42/42
f 44/44/44 43/43/43 36/36/36
f 36/36/36 38/38/38 44/44/44
f 44/44/44 38/38/38 45/45/45
f 46/46/46 45/45/45 38/38/38
f 38/38/38 39/39/39 46/46/46
f 45/45/45 47/47/47 44/44/44
f 48/48/48 49/49/49 50/50/50
f 49/49/49 51/51/51 50/50/50
f 49/49/49 52/52/52 51/51/51
f 51/51/51 52/52/52 53/53/53
f 53/53/53 54/54/54 51/51/51
f 55/55/55 51/51/51 54/54/54
f 54/54/54 56/56/56 55/55/55
f 51/51/51 57/57/57 50/50/50
f 55/55/55 57/57/57 51/51/51
f 55/55/55 58/58/58 57/57/57
f 58/58/58 55/55/55 59/59/59
f 60/60/60 59/59/59 55/55/55
f 55/55/55 56/56/56 60/60/60
f 59/59/59 61/61/61 58/58/58
f 62/62/62 61/61/61 59/59/59
f 59/59/59 63/63/63 62/62/62
f 63/63/63 59/59/59 60/60/60
f 60/60/60 64/64/64 63/63/63
f 65/65/65 66/66/66 67/67/67
f 67/67/67 68/68/68 65/65/65
f 68/68/68 67/67/67 69/69/69
f 69/69/69 70/70/70 68/68/68
f 71/71/71 68/68/68 70/70/70
f 70/70/70 72/72/72 71/71/71
f 65/65/65 68/68/68 71/71/71
f 71/71/71 73/73/73 65/65/65
f 71/71/71 74/74/74 73/73/73
f 75/75/75 74/74/74 71/71/71
f 75/75/75 71/71/71 72/72/72
f 72/72/72 76/76/76 75/75/75
f 77/77/77 75/75/75 76/76/76
f 76/76/76 78/78/78 77/77/77
f 77/77/77 78/78/78 79/79/79
f 79/79/79 80/80/80 77/77/77
f 81/81/81 74/74/74 75/75/75
f 81/81/81 75/75/75 77/77/77
f 77/77/77 82/82/82 81/81/81
f 80/80/80 82/82/82 77/77/77
f 83/83/83 82/82/82 80/80/80
f 84/84/84 85/85/85 86/86/86
f 86/86/86 87/87/87 84/84/84
f 88/88/88 87/87/87 86/86/86
f 86/86/86 89/89/89 88/88/88
f 84/84/84 87/87/87 90/90/90
f 90/90/90 87/87/87 88/88/88
f 88/88/88 91/91/91 90/90/90
f 92/92/92 90/90/90 91/91/91
f 93/93/93 92/92/92 91/91/91
f 94/94/94 92/92/92 93/93/93
f 93/93/93 95/95/95 94/94/94
f 90/90/90 96/96/96 84/84/84
f 97/97/97 96/96/96 90/90/90
f 98/98/98 97/97/97 90/90/90
f 99/99/99 98/98/98 90/90/90
f 92/92/92 99/99/99 90/90/90
f 99/99/99 92/92/92 94/94/94
f 97/97/97 98/98/98 100/100/100
f 101/101/101 100/100/100 98/98/98
f 98/98/98 99/99/99 101/101/101
f 94/94/94 101/101/101 99/99/99
f 102/102/102 101/101/101 94/94/94
f 94/94/94 103/103/103 102/102/102
f 104/104/104 103/103/103 94/94/94
f 94/94/94 95/95/95 104/104/104
f 100/100/100 105/105/105 97/97/97
f 106/106/106 105/105/105 100/100/100
f 100/100/100 107/107/107 106/106/106
f 102/102/102 107/107/107 100/100/100
f 100/100/100 101/101/101 102/102/102
f 108/108/108 109/109/109 110/110/110
f 110/110/110 111/111/111 108/108/108
f 112/112/112 111/111/111 110/110/110
f 110/110/110 113/113/113 112/112/112
f 112/112/112 113/113/113 114/114/114
f 115/115/115 108/108/108 111/111/111
f 111/111/111 116/116/116 115/115/115
f 116/116/116 111/111/111 112/112/112
f 112/112/112 117/117/117 116/116/116
f 118/118/118 117/117/117 112/112/112
f 112/112/112 119/119/119 118/118/118
f 114/114/114 119/119/119 112/112/112
f 120/120/120 119/119/119 114/114/114
f 114/114/114 121/121/121 120/120/120
f 122/122/122 120/120/120 121/121/121
f 121/121/121 123/123/123 122/122/122
f 122/122/122 123/123/123 124/124/124
f 125/125/125 118/118/118 119/119/119
f 119/119/119 126/126/126 125/125/125
f 119/119/119 120/120/120 126/126/126
f 126/126/126 120/120/120 122/122/122
f 122/122/122 127/127/127 126/126/126
f 127/127/127 122/122/122 128/128/128
f 124/124/124 128/128/128 122/122/122
f 126/126/126 129/129/129 125/125/125
f 126/126/126 127/127/127 129/129/129
f 127/127/127 130/130/130 129/129/129
f 127/127/127 128/128/128 130/130/130
f 131/131/131 132/132/132 133/133/133
f 133/133/133 134/134/134 131/131/131
f 135/135/135 134/134/134 133/133/133
f 133/133/133 136/136/136 135/135/135
f 137/137/137 135/135/135 136/136/136
f 137/137/137 138/138/138 135/135/135
f 137/137/137 139/139/139 138/138/138
f 140/140/140 131/131/131 134/134/134
f 134/134/134 141/141/141 140/140/140
f 141/141/141 134/134/134 135/135/135
f 135/135/135 142/142/142 141/141/141
f 142/142/142 135/135/135 138/138/138
f 138/138/138 143/143/143 142/142/142
f 143/143/143 138/138/138 144/144/144
f 138/138/138 139/139/139 144/144/144
f 145/145/145 144/144/144 139/139/139
f 145/145/145 146/146/146 144/144/144
f 145/145/145 147/147/147 146/146/146
f 144/144/144 148/148/148 143/143/143
f 149/149/149 148/148/148 144/144/144
f 144/144/144 146/146/146 149/149/149
f 150/150/150 151/151/151 152/152/152
f 152/152/152 153/153/153 150/150/150
f 154/154/154 153/153/153 152/152/152
f 152/152/152 155/155/155 154/154/154
f 155/155/155 156/156/156 154/154/154
f 150/150/150 153/153/153 157/157/157
f 157/157/157 153/153/153 154/154/154
f 154/154/154 158/158/158 157/157/157
f 154/154/154 159/159/159 158/158/158
f 154/154/154 160/160/160 159/159/159
f 161/161/161 160/160/160 154/154/154
f 156/156/156 161/161/161 154/154/154
f 157/157/157 162/162/162 150/150/150
f 159/159/159 163/163/163 158/158/158
f 163/163/163 159/159/159 164/164/164
f 164/164/164 159/159/159 160/160/160
f 160/160/160 165/165/165 164/164/164
f 165/165/165 160/160/160 161/161/161
f 161/161/161 166/166/166 165/165/165
f 166/166/166 161/161/161 156/156/156
f 156/156/156 167/167/167 166/166/166
f 166/166/166 167/167/167 168/168/168
f 168/168/168 169/169/169 166/166/166
f 164/164/164 170/170/170 163/163/163
f 171/171/171 170/170/170 164/164/164
f 164/164/164 172/172/172 171/171/171
f 173/173/173 172/172/172 164/164/164
f 164/164/164 165/165/165 173/173/173
f 173/173/173 165/165/165 166/166/166
f 166/166/166 169/169/169 173/173/173
f 174/174/174 175/175/175 176/176/176
f 176/176/176 177/177/177 174/174/174
f 177/177/177 176/176/176 178/178/178
f 178/178/178 179/179/179 177/177/177
f 180/180/180 177/177/177 179/179/179
f 179/179/179 181/181/181 180/180/180
f 180/180/180 181/181/181 182/182/182
f 174/174/174 177/177/177 180/180/180
f 180/180/180 183/183/183 174/174/174
f 184/184/184 183/183/183 180/180/180
f 180/180/180 185/185/185 184/184/184
f 182/182/182 185/185/185 180/180/180
f 182/182/182 186/186/186 185/185/185
f 187/187/187 185/185/185 186/186/186
f 188/188/188 187/187/187 186/186/186
f 189/189/189 187/187/187 188/188/188
f 190/190/190 189/189/189 188/188/188
f 184/184/184 185/185/185 191/191/191
f 187/187/187 191/191/191 185/185/185
f 192/192/192 191/191/191 187/187/187
f 187/187/187 189/189/189 192/192/192
f 189/189/189 193/193/193 192/192/192
f 189/189/189 190/190/190 193/193/193
f 191/191/191 194/194/194 184/184/184
f 194/194/194 191/191/191 192/192/192
f 192/192/192 195/195/195 194/194/194
f 196/196/196 195/195/195 192/192/192
f 192/192/192 193/193/193 196/196/196
