mtllib rg_downbody_005_2.mtl

g rg_downbody_005_2
v -14.020731 11.396076 10.295102
vn -0.648776 0.001195 -0.230561
v -7.608567 4.346358 13.169371
vn -0.536662 -0.687558 -0.489140
v -7.995648 2.894704 15.634569
vn -0.640274 -0.681601 -0.252955
v -15.739559 11.052865 14.322813
vn -0.683280 0.009580 -0.052544
v -7.836685 18.293228 18.220520
vn -0.170106 0.813996 0.037061
v -8.008843 18.885033 13.224658
vn -0.047264 0.817748 0.144991
v 2.470962 14.404632 17.581551
vn 0.651715 0.525116 0.177985
v 3.061769 15.278558 13.464979
vn 0.632801 0.547945 0.207145
v 4.184369 8.904017 13.477106
vn 0.757878 -0.209255 0.049352
v -7.237867 3.723432 32.189541
vn -0.693365 -0.718422 0.020848
v -14.241946 10.137853 33.704273
vn -0.725302 -0.023844 0.065129
v -8.244699 17.037987 32.976509
vn -0.293015 0.781226 0.077323
v -0.341995 14.015483 32.957718
vn 0.626657 0.614206 0.090574
v 3.512666 7.718396 16.072811
vn 0.664804 -0.365817 -0.010745
v -7.608567 4.346358 13.169371
vn 0.356189 -0.854946 -0.371404
v -7.995648 2.894704 15.634569
vn 0.405070 -0.876549 -0.108719
v -7.458737 3.547023 44.858231
vn -0.720065 -0.688286 0.031198
v -12.517886 9.830079 46.929352
vn -0.754592 0.006857 0.098530
v -7.307631 15.876545 46.295502
vn -0.181280 0.788668 0.091429
v -0.000553 12.613389 45.975288
vn 0.787164 0.445516 0.037618
v 1.144010 8.196602 32.692680
vn 0.667596 -0.416613 0.031425
v -7.237867 3.723432 32.189541
vn 0.470323 -0.882344 0.009306
v -7.458737 3.547023 44.858231
vn 0.453352 -0.890754 -0.019856
v 0.937149 7.591062 45.444534
vn 0.709439 -0.359208 -0.005549
v -0.166267 13.575237 31.419851
vn 0.973872 0.146145 0.173824
v 0.805089 13.974505 25.642025
vn 0.973872 0.146145 0.173824
v -0.714580 23.612881 26.052584
vn 0.973872 0.146145 0.173824
v -1.685937 23.213615 31.830406
vn 0.973872 0.146145 0.173825
v -0.435796 13.521459 45.555981
vn 0.743390 0.668448 0.023430
v 0.426073 12.764843 39.796562
vn 0.743390 0.668448 0.023431
v -5.946858 19.918636 37.903095
vn 0.743390 0.668448 0.023430
v -6.808728 20.675255 43.662518
vn 0.743390 0.668448 0.023430
v -7.996764 -6.573853 15.634649
vn -0.631871 0.697634 -0.218749
v -7.609801 -8.025508 13.169449
vn -0.477903 0.722075 -0.500217
v -13.941327 -14.272006 10.201560
vn -0.634767 0.020973 -0.238593
v -15.740772 -14.731976 14.323290
vn -0.678532 -0.007730 -0.055263
v -7.234436 -7.402556 32.189636
vn -0.693358 0.718422 0.020988
v -14.238420 -13.816932 33.705009
vn -0.725291 0.023850 0.065230
v -7.454149 -7.226150 44.858337
vn -0.720058 0.688291 0.031264
v -12.513151 -13.509177 46.929916
vn -0.754583 -0.006852 0.098599
v -7.302992 -19.555676 46.295593
vn -0.181277 -0.788667 0.091445
v -7.837753 -21.972374 18.220676
vn -0.164975 -0.807232 0.014634
v -8.241282 -20.717108 32.976692
vn -0.293018 -0.781216 0.077385
v -0.338562 -17.694654 32.957172
vn 0.626668 -0.614222 0.090445
v 0.004078 -16.292566 45.974731
vn 0.787164 -0.445521 0.037546
v 1.147458 -11.875782 32.692009
vn 0.667605 0.416607 0.031318
v 0.941765 -11.270245 45.443882
vn 0.709441 0.359203 -0.005614
v -8.010141 -22.564180 13.224840
vn -0.057668 -0.803379 0.143651
v 2.469887 -18.083828 17.581207
vn 0.651726 -0.525129 0.177903
v 3.060503 -18.957756 13.464622
vn 0.632809 -0.547947 0.207117
v 4.183133 -12.583220 13.476660
vn 0.757882 0.209252 0.049318
v 3.511553 -11.397596 16.072392
vn 0.664816 0.365803 -0.010864
v -7.996764 -6.573853 15.634649
vn 0.405073 0.876548 -0.108803
v -7.234436 -7.402556 32.189636
vn 0.470332 0.882340 0.009219
v -7.454149 -7.226150 44.858337
vn 0.453356 0.890751 -0.019897
v -7.609801 -8.025508 13.169449
vn 0.356176 0.854943 -0.371421
v 0.206390 -14.448524 34.467529
vn 0.985262 -0.067993 0.156955
v -0.198004 -24.069260 32.838337
vn 0.985262 -0.067993 0.156955
v 0.776608 -23.142206 27.121969
vn 0.985262 -0.067993 0.156955
v 1.181002 -13.521472 28.751152
vn 0.985262 -0.067993 0.156955
v 0.640259 -13.200880 44.873356
vn 0.999075 -0.035553 -0.024193
v 0.292700 -22.960762 44.863190
vn 0.999075 -0.035553 -0.024193
v 0.150931 -22.949600 38.992413
vn 0.999075 -0.035553 -0.024193
v 0.498491 -13.189716 39.002575
vn 0.999075 -0.035553 -0.024193
vt 0.821040 0.020471 0.000000
vt 0.875640 0.020471 0.000000
vt 0.883203 0.102900 0.000000
vt 0.821549 0.108510 0.000000
vt 0.766755 0.105494 0.000000
vt 0.769203 0.020471 0.000000
vt 0.706789 0.105881 0.000000
vt 0.710507 0.020471 0.000000
vt 0.671625 0.020471 0.000000
vt 0.890765 0.271171 0.000000
vt 0.822058 0.282393 0.000000
vt 0.764307 0.276359 0.000000
vt 0.703071 0.277135 0.000000
vt 0.665953 0.104927 0.000000
vt 0.612914 0.020471 0.000000
vt 0.603418 0.100751 0.000000
vt 0.905890 0.384522 0.000000
vt 0.823077 0.406966 0.000000
vt 0.759412 0.394899 0.000000
vt 0.695634 0.396450 0.000000
vt 0.660281 0.275226 0.000000
vt 0.593923 0.266874 0.000000
vt 0.574932 0.375929 0.000000
vt 0.648937 0.392633 0.000000
vt 0.003149 0.424264 0.000000
vt 0.003149 0.325900 0.000000
vt 0.161723 0.325900 0.000000
vt 0.161723 0.424264 0.000000
vt 0.003149 0.319171 0.000000
vt 0.003149 0.220807 0.000000
vt 0.161723 0.220807 0.000000
vt 0.161723 0.319171 0.000000
vt 0.196136 0.102900 0.000000
vt 0.203699 0.020471 0.000000
vt 0.258299 0.020471 0.000000
vt 0.257790 0.108510 0.000000
vt 0.188573 0.271171 0.000000
vt 0.257280 0.282393 0.000000
vt 0.173448 0.384522 0.000000
vt 0.256262 0.406966 0.000000
vt 0.319927 0.394899 0.000000
vt 0.312583 0.105494 0.000000
vt 0.315031 0.276359 0.000000
vt 0.376268 0.277135 0.000000
vt 0.383704 0.396450 0.000000
vt 0.419058 0.275226 0.000000
vt 0.430402 0.392633 0.000000
vt 0.310136 0.020471 0.000000
vt 0.372550 0.105881 0.000000
vt 0.368832 0.020471 0.000000
vt 0.407714 0.020471 0.000000
vt 0.413386 0.104927 0.000000
vt 0.475920 0.100751 0.000000
vt 0.485416 0.266874 0.000000
vt 0.504407 0.375929 0.000000
vt 0.466425 0.020471 0.000000
vt 0.003149 0.424264 0.000000
vt 0.161723 0.424264 0.000000
vt 0.161723 0.325900 0.000000
vt 0.003149 0.325900 0.000000
vt 0.003149 0.319171 0.000000
vt 0.161723 0.319171 0.000000
vt 0.161723 0.220807 0.000000
vt 0.003149 0.220807 0.000000
usemtl Material_0
f 1/1/1 2/2/2 3/3/3
f 3/3/3 4/4/4 1/1/1
f 1/1/1 4/4/4 5/5/5
f 5/5/5 6/6/6 1/1/1
f 6/6/6 5/5/5 7/7/7
f 7/7/7 8/8/8 6/6/6
f 9/9/9 8/8/8 7/7/7
f 4/4/4 3/3/3 10/10/10
f 10/10/10 11/11/11 4/4/4
f 4/4/4 11/11/11 12/12/12
f 12/12/12 5/5/5 4/4/4
f 5/5/5 12/12/12 13/13/13
f 13/13/13 7/7/7 5/5/5
f 14/14/14 7/7/7 13/13/13
f 7/7/7 14/14/14 9/9/9
f 15/15/15 9/9/9 14/14/14
f 14/14/14 16/16/16 15/15/15
f 11/11/11 10/10/10 17/17/17
f 17/17/17 18/18/18 11/11/11
f 11/11/11 18/18/18 19/19/19
f 19/19/19 12/12/12 11/11/11
f 13/13/13 12/12/12 19/19/19
f 19/19/19 20/20/20 13/13/13
f 21/21/21 13/13/13 20/20/20
f 13/13/13 21/21/21 14/14/14
f 16/16/16 14/14/14 21/21/21
f 21/21/21 22/22/22 16/16/16
f 23/23/23 22/22/22 21/21/21
f 21/21/21 24/24/24 23/23/23
f 20/20/20 24/24/24 21/21/21
f 25/25/25 26/26/26 27/27/27
f 27/27/27 28/28/28 25/25/25
f 29/29/29 30/30/30 31/31/31
f 31/31/31 32/32/32 29/29/29
f 33/33/33 34/34/34 35/35/35
f 35/35/35 36/36/36 33/33/33
f 37/37/37 33/33/33 36/36/36
f 36/36/36 38/38/38 37/37/37
f 39/39/39 37/37/37 38/38/38
f 38/38/38 40/40/40 39/39/39
f 41/41/41 40/40/40 38/38/38
f 42/42/42 36/36/36 35/35/35
f 36/36/36 42/42/42 43/43/43
f 43/43/43 38/38/38 36/36/36
f 38/38/38 43/43/43 41/41/41
f 41/41/41 43/43/43 44/44/44
f 44/44/44 45/45/45 41/41/41
f 45/45/45 44/44/44 46/46/46
f 46/46/46 47/47/47 45/45/45
f 35/35/35 48/48/48 42/42/42
f 49/49/49 42/42/42 48/48/48
f 42/42/42 49/49/49 44/44/44
f 44/44/44 43/43/43 42/42/42
f 48/48/48 50/50/50 49/49/49
f 49/49/49 50/50/50 51/51/51
f 51/51/51 52/52/52 49/49/49
f 44/44/44 49/49/49 52/52/52
f 52/52/52 46/46/46 44/44/44
f 46/46/46 52/52/52 53/53/53
f 53/53/53 54/54/54 46/46/46
f 46/46/46 54/54/54 55/55/55
f 55/55/55 47/47/47 46/46/46
f 52/52/52 51/51/51 56/56/56
f 56/56/56 53/53/53 52/52/52
f 57/57/57 58/58/58 59/59/59
f 59/59/59 60/60/60 57/57/57
f 61/61/61 62/62/62 63/63/63
f 63/63/63 64/64/64 61/61/61
