mtllib rg_downbody_002_2.mtl

g rg_downbody_002_2
v 1.818399 7.483484 45.410114
vn 0.736898 -0.301618 -0.016097
v -7.025061 2.879358 44.796310
vn 0.462378 -0.886611 -0.011327
v -5.999061 3.763735 17.455881
vn 0.509528 -0.858051 -0.028313
v 1.771383 8.917725 18.569410
vn 0.751601 -0.253617 -0.014869
v -0.170947 14.607558 18.881844
vn 0.651699 0.597015 0.013488
v 0.784762 12.974728 46.004524
vn 0.680379 0.555953 0.009495
v -7.465380 16.339783 46.326046
vn -0.207003 0.797925 0.035481
v -8.225007 17.151241 18.154207
vn -0.225988 0.806237 0.029316
v -14.859665 9.623219 17.438646
vn -0.700566 -0.046267 0.020501
v -13.078913 9.825316 47.008972
vn -0.749935 -0.005220 0.045197
v -7.025061 2.879358 44.796310
vn -0.647996 -0.749171 0.000895
v -5.999061 3.763735 17.455881
vn -0.550905 -0.833208 -0.047625
v -5.996962 -7.442863 17.455860
vn 0.509531 0.858048 -0.028360
v -7.020466 -6.558487 44.796391
vn 0.462382 0.886608 -0.011369
v 1.823025 -11.162672 45.409386
vn 0.736898 0.301613 -0.016164
v 1.773552 -12.596902 18.568684
vn 0.751601 0.253612 -0.014937
v -0.168786 -18.286726 18.881296
vn 0.651696 -0.597019 0.013428
v 0.789406 -16.653910 46.003902
vn 0.680376 -0.555957 0.009433
v -7.460731 -20.018911 46.326149
vn -0.207005 -0.797924 0.035500
v -8.222932 -20.830355 18.154377
vn -0.225991 -0.806236 0.029337
v -14.857614 -13.302288 17.439421
vn -0.700563 0.046272 0.020564
v -13.074168 -13.504410 47.009590
vn -0.749930 0.005224 0.045266
v -7.020466 -6.558487 44.796391
vn -0.647991 0.749175 0.000954
v -5.996962 -7.442863 17.455860
vn -0.550903 0.833212 -0.047575
v 1.771383 8.917725 18.569410
vn 0.283815 0.012870 -0.944860
v -5.999061 3.763735 17.455881
vn 0.084506 -0.118309 -0.978121
v -4.775380 11.409213 16.636843
vn 0.118032 0.095769 -0.954214
v -14.859665 9.623219 17.438646
vn -0.086618 0.047160 -0.984346
v -8.225007 17.151241 18.154207
vn 0.042212 0.274810 -0.943973
v -0.170947 14.607558 18.881844
vn 0.266246 0.262315 -0.919771
v -14.857614 -13.302288 17.439421
vn -0.086707 -0.047158 -0.984338
v -4.773404 -15.088348 16.636705
vn 0.117946 -0.095770 -0.954225
v -8.222932 -20.830355 18.154377
vn 0.042126 -0.274810 -0.943977
v -5.996962 -7.442863 17.455860
vn 0.084419 0.118309 -0.978128
v 1.773552 -12.596902 18.568684
vn 0.283730 -0.012872 -0.944885
v -0.168786 -18.286726 18.881296
vn 0.266162 -0.262317 -0.919795
vt 0.603582 0.314140 0.000000
vt 0.520325 0.305691 0.000000
vt 0.534771 0.063854 0.000000
vt 0.611907 0.069322 0.000000
vt 0.659844 0.068975 0.000000
vt 0.652006 0.318104 0.000000
vt 0.732920 0.318026 0.000000
vt 0.747797 0.063142 0.000000
vt 0.832029 0.060531 0.000000
vt 0.813416 0.330645 0.000000
vt 0.901833 0.305691 0.000000
vt 0.920566 0.067846 0.000000
vt 0.465687 0.063854 0.000000
vt 0.480133 0.305691 0.000000
vt 0.396876 0.314140 0.000000
vt 0.388551 0.069322 0.000000
vt 0.340614 0.068975 0.000000
vt 0.348452 0.318104 0.000000
vt 0.267538 0.318026 0.000000
vt 0.252661 0.063142 0.000000
vt 0.168429 0.060531 0.000000
vt 0.187042 0.330645 0.000000
vt 0.098624 0.305691 0.000000
vt 0.079891 0.067846 0.000000
vt 0.982145 0.863280 0.000000
vt 0.995403 0.936504 0.000000
vt 0.936207 0.905234 0.000000
vt 0.914195 0.976801 0.000000
vt 0.879443 0.909430 0.000000
vt 0.926606 0.859065 0.000000
vt 0.914195 0.976801 0.000000
vt 0.936207 0.905234 0.000000
vt 0.879443 0.909430 0.000000
vt 0.995403 0.936504 0.000000
vt 0.982145 0.863280 0.000000
vt 0.926606 0.859065 0.000000
usemtl Material_0
f 1/1/1 2/2/2 3/3/3
f 3/3/3 4/4/4 1/1/1
f 1/1/1 4/4/4 5/5/5
f 5/5/5 6/6/6 1/1/1
f 7/7/7 6/6/6 5/5/5
f 5/5/5 8/8/8 7/7/7
f 7/7/7 8/8/8 9/9/9
f 9/9/9 10/10/10 7/7/7
f 11/11/11 10/10/10 9/9/9
f 9/9/9 12/12/12 11/11/11
f 13/13/13 14/14/14 15/15/15
f 15/15/15 16/16/16 13/13/13
f 17/17/17 16/16/16 15/15/15
f 15/15/15 18/18/18 17/17/17
f 17/17/17 18/18/18 19/19/19
f 19/19/19 20/20/20 17/17/17
f 21/21/21 20/20/20 19/19/19
f 19/19/19 22/22/22 21/21/21
f 21/21/21 22/22/22 23/23/23
f 23/23/23 24/24/24 21/21/21
f 25/25/25 26/26/26 27/27/27
f 26/26/26 28/28/28 27/27/27
f 28/28/28 29/29/29 27/27/27
f 29/29/29 30/30/30 27/27/27
f 30/30/30 25/25/25 27/27/27
f 31/31/31 32/32/32 33/33/33
f 34/34/34 32/32/32 31/31/31
f 35/35/35 32/32/32 34/34/34
f 36/36/36 32/32/32 35/35/35
f 33/33/33 32/32/32 36/36/36
