mtllib ka_face_001.mtl

g ka_face_001
v 15.084204 -0.039702 161.331390
vn 0.615724 -0.000001 -0.570300
v 16.129353 -3.062152 165.048325
vn 0.654691 -0.546420 -0.447254
v 12.829090 -3.516865 163.233383
vn 0.428755 -0.674771 -0.599276
v 17.003611 -0.039694 164.361435
vn 0.796482 -0.000002 -0.497605
v 19.827097 -0.039699 168.944138
vn 0.763552 -0.000001 -0.337256
v 17.615543 -3.060030 169.731003
vn 0.703895 -0.622986 -0.039892
v 13.938232 -6.426401 167.534500
vn 0.562895 -0.703225 -0.378292
v 9.589448 -8.347480 166.580704
vn 0.400159 -0.788355 -0.449337
v 16.129360 2.982765 165.048309
vn 0.654689 0.546418 -0.447256
v 17.615553 2.980638 169.731003
vn 0.703896 0.622984 -0.039892
v 21.037540 -0.039701 172.130325
vn 0.559461 -0.000000 0.232971
v 15.991153 -2.166310 173.864761
vn 0.735502 -0.543989 0.274973
v 14.979078 -6.696218 171.172104
vn 0.746539 -0.566183 0.111489
v 12.829097 3.437466 163.233398
vn 0.428750 0.674771 -0.599281
v 13.938250 6.347019 167.534500
vn 0.562894 0.703223 -0.378294
v 14.979096 6.616833 171.172104
vn 0.746541 0.566181 0.111489
v 15.991158 2.086920 173.864746
vn 0.735503 0.543987 0.274974
v 18.012203 -0.039697 174.445923
vn 0.570164 0.000000 0.439357
v 9.589469 8.268087 166.580719
vn 0.400156 0.788355 -0.449340
v 11.057563 10.417677 172.726471
vn 0.522428 0.779035 -0.139583
v 13.360239 6.934043 174.627304
vn 0.817392 0.533006 0.109792
v 15.014421 3.919752 177.523926
vn 0.872799 0.446862 -0.116173
v 16.056425 1.202221 177.327942
vn 0.877128 0.424873 -0.081953
v 16.922199 -0.039697 177.264008
vn 0.765120 -0.000001 0.096528
v 6.612738 11.836359 172.147171
vn 0.324684 0.890010 -0.311622
v 6.146242 13.120005 176.362442
vn 0.389753 0.904344 -0.162601
v 9.939676 11.355433 176.093735
vn 0.637364 0.725788 -0.064354
v 12.678121 8.254984 178.752747
vn 0.803590 0.569684 -0.126138
v 13.914021 7.917072 182.176590
vn 0.789705 0.583422 -0.071710
v 16.428682 3.290158 181.227127
vn 0.899076 0.376544 -0.137034
v 17.367653 -0.039698 181.050797
vn 0.919906 -0.000001 -0.036779
v 9.925549 11.958826 179.852386
vn 0.591509 0.768196 -0.105586
v 10.352782 11.713833 183.334595
vn 0.574767 0.796097 0.053665
v 11.032693 10.559475 186.517761
vn 0.668481 0.709536 0.143755
v 15.717925 4.594693 186.570679
vn 0.897455 0.389364 0.082228
v 6.811950 13.584387 180.987869
vn 0.445837 0.890579 -0.043001
v 7.763192 13.040279 184.017593
vn 0.473695 0.868443 0.109417
v 16.668350 -0.039698 186.598297
vn 0.972085 -0.000001 0.122538
v 15.717910 -4.674088 186.570694
vn 0.897454 -0.389367 0.082228
v 16.428675 -3.369551 181.227127
vn 0.899075 -0.376547 -0.137035
v 16.056421 -1.281613 177.327957
vn 0.877126 -0.424875 -0.081953
v 15.014411 -3.999140 177.523941
vn 0.872798 -0.446865 -0.116173
v 13.360220 -7.013426 174.627304
vn 0.817390 -0.533008 0.109791
v 13.914001 -7.996460 182.176605
vn 0.789703 -0.583424 -0.071710
v 11.032665 -10.638857 186.517761
vn 0.668479 -0.709537 0.143755
v 10.352754 -11.793213 183.334595
vn 0.574764 -0.796098 0.053665
v 9.925517 -12.038202 179.852386
vn 0.591507 -0.768198 -0.105587
v 12.678100 -8.334368 178.752747
vn 0.803589 -0.569686 -0.126138
v 9.939647 -11.434809 176.093735
vn 0.637361 -0.725790 -0.064354
v 11.057536 -10.497053 172.726471
vn 0.522428 -0.779036 -0.139581
v 7.763154 -13.119649 184.017609
vn 0.473691 -0.868445 0.109418
v 6.811914 -13.663755 180.987869
vn 0.445834 -0.890581 -0.043002
v 6.146208 -13.199368 176.362473
vn 0.389751 -0.904346 -0.162600
v 6.612710 -11.915745 172.147156
vn 0.324686 -0.890011 -0.311617
vt 0.499827 0.060269 0.000000
vt 0.411055 0.205566 0.000000
vt 0.376182 0.146958 0.000000
vt 0.499827 0.183678 0.000000
vt 0.499827 0.312135 0.000000
vt 0.412130 0.348066 0.000000
vt 0.297442 0.297197 0.000000
vt 0.180440 0.271728 0.000000
vt 0.588599 0.205566 0.000000
vt 0.587524 0.348066 0.000000
vt 0.499827 0.387531 0.000000
vt 0.436618 0.474975 0.000000
vt 0.305993 0.400354 0.000000
vt 0.623472 0.146958 0.000000
vt 0.702212 0.297197 0.000000
vt 0.693661 0.400354 0.000000
vt 0.562979 0.475143 0.000000
vt 0.499827 0.479796 0.000000
vt 0.819214 0.271728 0.000000
vt 0.816751 0.453599 0.000000
vt 0.704618 0.498700 0.000000
vt 0.616780 0.578761 0.000000
vt 0.536377 0.571929 0.000000
vt 0.499827 0.570040 0.000000
vt 0.928453 0.448044 0.000000
vt 0.955992 0.582401 0.000000
vt 0.848615 0.558127 0.000000
vt 0.741971 0.625689 0.000000
vt 0.733011 0.721200 0.000000
vt 0.600053 0.686952 0.000000
vt 0.499827 0.680194 0.000000
vt 0.860526 0.669172 0.000000
vt 0.856853 0.757386 0.000000
vt 0.825964 0.841961 0.000000
vt 0.639772 0.832270 0.000000
vt 0.951722 0.704969 0.000000
vt 0.929145 0.780320 0.000000
vt 0.499827 0.832270 0.000000
vt 0.359882 0.832270 0.000000
vt 0.399601 0.686952 0.000000
vt 0.463277 0.571929 0.000000
vt 0.382873 0.578761 0.000000
vt 0.295091 0.498646 0.000000
vt 0.266643 0.721200 0.000000
vt 0.173690 0.841961 0.000000
vt 0.142801 0.757386 0.000000
vt 0.139128 0.669172 0.000000
vt 0.257683 0.625689 0.000000
vt 0.151044 0.558208 0.000000
vt 0.182852 0.453597 0.000000
vt 0.070509 0.780320 0.000000
vt 0.047932 0.704969 0.000000
vt 0.043662 0.582401 0.000000
vt 0.071201 0.448044 0.000000
usemtl Material_0
f 1/1/1 2/2/2 3/3/3
f 4/4/4 2/2/2 1/1/1
f 2/2/2 4/4/4 5/5/5
f 5/5/5 6/6/6 2/2/2
f 7/7/7 2/2/2 6/6/6
f 3/3/3 2/2/2 7/7/7
f 7/7/7 8/8/8 3/3/3
f 4/4/4 1/1/1 9/9/9
f 5/5/5 4/4/4 9/9/9
f 9/9/9 10/10/10 5/5/5
f 11/11/11 5/5/5 10/10/10
f 11/11/11 6/6/6 5/5/5
f 12/12/12 6/6/6 11/11/11
f 6/6/6 12/12/12 13/13/13
f 7/7/7 6/6/6 13/13/13
f 1/1/1 14/14/14 9/9/9
f 15/15/15 9/9/9 14/14/14
f 15/15/15 10/10/10 9/9/9
f 15/15/15 16/16/16 10/10/10
f 10/10/10 16/16/16 17/17/17
f 11/11/11 10/10/10 17/17/17
f 17/17/17 18/18/18 11/11/11
f 11/11/11 18/18/18 12/12/12
f 14/14/14 19/19/19 15/15/15
f 20/20/20 15/15/15 19/19/19
f 15/15/15 20/20/20 16/16/16
f 20/20/20 21/21/21 16/16/16
f 16/16/16 21/21/21 17/17/17
f 17/17/17 21/21/21 22/22/22
f 17/17/17 22/22/22 23/23/23
f 17/17/17 23/23/23 24/24/24
f 24/24/24 18/18/18 17/17/17
f 12/12/12 18/18/18 24/24/24
f 19/19/19 25/25/25 20/20/20
f 20/20/20 25/25/25 26/26/26
f 20/20/20 26/26/26 27/27/27
f 20/20/20 27/27/27 21/21/21
f 28/28/28 21/21/21 27/27/27
f 22/22/22 21/21/21 28/28/28
f 22/22/22 28/28/28 29/29/29
f 29/29/29 30/30/30 22/22/22
f 23/23/23 22/22/22 30/30/30
f 31/31/31 23/23/23 30/30/30
f 31/31/31 24/24/24 23/23/23
f 32/32/32 27/27/27 26/26/26
f 27/27/27 32/32/32 28/28/28
f 29/29/29 28/28/28 32/32/32
f 32/32/32 33/33/33 29/29/29
f 34/34/34 29/29/29 33/33/33
f 35/35/35 29/29/29 34/34/34
f 35/35/35 30/30/30 29/29/29
f 31/31/31 30/30/30 35/35/35
f 26/26/26 36/36/36 32/32/32
f 33/33/33 32/32/32 36/36/36
f 36/36/36 37/37/37 33/33/33
f 34/34/34 33/33/33 37/37/37
f 35/35/35 38/38/38 31/31/31
f 31/31/31 38/38/38 39/39/39
f 39/39/39 40/40/40 31/31/31
f 31/31/31 40/40/40 41/41/41
f 31/31/31 41/41/41 24/24/24
f 24/24/24 41/41/41 12/12/12
f 12/12/12 41/41/41 42/42/42
f 12/12/12 42/42/42 43/43/43
f 13/13/13 12/12/12 43/43/43
f 39/39/39 44/44/44 40/40/40
f 42/42/42 40/40/40 44/44/44
f 41/41/41 40/40/40 42/42/42
f 39/39/39 45/45/45 44/44/44
f 45/45/45 46/46/46 44/44/44
f 44/44/44 46/46/46 47/47/47
f 47/47/47 48/48/48 44/44/44
f 44/44/44 48/48/48 42/42/42
f 42/42/42 48/48/48 43/43/43
f 48/48/48 49/49/49 43/43/43
f 50/50/50 43/43/43 49/49/49
f 50/50/50 13/13/13 43/43/43
f 7/7/7 13/13/13 50/50/50
f 45/45/45 51/51/51 46/46/46
f 46/46/46 51/51/51 52/52/52
f 52/52/52 47/47/47 46/46/46
f 47/47/47 52/52/52 53/53/53
f 53/53/53 49/49/49 47/47/47
f 49/49/49 48/48/48 47/47/47
f 50/50/50 49/49/49 53/53/53
f 50/50/50 53/53/53 54/54/54
f 50/50/50 54/54/54 8/8/8
f 8/8/8 7/7/7 50/50/50
